%TF.GenerationSoftware,KiCad,Pcbnew,9.0.6*%
%TF.CreationDate,2025-12-09T15:41:04+01:00*%
%TF.ProjectId,CO2Monitor,434f324d-6f6e-4697-946f-722e6b696361,rev?*%
%TF.SameCoordinates,PX83b1de0PY8351ad0*%
%TF.FileFunction,Copper,L2,Bot*%
%TF.FilePolarity,Positive*%
%FSLAX46Y46*%
G04 Gerber Fmt 4.6, Leading zero omitted, Abs format (unit mm)*
G04 Created by KiCad (PCBNEW 9.0.6) date 2025-12-09 15:41:04*
%MOMM*%
%LPD*%
G01*
G04 APERTURE LIST*
%TA.AperFunction,ComponentPad*%
%ADD10C,5.500000*%
%TD*%
%TA.AperFunction,ComponentPad*%
%ADD11O,1.600000X1.100000*%
%TD*%
%TA.AperFunction,SMDPad,CuDef*%
%ADD12R,0.355600X0.838200*%
%TD*%
%TA.AperFunction,SMDPad,CuDef*%
%ADD13R,0.406400X0.838200*%
%TD*%
%TA.AperFunction,ViaPad*%
%ADD14C,0.600000*%
%TD*%
%TA.AperFunction,Conductor*%
%ADD15C,0.350000*%
%TD*%
%TA.AperFunction,Conductor*%
%ADD16C,0.200000*%
%TD*%
%TA.AperFunction,Conductor*%
%ADD17C,0.600000*%
%TD*%
%TA.AperFunction,Conductor*%
%ADD18C,0.250000*%
%TD*%
G04 APERTURE END LIST*
D10*
%TO.P,H1,1,1*%
%TO.N,GND*%
X4975000Y4975000D03*
%TD*%
%TO.P,H3,1,1*%
%TO.N,GND*%
X42688000Y46185000D03*
%TD*%
%TO.P,H2,1,1*%
%TO.N,GND*%
X4975000Y46185000D03*
%TD*%
D11*
%TO.P,J2,S4*%
%TO.N,N/C*%
X35808001Y9805499D03*
%TO.P,J2,S3*%
X43808001Y9805499D03*
%TO.P,J2,S2*%
X35808001Y6945499D03*
%TO.P,J2,S1,SHIELD*%
%TO.N,GND*%
X43808001Y6945499D03*
%TD*%
D12*
%TO.P,J1,1,1*%
%TO.N,unconnected-(J1-Pad1)*%
X42690502Y31983000D03*
%TO.P,J1,2,2*%
%TO.N,Net-(Q1-G)*%
X42190501Y31983000D03*
%TO.P,J1,3,3*%
%TO.N,Net-(Q1-S)*%
X41690502Y31983000D03*
%TO.P,J1,4,4*%
%TO.N,unconnected-(J1-Pad4)*%
X41190500Y31983000D03*
%TO.P,J1,5,5*%
%TO.N,Net-(C1-Pad2)*%
X40690501Y31983000D03*
%TO.P,J1,6,6*%
%TO.N,unconnected-(J1-Pad6)*%
X40190502Y31983000D03*
%TO.P,J1,7,7*%
%TO.N,unconnected-(J1-Pad7)*%
X39690501Y31983000D03*
%TO.P,J1,8,8*%
%TO.N,GND*%
X39190502Y31983000D03*
%TO.P,J1,9,9*%
%TO.N,Net-(U4-GPIO14)*%
X38690500Y31983000D03*
%TO.P,J1,10,10*%
%TO.N,Net-(U4-GPIO19)*%
X38190501Y31983000D03*
%TO.P,J1,11,11*%
%TO.N,Net-(U4-GPIO20)*%
X37690502Y31983000D03*
%TO.P,J1,12,12*%
%TO.N,Net-(U4-GPIO21)*%
X37190501Y31983000D03*
%TO.P,J1,13,13*%
%TO.N,Net-(U4-GPIO22)*%
X36690501Y31983000D03*
%TO.P,J1,14,14*%
%TO.N,Net-(U4-GPIO23)*%
X36190500Y31983000D03*
%TO.P,J1,15,15*%
%TO.N,Net-(Q2-D)*%
X35690501Y31983000D03*
%TO.P,J1,16,16*%
X35190502Y31983000D03*
%TO.P,J1,17,17*%
%TO.N,GND*%
X34690500Y31983000D03*
%TO.P,J1,18,18*%
%TO.N,Net-(C2-Pad2)*%
X34190501Y31983000D03*
%TO.P,J1,19,19*%
%TO.N,unconnected-(J1-Pad19)*%
X33690500Y31983000D03*
%TO.P,J1,20,20*%
%TO.N,Net-(C3-Pad2)*%
X33190501Y31983000D03*
%TO.P,J1,21,21*%
%TO.N,Net-(D1-K)*%
X32690502Y31983000D03*
%TO.P,J1,22,22*%
%TO.N,Net-(C5-Pad2)*%
X32190500Y31983000D03*
%TO.P,J1,23,23*%
%TO.N,Net-(D2-A)*%
X31690501Y31983000D03*
%TO.P,J1,24,24*%
%TO.N,Net-(C4-Pad2)*%
X31190502Y31983000D03*
D13*
%TO.P,J1,25,SHIELD*%
%TO.N,GND*%
X43690500Y29483000D03*
%TO.P,J1,26,SHIELD*%
X30190502Y29483000D03*
%TD*%
D14*
%TO.N,GND*%
X801000Y10704000D03*
X801000Y40440000D03*
X46863000Y50360000D03*
X46861000Y40441750D03*
X46861000Y30529750D03*
X46861000Y20617750D03*
X46861000Y10705750D03*
X46846000Y808000D03*
X12312750Y802000D03*
X23829000Y800000D03*
X35351000Y800000D03*
X800000Y800000D03*
X35347250Y50360000D03*
X12315750Y50360000D03*
X23831500Y50360000D03*
X800000Y50360000D03*
X39628000Y33108000D03*
X33938000Y18498000D03*
X18598000Y46708000D03*
X13698000Y38798000D03*
X40678000Y35358000D03*
X44988000Y31618000D03*
X39468000Y26448000D03*
X29048000Y34818000D03*
X22548000Y32848000D03*
X19318000Y19948000D03*
X10718000Y16448000D03*
X17598000Y10448000D03*
X23788000Y9818000D03*
X28478000Y8968000D03*
X22718000Y2348000D03*
X35448000Y11388000D03*
X44108000Y11728000D03*
X41088000Y3528000D03*
X42808000Y15878000D03*
X11088000Y27873000D03*
X13063000Y27873000D03*
X15038000Y27873000D03*
X15038000Y25898000D03*
X13063000Y25898000D03*
X11088000Y25898000D03*
X11088000Y23923000D03*
X13063000Y23923000D03*
X15038000Y23923000D03*
%TO.N,VBUS*%
X38558001Y7968000D03*
X41058001Y8078000D03*
%TO.N,+3.3V*%
X19538000Y39288000D03*
%TO.N,Net-(J3-Pin_3)*%
X18418000Y24278000D03*
X20218000Y42508000D03*
%TO.N,Net-(J3-Pin_4)*%
X16958000Y42473000D03*
X16928000Y23498000D03*
%TO.N,/EN*%
X20428000Y11898000D03*
X14148000Y18578000D03*
%TO.N,/GPIO 9*%
X13948000Y33763000D03*
X13948000Y29898000D03*
%TO.N,/GPIO5*%
X21438000Y14628000D03*
X18183000Y17883000D03*
%TO.N,+3.3V*%
X30783000Y23198000D03*
X22278000Y28608000D03*
%TO.N,Net-(U4-GPIO23)*%
X36122338Y38178000D03*
%TO.N,Net-(U4-GPIO22)*%
X36699062Y37603000D03*
%TO.N,Net-(U4-GPIO21)*%
X37189519Y37028000D03*
%TO.N,Net-(U4-GPIO20)*%
X37695284Y36453000D03*
%TO.N,Net-(U4-GPIO19)*%
X38198000Y35878000D03*
%TO.N,Net-(U4-GPIO14)*%
X38765501Y32778121D03*
%TO.N,VBUS*%
X32268000Y5728000D03*
X35798000Y5738000D03*
%TO.N,Net-(Q2-G)*%
X22918000Y20218000D03*
X20488000Y17788000D03*
%TO.N,+3.3V*%
X25843000Y15933000D03*
X22598000Y15378000D03*
%TO.N,Net-(Q2-D)*%
X33933000Y22635500D03*
%TO.N,Net-(D2-A)*%
X31533000Y30410500D03*
%TO.N,Net-(C4-Pad2)*%
X30383000Y33260500D03*
%TO.N,Net-(C5-Pad2)*%
X31883000Y33260500D03*
%TO.N,Net-(C3-Pad2)*%
X33353000Y33260500D03*
%TO.N,Net-(C2-Pad2)*%
X34833000Y33260500D03*
%TO.N,Net-(D1-K)*%
X33033000Y30410500D03*
%TO.N,Net-(C1-Pad2)*%
X40683000Y32860500D03*
%TO.N,Net-(Q1-S)*%
X39483000Y30673000D03*
%TO.N,Net-(Q1-G)*%
X43883000Y30578000D03*
%TO.N,Net-(J2-D+-PadA6)*%
X38058001Y4662999D03*
X40010280Y5775499D03*
%TO.N,Net-(J2-D--PadA7)*%
X39451414Y8068912D03*
X40408001Y8838998D03*
%TO.N,GND*%
X30190502Y29483000D03*
%TD*%
D15*
%TO.N,GND*%
X34690500Y31983000D02*
X34690500Y30740500D01*
D16*
X39261701Y32054199D02*
X39190502Y31983000D01*
X39261701Y32505803D02*
X39261701Y32054199D01*
X39608000Y33088000D02*
X39608000Y32852102D01*
X39628000Y33108000D02*
X39608000Y33088000D01*
X39608000Y32852102D02*
X39261701Y32505803D01*
D15*
%TO.N,VBUS*%
X40318001Y7338000D02*
X39188001Y7338000D01*
X39188001Y7338000D02*
X38558001Y7968000D01*
X41058001Y8078000D02*
X40318001Y7338000D01*
D17*
%TO.N,+3.3V*%
X19538000Y31348000D02*
X22278000Y28608000D01*
X19538000Y39288000D02*
X19538000Y31348000D01*
D18*
%TO.N,Net-(J3-Pin_3)*%
X18418000Y24278000D02*
X18418000Y40708000D01*
X18418000Y40708000D02*
X20218000Y42508000D01*
%TO.N,Net-(J3-Pin_4)*%
X16958000Y23528000D02*
X16958000Y42473000D01*
X16928000Y23498000D02*
X16958000Y23528000D01*
%TO.N,/EN*%
X20428000Y12298000D02*
X20428000Y11898000D01*
X14148000Y18578000D02*
X20428000Y12298000D01*
%TO.N,/GPIO5*%
X18183000Y17883000D02*
X21438000Y14628000D01*
%TO.N,/GPIO 9*%
X13948000Y29898000D02*
X13948000Y33763000D01*
D17*
%TO.N,+3.3V*%
X22278000Y28608000D02*
X25373000Y28608000D01*
X25373000Y28608000D02*
X30783000Y23198000D01*
D18*
%TO.N,Net-(U4-GPIO19)*%
X38190501Y35870501D02*
X38190501Y31983000D01*
X38198000Y35878000D02*
X38190501Y35870501D01*
%TO.N,Net-(U4-GPIO23)*%
X36122338Y37365136D02*
X36122338Y38178000D01*
X36190500Y37296974D02*
X36122338Y37365136D01*
X36190500Y31983000D02*
X36190500Y37296974D01*
%TO.N,Net-(U4-GPIO22)*%
X36613519Y32729082D02*
X36690501Y32652100D01*
X36613519Y37517457D02*
X36613519Y32729082D01*
X36690501Y32652100D02*
X36690501Y31983000D01*
X36699062Y37603000D02*
X36613519Y37517457D01*
%TO.N,Net-(U4-GPIO14)*%
X38690500Y32703120D02*
X38765501Y32778121D01*
X38690500Y31983000D02*
X38690500Y32703120D01*
%TO.N,Net-(Q1-G)*%
X42190501Y31334101D02*
X42190501Y31983000D01*
X42714102Y30810500D02*
X42190501Y31334101D01*
X43883000Y30578000D02*
X43650500Y30810500D01*
X43650500Y30810500D02*
X42714102Y30810500D01*
D15*
%TO.N,VBUS*%
X35798000Y5738000D02*
X32278000Y5738000D01*
X32278000Y5738000D02*
X32268000Y5728000D01*
D18*
%TO.N,Net-(Q2-G)*%
X22918000Y20218000D02*
X20488000Y17788000D01*
D17*
%TO.N,+3.3V*%
X23838000Y15378000D02*
X24393000Y15933000D01*
X24393000Y15933000D02*
X25843000Y15933000D01*
X22598000Y15378000D02*
X23838000Y15378000D01*
D18*
%TO.N,Net-(Q1-S)*%
X41690502Y31220502D02*
X41690502Y31983000D01*
X41143000Y30673000D02*
X41690502Y31220502D01*
X39483000Y30673000D02*
X41143000Y30673000D01*
%TO.N,Net-(Q2-D)*%
X35690501Y27018001D02*
X35690501Y31983000D01*
X34210500Y25538000D02*
X35690501Y27018001D01*
X34210500Y22913000D02*
X34210500Y25538000D01*
X33933000Y22635500D02*
X34210500Y22913000D01*
%TO.N,Net-(D1-K)*%
X32690502Y31452998D02*
X32690502Y31983000D01*
X33033000Y30410500D02*
X33033000Y31110500D01*
X33033000Y31110500D02*
X32690502Y31452998D01*
%TO.N,Net-(D2-A)*%
X31690501Y31313900D02*
X31690501Y31983000D01*
X31490499Y31113898D02*
X31690501Y31313900D01*
X31533000Y30410500D02*
X31490499Y30453001D01*
X31490499Y30453001D02*
X31490499Y31113898D01*
%TO.N,Net-(Q2-D)*%
X35190502Y31983000D02*
X35690501Y31983000D01*
%TO.N,Net-(C4-Pad2)*%
X31190502Y32452998D02*
X30383000Y33260500D01*
X31190502Y31983000D02*
X31190502Y32452998D01*
%TO.N,Net-(C5-Pad2)*%
X32190500Y32953000D02*
X31883000Y33260500D01*
X32190500Y31983000D02*
X32190500Y32953000D01*
%TO.N,Net-(C3-Pad2)*%
X33190501Y33098001D02*
X33353000Y33260500D01*
X33190501Y31983000D02*
X33190501Y33098001D01*
%TO.N,Net-(C2-Pad2)*%
X34190501Y32618001D02*
X34833000Y33260500D01*
X34190501Y31983000D02*
X34190501Y32618001D01*
%TO.N,Net-(C1-Pad2)*%
X40690501Y31983000D02*
X40690501Y32852999D01*
X40690501Y32852999D02*
X40683000Y32860500D01*
%TO.N,Net-(J2-D+-PadA6)*%
X39170501Y5775499D02*
X38058001Y4662999D01*
X40010280Y5775499D02*
X39170501Y5775499D01*
%TO.N,Net-(J2-D--PadA7)*%
X39637915Y8068912D02*
X40408001Y8838998D01*
X39451414Y8068912D02*
X39637915Y8068912D01*
%TO.N,Net-(U4-GPIO20)*%
X37622000Y35639412D02*
X37690502Y35570910D01*
X37690502Y35570910D02*
X37690502Y31983000D01*
X37622000Y36379716D02*
X37622000Y35639412D01*
X37695284Y36453000D02*
X37622000Y36379716D01*
%TO.N,Net-(U4-GPIO21)*%
X37190501Y32494201D02*
X37190501Y31983000D01*
X37119284Y32565418D02*
X37190501Y32494201D01*
X37119284Y36957765D02*
X37119284Y32565418D01*
X37189519Y37028000D02*
X37119284Y36957765D01*
%TD*%
%TA.AperFunction,Conductor*%
%TO.N,GND*%
G36*
X47140826Y50637826D02*
G01*
X47162500Y50585500D01*
X47162500Y574500D01*
X47140826Y522174D01*
X47088500Y500500D01*
X574500Y500500D01*
X522174Y522174D01*
X500500Y574500D01*
X500500Y4728894D01*
X37557501Y4728894D01*
X37557501Y4597105D01*
X37591607Y4469818D01*
X37591608Y4469815D01*
X37591609Y4469813D01*
X37657501Y4355685D01*
X37750687Y4262499D01*
X37864815Y4196607D01*
X37992106Y4162500D01*
X37992107Y4162499D01*
X37992109Y4162499D01*
X38123895Y4162499D01*
X38123895Y4162500D01*
X38251187Y4196607D01*
X38365315Y4262499D01*
X38458501Y4355685D01*
X38524393Y4469813D01*
X38558500Y4597105D01*
X38558501Y4597105D01*
X38558501Y4672521D01*
X38580175Y4724847D01*
X39283653Y5428325D01*
X39335979Y5449999D01*
X39597314Y5449999D01*
X39649640Y5428325D01*
X39702966Y5374999D01*
X39817094Y5309107D01*
X39944385Y5275000D01*
X39944386Y5274999D01*
X39944388Y5274999D01*
X40076174Y5274999D01*
X40076174Y5275000D01*
X40203466Y5309107D01*
X40317594Y5374999D01*
X40410780Y5468185D01*
X40476672Y5582313D01*
X40510779Y5709605D01*
X40510780Y5709605D01*
X40510780Y5841393D01*
X40510779Y5841394D01*
X40476673Y5968681D01*
X40476672Y5968685D01*
X40410780Y6082813D01*
X40317594Y6175999D01*
X40285740Y6194390D01*
X40203470Y6241889D01*
X40203461Y6241893D01*
X40076174Y6275999D01*
X40076172Y6275999D01*
X39944388Y6275999D01*
X39944386Y6275999D01*
X39817098Y6241893D01*
X39817089Y6241889D01*
X39702965Y6175999D01*
X39649640Y6122673D01*
X39597314Y6100999D01*
X39217900Y6100999D01*
X39217884Y6101000D01*
X39213354Y6101000D01*
X39127648Y6101000D01*
X39127647Y6101000D01*
X39093712Y6091907D01*
X39059776Y6082813D01*
X39051164Y6080506D01*
X39044861Y6078817D01*
X38970638Y6035964D01*
X38119848Y5185173D01*
X38067522Y5163499D01*
X37992107Y5163499D01*
X37864819Y5129393D01*
X37864810Y5129389D01*
X37750686Y5063499D01*
X37657501Y4970314D01*
X37591611Y4856190D01*
X37591607Y4856181D01*
X37557501Y4728894D01*
X500500Y4728894D01*
X500500Y5793895D01*
X31767500Y5793895D01*
X31767500Y5662106D01*
X31801606Y5534819D01*
X31801607Y5534816D01*
X31801608Y5534814D01*
X31867500Y5420686D01*
X31960686Y5327500D01*
X32074814Y5261608D01*
X32202105Y5227501D01*
X32202106Y5227500D01*
X32202108Y5227500D01*
X32333894Y5227500D01*
X32333894Y5227501D01*
X32461186Y5261608D01*
X32575314Y5327500D01*
X32588640Y5340826D01*
X32640966Y5362500D01*
X35435034Y5362500D01*
X35487360Y5340826D01*
X35490686Y5337500D01*
X35604814Y5271608D01*
X35732105Y5237501D01*
X35732106Y5237500D01*
X35732108Y5237500D01*
X35863894Y5237500D01*
X35863894Y5237501D01*
X35991186Y5271608D01*
X36105314Y5337500D01*
X36198500Y5430686D01*
X36264392Y5544814D01*
X36298499Y5672106D01*
X36298500Y5672106D01*
X36298500Y5803894D01*
X36298499Y5803895D01*
X36267072Y5921182D01*
X36264392Y5931186D01*
X36198500Y6045314D01*
X36109471Y6134343D01*
X36087797Y6186669D01*
X36109471Y6238995D01*
X36147358Y6259246D01*
X36259412Y6281535D01*
X36385075Y6333586D01*
X36498169Y6409153D01*
X36594347Y6505331D01*
X36669914Y6618425D01*
X36721965Y6744088D01*
X36728218Y6775525D01*
X36739020Y6829826D01*
X36739020Y6829827D01*
X36748501Y6877492D01*
X36748501Y7013506D01*
X36721966Y7146905D01*
X36721965Y7146906D01*
X36721965Y7146910D01*
X36702696Y7193430D01*
X36669916Y7272569D01*
X36669915Y7272571D01*
X36669914Y7272573D01*
X36594347Y7385667D01*
X36498169Y7481845D01*
X36489939Y7487344D01*
X36421374Y7533158D01*
X36389908Y7580251D01*
X36400957Y7635799D01*
X36421373Y7656215D01*
X36503350Y7710989D01*
X36622511Y7830150D01*
X36716134Y7970268D01*
X36742490Y8033895D01*
X38057501Y8033895D01*
X38057501Y7902106D01*
X38091607Y7774819D01*
X38091611Y7774810D01*
X38099239Y7761598D01*
X38157501Y7660686D01*
X38250687Y7567500D01*
X38364815Y7501608D01*
X38492106Y7467501D01*
X38492107Y7467500D01*
X38492109Y7467500D01*
X38496812Y7467500D01*
X38549138Y7445826D01*
X38957439Y7037525D01*
X39043064Y6988089D01*
X39138565Y6962500D01*
X39138566Y6962500D01*
X39138567Y6962500D01*
X40367437Y6962500D01*
X40415187Y6975295D01*
X40462939Y6988090D01*
X40548563Y7037525D01*
X40606538Y7095500D01*
X42721185Y7095500D01*
X42721185Y7095499D01*
X43298193Y7095499D01*
X43278445Y7061295D01*
X43258001Y6984995D01*
X43258001Y6906003D01*
X43278445Y6829703D01*
X43298193Y6795499D01*
X42721185Y6795499D01*
X42740664Y6697569D01*
X42740666Y6697563D01*
X42804741Y6542873D01*
X42897762Y6403656D01*
X43016157Y6285261D01*
X43155374Y6192240D01*
X43310064Y6128165D01*
X43310070Y6128163D01*
X43474285Y6095499D01*
X43658001Y6095499D01*
X43658001Y6645499D01*
X43958001Y6645499D01*
X43958001Y6095499D01*
X44141717Y6095499D01*
X44305931Y6128163D01*
X44305937Y6128165D01*
X44460627Y6192240D01*
X44599844Y6285261D01*
X44599846Y6285262D01*
X44718238Y6403654D01*
X44718239Y6403656D01*
X44811260Y6542873D01*
X44875335Y6697563D01*
X44875337Y6697569D01*
X44894816Y6795499D01*
X44317809Y6795499D01*
X44337557Y6829703D01*
X44358001Y6906003D01*
X44358001Y6984995D01*
X44337557Y7061295D01*
X44317809Y7095499D01*
X44894817Y7095499D01*
X44894816Y7095500D01*
X44875337Y7193430D01*
X44875335Y7193436D01*
X44811260Y7348126D01*
X44718239Y7487343D01*
X44599844Y7605738D01*
X44460627Y7698759D01*
X44305937Y7762834D01*
X44305930Y7762836D01*
X44229617Y7778015D01*
X44182524Y7809481D01*
X44171475Y7865029D01*
X44191725Y7902917D01*
X44292522Y8003713D01*
X44372237Y8141785D01*
X44372803Y8143895D01*
X44406910Y8271186D01*
X44413500Y8295781D01*
X44413501Y8295781D01*
X44413501Y8455217D01*
X44413500Y8455218D01*
X44372238Y8609211D01*
X44363230Y8624813D01*
X44292522Y8747285D01*
X44179787Y8860020D01*
X44074434Y8920845D01*
X44041712Y8939737D01*
X43930555Y8969521D01*
X43885622Y9003999D01*
X43878230Y9060152D01*
X43912708Y9105085D01*
X43949708Y9114999D01*
X44126007Y9114999D01*
X44126009Y9114999D01*
X44259412Y9141535D01*
X44385075Y9193586D01*
X44498169Y9269153D01*
X44594347Y9365331D01*
X44669914Y9478425D01*
X44721965Y9604088D01*
X44748501Y9737491D01*
X44748501Y9873507D01*
X44721965Y10006910D01*
X44669914Y10132573D01*
X44594347Y10245667D01*
X44498169Y10341845D01*
X44385075Y10417412D01*
X44385071Y10417414D01*
X44385069Y10417415D01*
X44385070Y10417415D01*
X44259416Y10469462D01*
X44259406Y10469465D01*
X44170073Y10487234D01*
X44126009Y10495999D01*
X43489993Y10495999D01*
X43452175Y10488477D01*
X43356595Y10469465D01*
X43356585Y10469462D01*
X43230931Y10417415D01*
X43117833Y10341846D01*
X43117832Y10341844D01*
X43021656Y10245668D01*
X43021654Y10245667D01*
X42946085Y10132569D01*
X42894038Y10006915D01*
X42894035Y10006905D01*
X42867501Y9873506D01*
X42867501Y9737493D01*
X42894035Y9604094D01*
X42894038Y9604084D01*
X42946085Y9478430D01*
X42946087Y9478427D01*
X42946088Y9478425D01*
X43021655Y9365331D01*
X43117833Y9269153D01*
X43230927Y9193586D01*
X43230932Y9193584D01*
X43230931Y9193584D01*
X43345055Y9146313D01*
X43356590Y9141535D01*
X43489993Y9114999D01*
X43489995Y9114999D01*
X43666294Y9114999D01*
X43718620Y9093325D01*
X43740294Y9040999D01*
X43718620Y8988673D01*
X43685447Y8969521D01*
X43574289Y8939737D01*
X43436214Y8860020D01*
X43323480Y8747286D01*
X43243763Y8609211D01*
X43202501Y8455218D01*
X43202501Y8295781D01*
X43243763Y8141788D01*
X43323480Y8003713D01*
X43424274Y7902919D01*
X43445948Y7850593D01*
X43424274Y7798267D01*
X43386385Y7778015D01*
X43310070Y7762836D01*
X43310064Y7762834D01*
X43155374Y7698759D01*
X43016157Y7605738D01*
X43016156Y7605736D01*
X42897764Y7487344D01*
X42897762Y7487343D01*
X42804741Y7348126D01*
X42740666Y7193436D01*
X42740664Y7193430D01*
X42721185Y7095500D01*
X40606538Y7095500D01*
X40618476Y7107438D01*
X41066864Y7555826D01*
X41119190Y7577500D01*
X41123895Y7577500D01*
X41123895Y7577501D01*
X41251187Y7611608D01*
X41365315Y7677500D01*
X41458501Y7770686D01*
X41524393Y7884814D01*
X41558500Y8012106D01*
X41558501Y8012106D01*
X41558501Y8143894D01*
X41558500Y8143895D01*
X41524394Y8271182D01*
X41524393Y8271186D01*
X41458501Y8385314D01*
X41365315Y8478500D01*
X41273198Y8531684D01*
X41251191Y8544390D01*
X41251182Y8544394D01*
X41123895Y8578500D01*
X41123893Y8578500D01*
X40992109Y8578500D01*
X40992108Y8578500D01*
X40969658Y8572485D01*
X40913506Y8579879D01*
X40879028Y8624813D01*
X40879028Y8663114D01*
X40908500Y8773104D01*
X40908501Y8773104D01*
X40908501Y8904892D01*
X40908500Y8904893D01*
X40874394Y9032180D01*
X40874393Y9032184D01*
X40808501Y9146312D01*
X40715315Y9239498D01*
X40663951Y9269153D01*
X40601191Y9305388D01*
X40601182Y9305392D01*
X40473895Y9339498D01*
X40473893Y9339498D01*
X40342109Y9339498D01*
X40342107Y9339498D01*
X40214819Y9305392D01*
X40214810Y9305388D01*
X40100686Y9239498D01*
X40007501Y9146313D01*
X39941611Y9032189D01*
X39941607Y9032180D01*
X39907501Y8904893D01*
X39907501Y8829478D01*
X39885827Y8777152D01*
X39674321Y8565647D01*
X39621995Y8543973D01*
X39602844Y8546494D01*
X39517306Y8569412D01*
X39385522Y8569412D01*
X39385520Y8569412D01*
X39258232Y8535306D01*
X39258223Y8535302D01*
X39144099Y8469412D01*
X39050913Y8376226D01*
X39028370Y8337181D01*
X38983436Y8302703D01*
X38927284Y8310097D01*
X38911959Y8321856D01*
X38865315Y8368500D01*
X38751191Y8434390D01*
X38751182Y8434394D01*
X38623895Y8468500D01*
X38623893Y8468500D01*
X38492109Y8468500D01*
X38492107Y8468500D01*
X38364819Y8434394D01*
X38364810Y8434390D01*
X38250686Y8368500D01*
X38157501Y8275315D01*
X38091611Y8161191D01*
X38091607Y8161182D01*
X38057501Y8033895D01*
X36742490Y8033895D01*
X36780624Y8125958D01*
X36813500Y8291238D01*
X36813500Y8309603D01*
X36813501Y8309605D01*
X36813501Y8375498D01*
X36813501Y8441390D01*
X36813499Y8441398D01*
X36813499Y8459757D01*
X36780623Y8625037D01*
X36716134Y8780728D01*
X36622511Y8920847D01*
X36503350Y9040008D01*
X36503341Y9040014D01*
X36421374Y9094783D01*
X36389908Y9141876D01*
X36400957Y9197424D01*
X36421371Y9217839D01*
X36498169Y9269153D01*
X36594347Y9365331D01*
X36669914Y9478425D01*
X36721965Y9604088D01*
X36748501Y9737491D01*
X36748501Y9873507D01*
X36721965Y10006910D01*
X36669914Y10132573D01*
X36594347Y10245667D01*
X36498169Y10341845D01*
X36385075Y10417412D01*
X36385071Y10417414D01*
X36385069Y10417415D01*
X36385070Y10417415D01*
X36259416Y10469462D01*
X36259406Y10469465D01*
X36170073Y10487234D01*
X36126009Y10495999D01*
X35489993Y10495999D01*
X35452175Y10488477D01*
X35356595Y10469465D01*
X35356585Y10469462D01*
X35230931Y10417415D01*
X35117833Y10341846D01*
X35117832Y10341844D01*
X35021656Y10245668D01*
X35021654Y10245667D01*
X34946085Y10132569D01*
X34894038Y10006915D01*
X34894035Y10006905D01*
X34867501Y9873506D01*
X34867501Y9737493D01*
X34894035Y9604094D01*
X34894038Y9604084D01*
X34946085Y9478430D01*
X34946087Y9478427D01*
X34946088Y9478425D01*
X35021655Y9365331D01*
X35117833Y9269153D01*
X35194628Y9217840D01*
X35226093Y9170750D01*
X35215044Y9115201D01*
X35194628Y9094785D01*
X35112657Y9040014D01*
X34993488Y8920845D01*
X34899866Y8780730D01*
X34835377Y8625039D01*
X34835375Y8625032D01*
X34802501Y8459757D01*
X34802501Y8406152D01*
X34802499Y8406146D01*
X34802499Y8291239D01*
X34835375Y8125963D01*
X34835378Y8125953D01*
X34899864Y7970269D01*
X34899865Y7970268D01*
X34899866Y7970266D01*
X34993491Y7830148D01*
X35112650Y7710990D01*
X35112652Y7710988D01*
X35194626Y7656215D01*
X35226092Y7609123D01*
X35215043Y7553574D01*
X35194627Y7533157D01*
X35117830Y7481843D01*
X35021656Y7385668D01*
X35021654Y7385667D01*
X34946085Y7272569D01*
X34894038Y7146915D01*
X34894035Y7146905D01*
X34867501Y7013506D01*
X34867501Y6877493D01*
X34894035Y6744094D01*
X34894038Y6744084D01*
X34946085Y6618430D01*
X34946087Y6618427D01*
X34946088Y6618425D01*
X35021655Y6505331D01*
X35117833Y6409153D01*
X35230927Y6333586D01*
X35230932Y6333584D01*
X35230931Y6333584D01*
X35356585Y6281537D01*
X35356590Y6281535D01*
X35356594Y6281535D01*
X35356595Y6281534D01*
X35451957Y6262565D01*
X35469899Y6250576D01*
X35489835Y6242323D01*
X35492739Y6235315D01*
X35499049Y6231099D01*
X35503258Y6209935D01*
X35511520Y6190002D01*
X35508617Y6182992D01*
X35510098Y6175550D01*
X35489856Y6137672D01*
X35487370Y6135185D01*
X35435049Y6113500D01*
X32619982Y6113500D01*
X32580074Y6127047D01*
X32579514Y6126075D01*
X32557993Y6138500D01*
X32545921Y6145471D01*
X32461190Y6194390D01*
X32461181Y6194394D01*
X32333894Y6228500D01*
X32333892Y6228500D01*
X32202108Y6228500D01*
X32202106Y6228500D01*
X32074818Y6194394D01*
X32074809Y6194390D01*
X31960685Y6128500D01*
X31867500Y6035315D01*
X31801610Y5921191D01*
X31801606Y5921182D01*
X31767500Y5793895D01*
X500500Y5793895D01*
X500500Y18643895D01*
X13647500Y18643895D01*
X13647500Y18512106D01*
X13681606Y18384819D01*
X13681610Y18384810D01*
X13737215Y18288500D01*
X13747500Y18270686D01*
X13840686Y18177500D01*
X13954814Y18111608D01*
X14082105Y18077501D01*
X14082106Y18077500D01*
X14082108Y18077500D01*
X14157521Y18077500D01*
X14209847Y18055826D01*
X19999376Y12266297D01*
X20021050Y12213971D01*
X20011136Y12176971D01*
X19961610Y12091191D01*
X19961606Y12091182D01*
X19927500Y11963895D01*
X19927500Y11832106D01*
X19961606Y11704819D01*
X19961607Y11704816D01*
X19961608Y11704814D01*
X20027500Y11590686D01*
X20120686Y11497500D01*
X20234814Y11431608D01*
X20362105Y11397501D01*
X20362106Y11397500D01*
X20362108Y11397500D01*
X20493894Y11397500D01*
X20493894Y11397501D01*
X20621186Y11431608D01*
X20735314Y11497500D01*
X20828500Y11590686D01*
X20894392Y11704814D01*
X20928499Y11832106D01*
X20928500Y11832106D01*
X20928500Y11963894D01*
X20928499Y11963895D01*
X20894393Y12091182D01*
X20894392Y12091186D01*
X20828500Y12205314D01*
X20775174Y12258640D01*
X20753500Y12310966D01*
X20753500Y12340853D01*
X20731318Y12423638D01*
X20731318Y12423639D01*
X20688467Y12497859D01*
X20688466Y12497860D01*
X20688465Y12497862D01*
X15237432Y17948895D01*
X17682500Y17948895D01*
X17682500Y17817106D01*
X17716606Y17689819D01*
X17716610Y17689810D01*
X17771456Y17594814D01*
X17782500Y17575686D01*
X17875686Y17482500D01*
X17989814Y17416608D01*
X18117105Y17382501D01*
X18117106Y17382500D01*
X18117108Y17382500D01*
X18192521Y17382500D01*
X18244847Y17360826D01*
X20915826Y14689847D01*
X20937500Y14637521D01*
X20937500Y14562106D01*
X20971606Y14434819D01*
X20971607Y14434816D01*
X20971608Y14434814D01*
X21037500Y14320686D01*
X21130686Y14227500D01*
X21244814Y14161608D01*
X21372105Y14127501D01*
X21372106Y14127500D01*
X21372108Y14127500D01*
X21503894Y14127500D01*
X21503894Y14127501D01*
X21631186Y14161608D01*
X21745314Y14227500D01*
X21838500Y14320686D01*
X21904392Y14434814D01*
X21938499Y14562106D01*
X21938500Y14562106D01*
X21938500Y14693894D01*
X21938499Y14693895D01*
X21904393Y14821182D01*
X21904392Y14821186D01*
X21838500Y14935314D01*
X21745314Y15028500D01*
X21672246Y15070686D01*
X21631190Y15094390D01*
X21631181Y15094394D01*
X21503894Y15128500D01*
X21503892Y15128500D01*
X21428479Y15128500D01*
X21376153Y15150174D01*
X21082432Y15443895D01*
X22097500Y15443895D01*
X22097500Y15312106D01*
X22131606Y15184819D01*
X22131607Y15184816D01*
X22131608Y15184814D01*
X22197500Y15070686D01*
X22290686Y14977500D01*
X22404814Y14911608D01*
X22532105Y14877501D01*
X22532106Y14877500D01*
X22532108Y14877500D01*
X23903894Y14877500D01*
X23903894Y14877501D01*
X24031186Y14911608D01*
X24145314Y14977500D01*
X24578640Y15410826D01*
X24630966Y15432500D01*
X25908894Y15432500D01*
X25908894Y15432501D01*
X26036186Y15466608D01*
X26150314Y15532500D01*
X26243500Y15625686D01*
X26309392Y15739814D01*
X26343499Y15867106D01*
X26343500Y15867106D01*
X26343500Y15998894D01*
X26343499Y15998895D01*
X26309393Y16126182D01*
X26309392Y16126186D01*
X26243500Y16240314D01*
X26150314Y16333500D01*
X26036190Y16399390D01*
X26036181Y16399394D01*
X25908894Y16433500D01*
X25908892Y16433500D01*
X24327108Y16433500D01*
X24327106Y16433500D01*
X24199818Y16399394D01*
X24199809Y16399390D01*
X24085685Y16333500D01*
X23652360Y15900174D01*
X23600034Y15878500D01*
X22532106Y15878500D01*
X22404818Y15844394D01*
X22404809Y15844390D01*
X22290685Y15778500D01*
X22197500Y15685315D01*
X22131610Y15571191D01*
X22131606Y15571182D01*
X22097500Y15443895D01*
X21082432Y15443895D01*
X18705174Y17821153D01*
X18691612Y17853895D01*
X19987500Y17853895D01*
X19987500Y17722106D01*
X20021606Y17594819D01*
X20021610Y17594810D01*
X20086452Y17482501D01*
X20087500Y17480686D01*
X20180686Y17387500D01*
X20294814Y17321608D01*
X20422105Y17287501D01*
X20422106Y17287500D01*
X20422108Y17287500D01*
X20553894Y17287500D01*
X20553894Y17287501D01*
X20681186Y17321608D01*
X20795314Y17387500D01*
X20888500Y17480686D01*
X20954392Y17594814D01*
X20988499Y17722106D01*
X20988500Y17722106D01*
X20988500Y17797521D01*
X21010174Y17849847D01*
X22856153Y19695826D01*
X22908479Y19717500D01*
X22983894Y19717500D01*
X22983894Y19717501D01*
X23111186Y19751608D01*
X23225314Y19817500D01*
X23318500Y19910686D01*
X23384392Y20024814D01*
X23418499Y20152106D01*
X23418500Y20152106D01*
X23418500Y20283894D01*
X23418499Y20283895D01*
X23384393Y20411182D01*
X23384392Y20411186D01*
X23318500Y20525314D01*
X23225314Y20618500D01*
X23111190Y20684390D01*
X23111181Y20684394D01*
X22983894Y20718500D01*
X22983892Y20718500D01*
X22852108Y20718500D01*
X22852106Y20718500D01*
X22724818Y20684394D01*
X22724809Y20684390D01*
X22610685Y20618500D01*
X22517500Y20525315D01*
X22451610Y20411191D01*
X22451606Y20411182D01*
X22417500Y20283895D01*
X22417500Y20208479D01*
X22395826Y20156153D01*
X20549847Y18310174D01*
X20497521Y18288500D01*
X20422106Y18288500D01*
X20294818Y18254394D01*
X20294809Y18254390D01*
X20180685Y18188500D01*
X20087500Y18095315D01*
X20021610Y17981191D01*
X20021606Y17981182D01*
X19987500Y17853895D01*
X18691612Y17853895D01*
X18683500Y17873479D01*
X18683500Y17948894D01*
X18683499Y17948895D01*
X18674845Y17981191D01*
X18649392Y18076186D01*
X18583500Y18190314D01*
X18490314Y18283500D01*
X18481654Y18288500D01*
X18376190Y18349390D01*
X18376181Y18349394D01*
X18248894Y18383500D01*
X18248892Y18383500D01*
X18117108Y18383500D01*
X18117106Y18383500D01*
X17989818Y18349394D01*
X17989809Y18349390D01*
X17875685Y18283500D01*
X17782500Y18190315D01*
X17716610Y18076191D01*
X17716606Y18076182D01*
X17682500Y17948895D01*
X15237432Y17948895D01*
X14670174Y18516153D01*
X14648500Y18568479D01*
X14648500Y18643894D01*
X14648499Y18643895D01*
X14614393Y18771182D01*
X14614392Y18771186D01*
X14548500Y18885314D01*
X14455314Y18978500D01*
X14341190Y19044390D01*
X14341181Y19044394D01*
X14213894Y19078500D01*
X14213892Y19078500D01*
X14082108Y19078500D01*
X14082106Y19078500D01*
X13954818Y19044394D01*
X13954809Y19044390D01*
X13840685Y18978500D01*
X13747500Y18885315D01*
X13681610Y18771191D01*
X13681606Y18771182D01*
X13647500Y18643895D01*
X500500Y18643895D01*
X500500Y19141029D01*
X522174Y19193355D01*
X574243Y19215029D01*
X949799Y19216322D01*
X1618089Y19218621D01*
X7542000Y19239000D01*
X7537127Y23563895D01*
X16427500Y23563895D01*
X16427500Y23432106D01*
X16461606Y23304819D01*
X16461607Y23304816D01*
X16461608Y23304814D01*
X16527500Y23190686D01*
X16620686Y23097500D01*
X16734814Y23031608D01*
X16862105Y22997501D01*
X16862106Y22997500D01*
X16862108Y22997500D01*
X16993894Y22997500D01*
X16993894Y22997501D01*
X17121186Y23031608D01*
X17235314Y23097500D01*
X17328500Y23190686D01*
X17394392Y23304814D01*
X17428499Y23432106D01*
X17428500Y23432106D01*
X17428500Y23563894D01*
X17428499Y23563895D01*
X17394393Y23691182D01*
X17394392Y23691186D01*
X17328500Y23805314D01*
X17305174Y23828640D01*
X17283500Y23880966D01*
X17283500Y24343895D01*
X17917500Y24343895D01*
X17917500Y24212106D01*
X17951606Y24084819D01*
X17951607Y24084816D01*
X17951608Y24084814D01*
X18017500Y23970686D01*
X18110686Y23877500D01*
X18224814Y23811608D01*
X18352105Y23777501D01*
X18352106Y23777500D01*
X18352108Y23777500D01*
X18483894Y23777500D01*
X18483894Y23777501D01*
X18611186Y23811608D01*
X18725314Y23877500D01*
X18818500Y23970686D01*
X18884392Y24084814D01*
X18918499Y24212106D01*
X18918500Y24212106D01*
X18918500Y24343894D01*
X18918499Y24343895D01*
X18884393Y24471182D01*
X18884392Y24471186D01*
X18818500Y24585314D01*
X18765174Y24638640D01*
X18743500Y24690966D01*
X18743500Y39353895D01*
X19037500Y39353895D01*
X19037500Y31282106D01*
X19071606Y31154819D01*
X19071610Y31154810D01*
X19095278Y31113816D01*
X19137500Y31040686D01*
X21970686Y28207500D01*
X22084814Y28141608D01*
X22084815Y28141608D01*
X22084817Y28141607D01*
X22148460Y28124554D01*
X22212104Y28107501D01*
X22212105Y28107500D01*
X22212107Y28107500D01*
X22212108Y28107500D01*
X22343892Y28107500D01*
X25135034Y28107500D01*
X25187360Y28085826D01*
X30382500Y22890686D01*
X30475686Y22797500D01*
X30538665Y22761139D01*
X30589814Y22731608D01*
X30589815Y22731608D01*
X30589817Y22731607D01*
X30653460Y22714554D01*
X30717104Y22697501D01*
X30717105Y22697500D01*
X30717107Y22697500D01*
X30848894Y22697500D01*
X30848894Y22697501D01*
X30976186Y22731608D01*
X31090314Y22797500D01*
X31183500Y22890686D01*
X31249392Y23004814D01*
X31283499Y23132106D01*
X31283500Y23132106D01*
X31283500Y23263894D01*
X31278120Y23283969D01*
X31266285Y23328138D01*
X31249392Y23391186D01*
X31242940Y23402361D01*
X31183500Y23505314D01*
X31090314Y23598500D01*
X25680314Y29008500D01*
X25661941Y29019108D01*
X29687303Y29019108D01*
X29690210Y28994032D01*
X29690212Y28994026D01*
X29735515Y28891422D01*
X29814823Y28812114D01*
X29917426Y28766811D01*
X29917425Y28766811D01*
X29942512Y28763901D01*
X30040502Y28763901D01*
X30340502Y28763901D01*
X30438494Y28763901D01*
X30463570Y28766809D01*
X30463576Y28766811D01*
X30566180Y28812114D01*
X30645488Y28891422D01*
X30690791Y28994025D01*
X30693702Y29019111D01*
X30693702Y29333000D01*
X30340502Y29333000D01*
X30340502Y28763901D01*
X30040502Y28763901D01*
X30040502Y29333000D01*
X29687303Y29333000D01*
X29687303Y29019108D01*
X25661941Y29019108D01*
X25566190Y29074390D01*
X25566181Y29074394D01*
X25438894Y29108500D01*
X25438892Y29108500D01*
X22515966Y29108500D01*
X22463640Y29130174D01*
X21646924Y29946890D01*
X29687302Y29946890D01*
X29687302Y29633000D01*
X30040502Y29633000D01*
X30340502Y29633000D01*
X30693701Y29633000D01*
X30693701Y29946893D01*
X30690793Y29971969D01*
X30690791Y29971975D01*
X30645488Y30074579D01*
X30566180Y30153887D01*
X30463577Y30199190D01*
X30463578Y30199190D01*
X30438491Y30202100D01*
X30340502Y30202100D01*
X30340502Y29633000D01*
X30040502Y29633000D01*
X30040502Y30202100D01*
X29942509Y30202100D01*
X29917433Y30199192D01*
X29917427Y30199190D01*
X29814823Y30153887D01*
X29735515Y30074579D01*
X29690212Y29971976D01*
X29687302Y29946890D01*
X21646924Y29946890D01*
X20060174Y31533640D01*
X20038500Y31585966D01*
X20038500Y33326395D01*
X29882500Y33326395D01*
X29882500Y33194606D01*
X29916606Y33067319D01*
X29916607Y33067316D01*
X29916608Y33067314D01*
X29982500Y32953186D01*
X30075686Y32860000D01*
X30189814Y32794108D01*
X30317105Y32760001D01*
X30317106Y32760000D01*
X30317108Y32760000D01*
X30392521Y32760000D01*
X30444847Y32738326D01*
X30843328Y32339845D01*
X30865002Y32287519D01*
X30865002Y31940147D01*
X30869681Y31922685D01*
X30872202Y31903533D01*
X30872202Y31550061D01*
X30880353Y31509079D01*
X30911406Y31462606D01*
X30911408Y31462604D01*
X30957879Y31431552D01*
X30957881Y31431551D01*
X30998861Y31423400D01*
X31165163Y31423401D01*
X31217488Y31401727D01*
X31239162Y31349401D01*
X31229248Y31312402D01*
X31187184Y31239546D01*
X31187179Y31239533D01*
X31169486Y31173499D01*
X31164999Y31156754D01*
X31164999Y30780965D01*
X31143325Y30728639D01*
X31132500Y30717815D01*
X31066610Y30603691D01*
X31066606Y30603682D01*
X31032500Y30476395D01*
X31032500Y30344606D01*
X31066606Y30217319D01*
X31066610Y30217310D01*
X31092481Y30172501D01*
X31132500Y30103186D01*
X31225686Y30010000D01*
X31339814Y29944108D01*
X31467105Y29910001D01*
X31467106Y29910000D01*
X31467108Y29910000D01*
X31598894Y29910000D01*
X31598894Y29910001D01*
X31726186Y29944108D01*
X31840314Y30010000D01*
X31933500Y30103186D01*
X31999392Y30217314D01*
X32033499Y30344606D01*
X32033500Y30344606D01*
X32033500Y30476394D01*
X32033499Y30476395D01*
X32031193Y30485000D01*
X31999392Y30603686D01*
X31933500Y30717814D01*
X31840314Y30811000D01*
X31837673Y30813641D01*
X31815999Y30865967D01*
X31815999Y30948420D01*
X31837673Y31000746D01*
X31890361Y31053434D01*
X31890363Y31053435D01*
X31950966Y31114038D01*
X31993819Y31188262D01*
X31999232Y31208463D01*
X32011202Y31253136D01*
X32016002Y31271047D01*
X32016002Y31349401D01*
X32037676Y31401727D01*
X32090002Y31423401D01*
X32304668Y31423401D01*
X32356994Y31401727D01*
X32376145Y31368556D01*
X32379690Y31355329D01*
X32387184Y31327359D01*
X32387186Y31327355D01*
X32430034Y31253140D01*
X32430035Y31253139D01*
X32430037Y31253136D01*
X32685826Y30997347D01*
X32707500Y30945022D01*
X32707500Y30823466D01*
X32685826Y30771140D01*
X32632500Y30717815D01*
X32566610Y30603691D01*
X32566606Y30603682D01*
X32532500Y30476395D01*
X32532500Y30344606D01*
X32566606Y30217319D01*
X32566610Y30217310D01*
X32592481Y30172501D01*
X32632500Y30103186D01*
X32725686Y30010000D01*
X32839814Y29944108D01*
X32967105Y29910001D01*
X32967106Y29910000D01*
X32967108Y29910000D01*
X33098894Y29910000D01*
X33098894Y29910001D01*
X33226186Y29944108D01*
X33340314Y30010000D01*
X33433500Y30103186D01*
X33499392Y30217314D01*
X33533499Y30344606D01*
X33533500Y30344606D01*
X33533500Y30476394D01*
X33533499Y30476395D01*
X33531193Y30485000D01*
X33499392Y30603686D01*
X33433500Y30717814D01*
X33380174Y30771140D01*
X33358500Y30823466D01*
X33358500Y31153355D01*
X33358499Y31153356D01*
X33358109Y31154810D01*
X33336318Y31236138D01*
X33322858Y31259452D01*
X33292288Y31312402D01*
X33290317Y31327373D01*
X33282908Y31340531D01*
X33286767Y31354340D01*
X33284896Y31368554D01*
X33294087Y31380533D01*
X33298153Y31395078D01*
X33309475Y31400587D01*
X33319375Y31413487D01*
X33347504Y31422867D01*
X33351927Y31423401D01*
X33382141Y31423401D01*
X33423122Y31431551D01*
X33423935Y31432095D01*
X33431632Y31433024D01*
X33434806Y31432137D01*
X33454938Y31432136D01*
X33457878Y31431552D01*
X33457879Y31431551D01*
X33498859Y31423400D01*
X33882140Y31423401D01*
X33882143Y31423401D01*
X33926067Y31432137D01*
X33954939Y31432137D01*
X33957877Y31431553D01*
X33957880Y31431551D01*
X33998860Y31423400D01*
X34200001Y31423401D01*
X34252326Y31401727D01*
X34260738Y31391597D01*
X34340221Y31312114D01*
X34442824Y31266811D01*
X34442823Y31266811D01*
X34467910Y31263901D01*
X34540500Y31263901D01*
X34540500Y31909000D01*
X34562174Y31961326D01*
X34614500Y31983000D01*
X34766500Y31983000D01*
X34818826Y31961326D01*
X34840500Y31909000D01*
X34840500Y31263901D01*
X34913092Y31263901D01*
X34938168Y31266809D01*
X34938174Y31266811D01*
X35040778Y31312114D01*
X35124936Y31396271D01*
X35125980Y31395227D01*
X35128673Y31401727D01*
X35148981Y31410139D01*
X35167397Y31422140D01*
X35180993Y31423401D01*
X35291001Y31423401D01*
X35343327Y31401727D01*
X35365001Y31349401D01*
X35365001Y27183480D01*
X35343327Y27131154D01*
X33950032Y25737859D01*
X33907181Y25663639D01*
X33907182Y25663638D01*
X33885000Y25580853D01*
X33885000Y23197577D01*
X33863326Y23145251D01*
X33830153Y23126099D01*
X33739818Y23101894D01*
X33739809Y23101890D01*
X33625685Y23036000D01*
X33532500Y22942815D01*
X33466610Y22828691D01*
X33466606Y22828682D01*
X33432500Y22701395D01*
X33432500Y22569606D01*
X33466606Y22442319D01*
X33466607Y22442316D01*
X33466608Y22442314D01*
X33532500Y22328186D01*
X33625686Y22235000D01*
X33739814Y22169108D01*
X33867105Y22135001D01*
X33867106Y22135000D01*
X33867108Y22135000D01*
X33998894Y22135000D01*
X33998894Y22135001D01*
X34126186Y22169108D01*
X34240314Y22235000D01*
X34333500Y22328186D01*
X34399392Y22442314D01*
X34433499Y22569606D01*
X34433500Y22569606D01*
X34433500Y22645022D01*
X34455173Y22697347D01*
X34470965Y22713138D01*
X34513818Y22787361D01*
X34536000Y22870147D01*
X34536000Y22955853D01*
X34536000Y25372521D01*
X34557674Y25424847D01*
X34870689Y25737862D01*
X35950966Y26818139D01*
X35993818Y26892362D01*
X35993819Y26892363D01*
X36016000Y26975146D01*
X36016001Y26975146D01*
X36016001Y29019108D01*
X43187301Y29019108D01*
X43190208Y28994032D01*
X43190210Y28994026D01*
X43235513Y28891422D01*
X43314821Y28812114D01*
X43417424Y28766811D01*
X43417423Y28766811D01*
X43442510Y28763901D01*
X43540500Y28763901D01*
X43840500Y28763901D01*
X43938492Y28763901D01*
X43963568Y28766809D01*
X43963574Y28766811D01*
X44066178Y28812114D01*
X44145486Y28891422D01*
X44190789Y28994025D01*
X44193700Y29019111D01*
X44193700Y29333000D01*
X43840500Y29333000D01*
X43840500Y28763901D01*
X43540500Y28763901D01*
X43540500Y29333000D01*
X43187301Y29333000D01*
X43187301Y29019108D01*
X36016001Y29019108D01*
X36016001Y31349401D01*
X36037675Y31401727D01*
X36090001Y31423401D01*
X36382143Y31423401D01*
X36426067Y31432137D01*
X36454939Y31432137D01*
X36457877Y31431553D01*
X36457880Y31431551D01*
X36498860Y31423400D01*
X36882141Y31423401D01*
X36882143Y31423401D01*
X36901201Y31427192D01*
X36923122Y31431551D01*
X36923122Y31431552D01*
X36926066Y31432137D01*
X36954939Y31432137D01*
X36957877Y31431553D01*
X36957880Y31431551D01*
X36998860Y31423400D01*
X37382141Y31423401D01*
X37382144Y31423401D01*
X37426068Y31432137D01*
X37454940Y31432137D01*
X37457878Y31431553D01*
X37457881Y31431551D01*
X37498861Y31423400D01*
X37882142Y31423401D01*
X37923123Y31431551D01*
X37923123Y31431552D01*
X37926069Y31432137D01*
X37954939Y31432136D01*
X37957879Y31431552D01*
X37957880Y31431551D01*
X37998860Y31423400D01*
X38382141Y31423401D01*
X38423122Y31431551D01*
X38423122Y31431552D01*
X38426068Y31432137D01*
X38454938Y31432136D01*
X38457878Y31431552D01*
X38457879Y31431551D01*
X38498859Y31423400D01*
X38700003Y31423401D01*
X38752328Y31401727D01*
X38760740Y31391597D01*
X38840223Y31312114D01*
X38942826Y31266811D01*
X38942825Y31266811D01*
X38967912Y31263901D01*
X39040502Y31263901D01*
X39040502Y31909000D01*
X39062176Y31961326D01*
X39114502Y31983000D01*
X39266502Y31983000D01*
X39318828Y31961326D01*
X39340502Y31909000D01*
X39340502Y31259452D01*
X39359030Y31214721D01*
X39337356Y31162395D01*
X39304185Y31143243D01*
X39289815Y31139393D01*
X39289809Y31139390D01*
X39175685Y31073500D01*
X39082500Y30980315D01*
X39016610Y30866191D01*
X39016606Y30866182D01*
X38982500Y30738895D01*
X38982500Y30607106D01*
X39016606Y30479819D01*
X39016610Y30479810D01*
X39071454Y30384818D01*
X39082500Y30365686D01*
X39175686Y30272500D01*
X39289814Y30206608D01*
X39417105Y30172501D01*
X39417106Y30172500D01*
X39417108Y30172500D01*
X39548894Y30172500D01*
X39548894Y30172501D01*
X39676186Y30206608D01*
X39790314Y30272500D01*
X39843640Y30325826D01*
X39895966Y30347500D01*
X41185851Y30347500D01*
X41185853Y30347500D01*
X41268639Y30369682D01*
X41342862Y30412535D01*
X41890361Y30960036D01*
X41890364Y30960037D01*
X41944977Y31014651D01*
X41980129Y31029210D01*
X41997301Y31036323D01*
X41997302Y31036323D01*
X42018976Y31027345D01*
X42049625Y31014650D01*
X42239237Y30825039D01*
X42451048Y30613228D01*
X42451053Y30613222D01*
X42453637Y30610638D01*
X42514240Y30550035D01*
X42569011Y30518413D01*
X42588464Y30507182D01*
X42588466Y30507182D01*
X42588467Y30507181D01*
X42629856Y30496091D01*
X42671246Y30485000D01*
X42671247Y30484999D01*
X42671249Y30484999D01*
X42761485Y30484999D01*
X42761501Y30485000D01*
X43332981Y30485000D01*
X43385307Y30463326D01*
X43404459Y30430153D01*
X43416606Y30384818D01*
X43416608Y30384813D01*
X43461312Y30307385D01*
X43468705Y30251233D01*
X43434226Y30206299D01*
X43421872Y30201154D01*
X43314821Y30153887D01*
X43235513Y30074579D01*
X43190210Y29971976D01*
X43187300Y29946890D01*
X43187300Y29633000D01*
X44193699Y29633000D01*
X44193699Y29946893D01*
X44190791Y29971969D01*
X44190789Y29971975D01*
X44145209Y30075206D01*
X44143901Y30131828D01*
X44175905Y30169182D01*
X44190314Y30177500D01*
X44283500Y30270686D01*
X44349392Y30384814D01*
X44383499Y30512106D01*
X44383500Y30512106D01*
X44383500Y30643894D01*
X44383499Y30643895D01*
X44363692Y30717815D01*
X44349392Y30771186D01*
X44283500Y30885314D01*
X44190314Y30978500D01*
X44187170Y30980315D01*
X44076190Y31044390D01*
X44076181Y31044394D01*
X43948894Y31078500D01*
X43948892Y31078500D01*
X43857140Y31078500D01*
X43820140Y31088414D01*
X43776143Y31113816D01*
X43776141Y31113817D01*
X43776140Y31113818D01*
X43776139Y31113818D01*
X43693353Y31136000D01*
X43693351Y31136000D01*
X42879580Y31136000D01*
X42827254Y31157674D01*
X42687854Y31297075D01*
X42666180Y31349401D01*
X42687854Y31401727D01*
X42740180Y31423401D01*
X42882142Y31423401D01*
X42923123Y31431551D01*
X42969597Y31462605D01*
X43000651Y31509079D01*
X43008802Y31550059D01*
X43008801Y32415940D01*
X43000651Y32456921D01*
X42969597Y32503395D01*
X42969595Y32503397D01*
X42923124Y32534449D01*
X42902633Y32538525D01*
X42882143Y32542600D01*
X42882142Y32542600D01*
X42498861Y32542600D01*
X42454934Y32533863D01*
X42426064Y32533864D01*
X42405861Y32537883D01*
X42382142Y32542600D01*
X42382141Y32542600D01*
X41998861Y32542600D01*
X41954934Y32533863D01*
X41926064Y32533864D01*
X41923123Y32534449D01*
X41882143Y32542600D01*
X41882142Y32542600D01*
X41498861Y32542600D01*
X41454933Y32533863D01*
X41426063Y32533864D01*
X41382141Y32542600D01*
X41205560Y32542600D01*
X41153234Y32564274D01*
X41131560Y32616600D01*
X41141475Y32653601D01*
X41145662Y32660854D01*
X41149392Y32667314D01*
X41183499Y32794606D01*
X41183500Y32794606D01*
X41183500Y32926394D01*
X41183499Y32926395D01*
X41176320Y32953186D01*
X41149392Y33053686D01*
X41083500Y33167814D01*
X40990314Y33261000D01*
X40959794Y33278621D01*
X40876190Y33326890D01*
X40876181Y33326894D01*
X40748894Y33361000D01*
X40748892Y33361000D01*
X40617108Y33361000D01*
X40617106Y33361000D01*
X40489818Y33326894D01*
X40489809Y33326890D01*
X40375685Y33261000D01*
X40282500Y33167815D01*
X40216610Y33053691D01*
X40216606Y33053682D01*
X40182500Y32926395D01*
X40182500Y32794606D01*
X40216606Y32667319D01*
X40216611Y32667308D01*
X40224526Y32653598D01*
X40231917Y32597445D01*
X40197437Y32552513D01*
X40160439Y32542600D01*
X39998861Y32542600D01*
X39954934Y32533863D01*
X39926064Y32533864D01*
X39882142Y32542600D01*
X39681001Y32542600D01*
X39628675Y32564274D01*
X39620260Y32574407D01*
X39540780Y32653887D01*
X39438177Y32699190D01*
X39438178Y32699190D01*
X39413091Y32702100D01*
X39340001Y32702100D01*
X39287675Y32723774D01*
X39266001Y32776100D01*
X39266001Y32844015D01*
X39266000Y32844016D01*
X39249880Y32904176D01*
X39231893Y32971307D01*
X39166001Y33085435D01*
X39072815Y33178621D01*
X39027486Y33204792D01*
X38958691Y33244511D01*
X38958682Y33244515D01*
X38831395Y33278621D01*
X38831393Y33278621D01*
X38699609Y33278621D01*
X38609153Y33254384D01*
X38553001Y33261777D01*
X38518522Y33306711D01*
X38516001Y33325863D01*
X38516001Y35457535D01*
X38537675Y35509861D01*
X38598500Y35570686D01*
X38664392Y35684814D01*
X38698499Y35812106D01*
X38698500Y35812106D01*
X38698500Y35943894D01*
X38698499Y35943895D01*
X38664393Y36071182D01*
X38664392Y36071186D01*
X38598500Y36185314D01*
X38505314Y36278500D01*
X38391190Y36344390D01*
X38391181Y36344394D01*
X38263896Y36378500D01*
X38260125Y36378996D01*
X38211076Y36407314D01*
X38195784Y36452363D01*
X38195784Y36518894D01*
X38195783Y36518895D01*
X38161677Y36646182D01*
X38161676Y36646186D01*
X38095784Y36760314D01*
X38002598Y36853500D01*
X37888474Y36919390D01*
X37888465Y36919394D01*
X37761178Y36953500D01*
X37756369Y36954133D01*
X37756685Y36956538D01*
X37711693Y36975174D01*
X37690019Y37027500D01*
X37690019Y37093894D01*
X37690018Y37093895D01*
X37655912Y37221182D01*
X37655911Y37221186D01*
X37590019Y37335314D01*
X37496833Y37428500D01*
X37382709Y37494390D01*
X37382700Y37494394D01*
X37254409Y37528770D01*
X37209476Y37563249D01*
X37199562Y37600248D01*
X37199562Y37668894D01*
X37199561Y37668895D01*
X37165455Y37796182D01*
X37165454Y37796186D01*
X37099562Y37910314D01*
X37006376Y38003500D01*
X36892252Y38069390D01*
X36892243Y38069394D01*
X36764956Y38103500D01*
X36764954Y38103500D01*
X36696838Y38103500D01*
X36644512Y38125174D01*
X36622838Y38177500D01*
X36622838Y38243894D01*
X36622837Y38243895D01*
X36588731Y38371182D01*
X36588730Y38371186D01*
X36522838Y38485314D01*
X36429652Y38578500D01*
X36315528Y38644390D01*
X36315519Y38644394D01*
X36188232Y38678500D01*
X36188230Y38678500D01*
X36056446Y38678500D01*
X36056444Y38678500D01*
X35929156Y38644394D01*
X35929147Y38644390D01*
X35815023Y38578500D01*
X35721838Y38485315D01*
X35655948Y38371191D01*
X35655944Y38371182D01*
X35621838Y38243895D01*
X35621838Y38112106D01*
X35655944Y37984819D01*
X35655948Y37984810D01*
X35721838Y37870686D01*
X35775164Y37817360D01*
X35796838Y37765034D01*
X35796838Y37407989D01*
X35796838Y37322283D01*
X35819020Y37239497D01*
X35855086Y37177028D01*
X35865000Y37140030D01*
X35865000Y32616600D01*
X35843326Y32564274D01*
X35791000Y32542600D01*
X35498861Y32542600D01*
X35454934Y32533863D01*
X35426064Y32533864D01*
X35382143Y32542600D01*
X35180999Y32542600D01*
X35128673Y32564274D01*
X35120258Y32574407D01*
X35040777Y32653888D01*
X35028092Y32659489D01*
X34988980Y32700453D01*
X34990290Y32757075D01*
X35023338Y32789340D01*
X35021986Y32791683D01*
X35034915Y32799148D01*
X35140314Y32860000D01*
X35233500Y32953186D01*
X35299392Y33067314D01*
X35333499Y33194606D01*
X35333500Y33194606D01*
X35333500Y33326394D01*
X35333499Y33326395D01*
X35333366Y33326890D01*
X35299392Y33453686D01*
X35233500Y33567814D01*
X35140314Y33661000D01*
X35077777Y33697106D01*
X35026190Y33726890D01*
X35026181Y33726894D01*
X34898894Y33761000D01*
X34898892Y33761000D01*
X34767108Y33761000D01*
X34767106Y33761000D01*
X34639818Y33726894D01*
X34639809Y33726890D01*
X34525685Y33661000D01*
X34432500Y33567815D01*
X34366610Y33453691D01*
X34366606Y33453682D01*
X34332500Y33326395D01*
X34332500Y33250979D01*
X34310826Y33198653D01*
X33930033Y32817860D01*
X33887182Y32743640D01*
X33887183Y32743639D01*
X33865001Y32660854D01*
X33865001Y32616600D01*
X33843327Y32564274D01*
X33791001Y32542600D01*
X33590001Y32542600D01*
X33537675Y32564274D01*
X33516001Y32616600D01*
X33516001Y32733958D01*
X33537675Y32786284D01*
X33552993Y32798039D01*
X33660314Y32860000D01*
X33753500Y32953186D01*
X33819392Y33067314D01*
X33853499Y33194606D01*
X33853500Y33194606D01*
X33853500Y33326394D01*
X33853499Y33326395D01*
X33853366Y33326890D01*
X33819392Y33453686D01*
X33753500Y33567814D01*
X33660314Y33661000D01*
X33597777Y33697106D01*
X33546190Y33726890D01*
X33546181Y33726894D01*
X33418894Y33761000D01*
X33418892Y33761000D01*
X33287108Y33761000D01*
X33287106Y33761000D01*
X33159818Y33726894D01*
X33159809Y33726890D01*
X33045685Y33661000D01*
X32952500Y33567815D01*
X32886610Y33453691D01*
X32886606Y33453682D01*
X32852500Y33326395D01*
X32852500Y33194609D01*
X32862480Y33157362D01*
X32865001Y33138210D01*
X32865001Y32616600D01*
X32843327Y32564274D01*
X32791001Y32542600D01*
X32590000Y32542600D01*
X32537674Y32564274D01*
X32516000Y32616600D01*
X32516000Y32904176D01*
X32516001Y32904189D01*
X32516001Y32995855D01*
X32516000Y32995856D01*
X32493819Y33078635D01*
X32493817Y33078640D01*
X32489824Y33085555D01*
X32473711Y33113464D01*
X32450965Y33152862D01*
X32402256Y33201571D01*
X32399683Y33204792D01*
X32392878Y33228339D01*
X32383500Y33250979D01*
X32383500Y33326394D01*
X32383499Y33326395D01*
X32383366Y33326890D01*
X32349392Y33453686D01*
X32283500Y33567814D01*
X32190314Y33661000D01*
X32127777Y33697106D01*
X32076190Y33726890D01*
X32076181Y33726894D01*
X31948894Y33761000D01*
X31948892Y33761000D01*
X31817108Y33761000D01*
X31817106Y33761000D01*
X31689818Y33726894D01*
X31689809Y33726890D01*
X31575685Y33661000D01*
X31482500Y33567815D01*
X31416610Y33453691D01*
X31416606Y33453682D01*
X31382500Y33326395D01*
X31382500Y33194606D01*
X31416606Y33067319D01*
X31416607Y33067316D01*
X31416608Y33067314D01*
X31482500Y32953186D01*
X31575686Y32860000D01*
X31689814Y32794108D01*
X31689818Y32794107D01*
X31810153Y32761863D01*
X31825477Y32750104D01*
X31843326Y32742711D01*
X31847152Y32733473D01*
X31855086Y32727385D01*
X31865000Y32690385D01*
X31865000Y32616600D01*
X31843326Y32564274D01*
X31791000Y32542600D01*
X31557350Y32542600D01*
X31505024Y32564274D01*
X31493264Y32579600D01*
X31469113Y32621430D01*
X31450967Y32652860D01*
X31390364Y32713463D01*
X30905174Y33198653D01*
X30883500Y33250979D01*
X30883500Y33326394D01*
X30883499Y33326395D01*
X30883366Y33326890D01*
X30849392Y33453686D01*
X30783500Y33567814D01*
X30690314Y33661000D01*
X30627777Y33697106D01*
X30576190Y33726890D01*
X30576181Y33726894D01*
X30448894Y33761000D01*
X30448892Y33761000D01*
X30317108Y33761000D01*
X30317106Y33761000D01*
X30189818Y33726894D01*
X30189809Y33726890D01*
X30075685Y33661000D01*
X29982500Y33567815D01*
X29916610Y33453691D01*
X29916606Y33453682D01*
X29882500Y33326395D01*
X20038500Y33326395D01*
X20038500Y39353894D01*
X20038499Y39353895D01*
X20004393Y39481182D01*
X20004392Y39481186D01*
X19938500Y39595314D01*
X19845314Y39688500D01*
X19731190Y39754390D01*
X19731181Y39754394D01*
X19603894Y39788500D01*
X19603892Y39788500D01*
X19472108Y39788500D01*
X19472106Y39788500D01*
X19344818Y39754394D01*
X19344809Y39754390D01*
X19230685Y39688500D01*
X19137500Y39595315D01*
X19071610Y39481191D01*
X19071606Y39481182D01*
X19037500Y39353895D01*
X18743500Y39353895D01*
X18743500Y40542521D01*
X18765174Y40594847D01*
X20156153Y41985826D01*
X20208479Y42007500D01*
X20283894Y42007500D01*
X20283894Y42007501D01*
X20411186Y42041608D01*
X20525314Y42107500D01*
X20618500Y42200686D01*
X20684392Y42314814D01*
X20718499Y42442106D01*
X20718500Y42442106D01*
X20718500Y42573894D01*
X20718499Y42573895D01*
X20684393Y42701182D01*
X20684392Y42701186D01*
X20618500Y42815314D01*
X20525314Y42908500D01*
X20471804Y42939394D01*
X20411190Y42974390D01*
X20411181Y42974394D01*
X20283894Y43008500D01*
X20283892Y43008500D01*
X20152108Y43008500D01*
X20152106Y43008500D01*
X20024818Y42974394D01*
X20024809Y42974390D01*
X19910685Y42908500D01*
X19817500Y42815315D01*
X19751610Y42701191D01*
X19751606Y42701182D01*
X19717500Y42573895D01*
X19717500Y42498479D01*
X19695826Y42446153D01*
X18157532Y40907859D01*
X18114681Y40833639D01*
X18114682Y40833638D01*
X18092500Y40750853D01*
X18092500Y24690966D01*
X18070826Y24638640D01*
X18017500Y24585315D01*
X17951610Y24471191D01*
X17951606Y24471182D01*
X17917500Y24343895D01*
X17283500Y24343895D01*
X17283500Y42060034D01*
X17305174Y42112360D01*
X17358500Y42165686D01*
X17424392Y42279814D01*
X17458499Y42407106D01*
X17458500Y42407106D01*
X17458500Y42538894D01*
X17458499Y42538895D01*
X17424393Y42666182D01*
X17424392Y42666186D01*
X17358500Y42780314D01*
X17265314Y42873500D01*
X17151190Y42939390D01*
X17151181Y42939394D01*
X17023894Y42973500D01*
X17023892Y42973500D01*
X16892108Y42973500D01*
X16892106Y42973500D01*
X16764818Y42939394D01*
X16764809Y42939390D01*
X16650685Y42873500D01*
X16557500Y42780315D01*
X16491610Y42666191D01*
X16491606Y42666182D01*
X16457500Y42538895D01*
X16457500Y42407106D01*
X16491606Y42279819D01*
X16491610Y42279810D01*
X16557500Y42165686D01*
X16610826Y42112360D01*
X16632500Y42060034D01*
X16632500Y23940966D01*
X16610826Y23888640D01*
X16527500Y23805315D01*
X16461610Y23691191D01*
X16461606Y23691182D01*
X16427500Y23563895D01*
X7537127Y23563895D01*
X7527000Y32551000D01*
X7526999Y32551001D01*
X574451Y32555646D01*
X522139Y32577355D01*
X500500Y32629646D01*
X500500Y33828895D01*
X13447500Y33828895D01*
X13447500Y33697106D01*
X13481606Y33569819D01*
X13481610Y33569810D01*
X13547500Y33455686D01*
X13600826Y33402360D01*
X13622500Y33350034D01*
X13622500Y30310966D01*
X13600826Y30258640D01*
X13547500Y30205315D01*
X13481610Y30091191D01*
X13481606Y30091182D01*
X13447500Y29963895D01*
X13447500Y29832106D01*
X13481606Y29704819D01*
X13481607Y29704816D01*
X13481608Y29704814D01*
X13547500Y29590686D01*
X13640686Y29497500D01*
X13754814Y29431608D01*
X13882105Y29397501D01*
X13882106Y29397500D01*
X13882108Y29397500D01*
X14013894Y29397500D01*
X14013894Y29397501D01*
X14141186Y29431608D01*
X14255314Y29497500D01*
X14348500Y29590686D01*
X14414392Y29704814D01*
X14448499Y29832106D01*
X14448500Y29832106D01*
X14448500Y29963894D01*
X14448499Y29963895D01*
X14436145Y30010000D01*
X14414392Y30091186D01*
X14348500Y30205314D01*
X14295174Y30258640D01*
X14273500Y30310966D01*
X14273500Y33350034D01*
X14295174Y33402360D01*
X14348500Y33455686D01*
X14414392Y33569814D01*
X14448499Y33697106D01*
X14448500Y33697106D01*
X14448500Y33828894D01*
X14448499Y33828895D01*
X14414393Y33956182D01*
X14414392Y33956186D01*
X14348500Y34070314D01*
X14255314Y34163500D01*
X14141190Y34229390D01*
X14141181Y34229394D01*
X14013894Y34263500D01*
X14013892Y34263500D01*
X13882108Y34263500D01*
X13882106Y34263500D01*
X13754818Y34229394D01*
X13754809Y34229390D01*
X13640685Y34163500D01*
X13547500Y34070315D01*
X13481610Y33956191D01*
X13481606Y33956182D01*
X13447500Y33828895D01*
X500500Y33828895D01*
X500500Y50585500D01*
X522174Y50637826D01*
X574500Y50659500D01*
X47088500Y50659500D01*
X47140826Y50637826D01*
G37*
%TD.AperFunction*%
%TD*%
M02*
