%TF.GenerationSoftware,KiCad,Pcbnew,9.0.6*%
%TF.CreationDate,2025-12-09T15:41:04+01:00*%
%TF.ProjectId,CO2Monitor,434f324d-6f6e-4697-946f-722e6b696361,rev?*%
%TF.SameCoordinates,PX83b1de0PY8351ad0*%
%TF.FileFunction,Legend,Top*%
%TF.FilePolarity,Positive*%
%FSLAX46Y46*%
G04 Gerber Fmt 4.6, Leading zero omitted, Abs format (unit mm)*
G04 Created by KiCad (PCBNEW 9.0.6) date 2025-12-09 15:41:04*
%MOMM*%
%LPD*%
G01*
G04 APERTURE LIST*
G04 Aperture macros list*
%AMRoundRect*
0 Rectangle with rounded corners*
0 $1 Rounding radius*
0 $2 $3 $4 $5 $6 $7 $8 $9 X,Y pos of 4 corners*
0 Add a 4 corners polygon primitive as box body*
4,1,4,$2,$3,$4,$5,$6,$7,$8,$9,$2,$3,0*
0 Add four circle primitives for the rounded corners*
1,1,$1+$1,$2,$3*
1,1,$1+$1,$4,$5*
1,1,$1+$1,$6,$7*
1,1,$1+$1,$8,$9*
0 Add four rect primitives between the rounded corners*
20,1,$1+$1,$2,$3,$4,$5,0*
20,1,$1+$1,$4,$5,$6,$7,0*
20,1,$1+$1,$6,$7,$8,$9,0*
20,1,$1+$1,$8,$9,$2,$3,0*%
%AMFreePoly0*
4,1,6,0.725000,-0.725000,-0.725000,-0.725000,-0.725000,0.125000,-0.125000,0.725000,0.725000,0.725000,0.725000,-0.725000,0.725000,-0.725000,$1*%
G04 Aperture macros list end*
%ADD10C,0.100000*%
%ADD11C,0.200000*%
%ADD12C,0.120000*%
%ADD13C,0.127000*%
%ADD14C,0.508000*%
%ADD15R,2.350000X4.050000*%
%ADD16C,5.500000*%
%ADD17O,1.804000X1.304000*%
%ADD18C,0.710000*%
%ADD19RoundRect,0.102000X0.150000X0.575000X-0.150000X0.575000X-0.150000X-0.575000X0.150000X-0.575000X0*%
%ADD20RoundRect,0.140000X-0.140000X-0.170000X0.140000X-0.170000X0.140000X0.170000X-0.140000X0.170000X0*%
%ADD21RoundRect,0.200000X0.275000X-0.200000X0.275000X0.200000X-0.275000X0.200000X-0.275000X-0.200000X0*%
%ADD22RoundRect,0.198500X-0.198500X0.508500X-0.198500X-0.508500X0.198500X-0.508500X0.198500X0.508500X0*%
%ADD23RoundRect,0.102000X0.450000X-0.650000X0.450000X0.650000X-0.450000X0.650000X-0.450000X-0.650000X0*%
%ADD24RoundRect,0.200000X-0.200000X-0.275000X0.200000X-0.275000X0.200000X0.275000X-0.200000X0.275000X0*%
%ADD25RoundRect,0.150000X0.150000X-0.512500X0.150000X0.512500X-0.150000X0.512500X-0.150000X-0.512500X0*%
%ADD26RoundRect,0.250000X-0.250000X-0.475000X0.250000X-0.475000X0.250000X0.475000X-0.250000X0.475000X0*%
%ADD27RoundRect,0.200000X0.200000X0.275000X-0.200000X0.275000X-0.200000X-0.275000X0.200000X-0.275000X0*%
%ADD28RoundRect,0.225000X-0.250000X0.225000X-0.250000X-0.225000X0.250000X-0.225000X0.250000X0.225000X0*%
%ADD29RoundRect,0.250000X0.250000X1.100000X-0.250000X1.100000X-0.250000X-1.100000X0.250000X-1.100000X0*%
%ADD30RoundRect,0.150000X0.150000X0.700000X-0.150000X0.700000X-0.150000X-0.700000X0.150000X-0.700000X0*%
%ADD31RoundRect,0.250000X-0.650000X0.325000X-0.650000X-0.325000X0.650000X-0.325000X0.650000X0.325000X0*%
%ADD32RoundRect,0.150000X-0.150000X0.512500X-0.150000X-0.512500X0.150000X-0.512500X0.150000X0.512500X0*%
%ADD33R,1.150000X0.600000*%
%ADD34RoundRect,0.225000X0.250000X-0.225000X0.250000X0.225000X-0.250000X0.225000X-0.250000X-0.225000X0*%
%ADD35R,1.000000X1.130000*%
%ADD36R,3.600000X1.500000*%
%ADD37RoundRect,0.200000X-0.275000X0.200000X-0.275000X-0.200000X0.275000X-0.200000X0.275000X0.200000X0*%
%ADD38RoundRect,0.250000X0.250000X0.475000X-0.250000X0.475000X-0.250000X-0.475000X0.250000X-0.475000X0*%
%ADD39RoundRect,0.250000X0.475000X-0.250000X0.475000X0.250000X-0.475000X0.250000X-0.475000X-0.250000X0*%
%ADD40RoundRect,0.140000X-0.170000X0.140000X-0.170000X-0.140000X0.170000X-0.140000X0.170000X0.140000X0*%
%ADD41RoundRect,0.102000X-1.050000X-0.700000X1.050000X-0.700000X1.050000X0.700000X-1.050000X0.700000X0*%
%ADD42RoundRect,0.250000X-0.325000X-0.650000X0.325000X-0.650000X0.325000X0.650000X-0.325000X0.650000X0*%
%ADD43RoundRect,0.102000X1.050000X0.700000X-1.050000X0.700000X-1.050000X-0.700000X1.050000X-0.700000X0*%
%ADD44RoundRect,0.225000X-0.225000X-0.250000X0.225000X-0.250000X0.225000X0.250000X-0.225000X0.250000X0*%
%ADD45RoundRect,0.140000X0.140000X0.170000X-0.140000X0.170000X-0.140000X-0.170000X0.140000X-0.170000X0*%
%ADD46RoundRect,0.250000X-0.625000X0.312500X-0.625000X-0.312500X0.625000X-0.312500X0.625000X0.312500X0*%
%ADD47R,0.700000X0.700000*%
%ADD48R,1.450000X1.450000*%
%ADD49FreePoly0,90.000000*%
%ADD50R,0.800000X0.400000*%
%ADD51R,0.400000X0.800000*%
%ADD52RoundRect,0.112500X0.112500X0.237500X-0.112500X0.237500X-0.112500X-0.237500X0.112500X-0.237500X0*%
G04 APERTURE END LIST*
D10*
X44321895Y20433667D02*
X44321895Y20052715D01*
X44321895Y20052715D02*
X43521895Y20052715D01*
X43598085Y20662238D02*
X43559990Y20700334D01*
X43559990Y20700334D02*
X43521895Y20776524D01*
X43521895Y20776524D02*
X43521895Y20967000D01*
X43521895Y20967000D02*
X43559990Y21043191D01*
X43559990Y21043191D02*
X43598085Y21081286D01*
X43598085Y21081286D02*
X43674276Y21119381D01*
X43674276Y21119381D02*
X43750466Y21119381D01*
X43750466Y21119381D02*
X43864752Y21081286D01*
X43864752Y21081286D02*
X44321895Y20624143D01*
X44321895Y20624143D02*
X44321895Y21119381D01*
X4365476Y8310105D02*
X4365476Y9110105D01*
X4365476Y8729153D02*
X4822619Y8729153D01*
X4822619Y8310105D02*
X4822619Y9110105D01*
X5622618Y8310105D02*
X5165475Y8310105D01*
X5394047Y8310105D02*
X5394047Y9110105D01*
X5394047Y9110105D02*
X5317856Y8995820D01*
X5317856Y8995820D02*
X5241666Y8919629D01*
X5241666Y8919629D02*
X5165475Y8881534D01*
X42078476Y49520105D02*
X42078476Y50320105D01*
X42078476Y49939153D02*
X42535619Y49939153D01*
X42535619Y49520105D02*
X42535619Y50320105D01*
X42840380Y50320105D02*
X43335618Y50320105D01*
X43335618Y50320105D02*
X43068952Y50015343D01*
X43068952Y50015343D02*
X43183237Y50015343D01*
X43183237Y50015343D02*
X43259428Y49977248D01*
X43259428Y49977248D02*
X43297523Y49939153D01*
X43297523Y49939153D02*
X43335618Y49862962D01*
X43335618Y49862962D02*
X43335618Y49672486D01*
X43335618Y49672486D02*
X43297523Y49596296D01*
X43297523Y49596296D02*
X43259428Y49558200D01*
X43259428Y49558200D02*
X43183237Y49520105D01*
X43183237Y49520105D02*
X42954666Y49520105D01*
X42954666Y49520105D02*
X42878475Y49558200D01*
X42878475Y49558200D02*
X42840380Y49596296D01*
X4365476Y49520105D02*
X4365476Y50320105D01*
X4365476Y49939153D02*
X4822619Y49939153D01*
X4822619Y49520105D02*
X4822619Y50320105D01*
X5165475Y50243915D02*
X5203571Y50282010D01*
X5203571Y50282010D02*
X5279761Y50320105D01*
X5279761Y50320105D02*
X5470237Y50320105D01*
X5470237Y50320105D02*
X5546428Y50282010D01*
X5546428Y50282010D02*
X5584523Y50243915D01*
X5584523Y50243915D02*
X5622618Y50167724D01*
X5622618Y50167724D02*
X5622618Y50091534D01*
X5622618Y50091534D02*
X5584523Y49977248D01*
X5584523Y49977248D02*
X5127380Y49520105D01*
X5127380Y49520105D02*
X5622618Y49520105D01*
X45531333Y8653105D02*
X45531333Y8081677D01*
X45531333Y8081677D02*
X45493238Y7967391D01*
X45493238Y7967391D02*
X45417047Y7891200D01*
X45417047Y7891200D02*
X45302762Y7853105D01*
X45302762Y7853105D02*
X45226571Y7853105D01*
X45874190Y8576915D02*
X45912286Y8615010D01*
X45912286Y8615010D02*
X45988476Y8653105D01*
X45988476Y8653105D02*
X46178952Y8653105D01*
X46178952Y8653105D02*
X46255143Y8615010D01*
X46255143Y8615010D02*
X46293238Y8576915D01*
X46293238Y8576915D02*
X46331333Y8500724D01*
X46331333Y8500724D02*
X46331333Y8424534D01*
X46331333Y8424534D02*
X46293238Y8310248D01*
X46293238Y8310248D02*
X45836095Y7853105D01*
X45836095Y7853105D02*
X46331333Y7853105D01*
X30656704Y6533715D02*
X30694800Y6495619D01*
X30694800Y6495619D02*
X30732895Y6381334D01*
X30732895Y6381334D02*
X30732895Y6305143D01*
X30732895Y6305143D02*
X30694800Y6190857D01*
X30694800Y6190857D02*
X30618609Y6114667D01*
X30618609Y6114667D02*
X30542419Y6076572D01*
X30542419Y6076572D02*
X30390038Y6038476D01*
X30390038Y6038476D02*
X30275752Y6038476D01*
X30275752Y6038476D02*
X30123371Y6076572D01*
X30123371Y6076572D02*
X30047180Y6114667D01*
X30047180Y6114667D02*
X29970990Y6190857D01*
X29970990Y6190857D02*
X29932895Y6305143D01*
X29932895Y6305143D02*
X29932895Y6381334D01*
X29932895Y6381334D02*
X29970990Y6495619D01*
X29970990Y6495619D02*
X30009085Y6533715D01*
X30732895Y7295619D02*
X30732895Y6838476D01*
X30732895Y7067048D02*
X29932895Y7067048D01*
X29932895Y7067048D02*
X30047180Y6990857D01*
X30047180Y6990857D02*
X30123371Y6914667D01*
X30123371Y6914667D02*
X30161466Y6838476D01*
X30275752Y7752762D02*
X30237657Y7676572D01*
X30237657Y7676572D02*
X30199561Y7638477D01*
X30199561Y7638477D02*
X30123371Y7600381D01*
X30123371Y7600381D02*
X30085276Y7600381D01*
X30085276Y7600381D02*
X30009085Y7638477D01*
X30009085Y7638477D02*
X29970990Y7676572D01*
X29970990Y7676572D02*
X29932895Y7752762D01*
X29932895Y7752762D02*
X29932895Y7905143D01*
X29932895Y7905143D02*
X29970990Y7981334D01*
X29970990Y7981334D02*
X30009085Y8019429D01*
X30009085Y8019429D02*
X30085276Y8057524D01*
X30085276Y8057524D02*
X30123371Y8057524D01*
X30123371Y8057524D02*
X30199561Y8019429D01*
X30199561Y8019429D02*
X30237657Y7981334D01*
X30237657Y7981334D02*
X30275752Y7905143D01*
X30275752Y7905143D02*
X30275752Y7752762D01*
X30275752Y7752762D02*
X30313847Y7676572D01*
X30313847Y7676572D02*
X30351942Y7638477D01*
X30351942Y7638477D02*
X30428133Y7600381D01*
X30428133Y7600381D02*
X30580514Y7600381D01*
X30580514Y7600381D02*
X30656704Y7638477D01*
X30656704Y7638477D02*
X30694800Y7676572D01*
X30694800Y7676572D02*
X30732895Y7752762D01*
X30732895Y7752762D02*
X30732895Y7905143D01*
X30732895Y7905143D02*
X30694800Y7981334D01*
X30694800Y7981334D02*
X30656704Y8019429D01*
X30656704Y8019429D02*
X30580514Y8057524D01*
X30580514Y8057524D02*
X30428133Y8057524D01*
X30428133Y8057524D02*
X30351942Y8019429D01*
X30351942Y8019429D02*
X30313847Y7981334D01*
X30313847Y7981334D02*
X30275752Y7905143D01*
X23872895Y4448715D02*
X23491942Y4182048D01*
X23872895Y3991572D02*
X23072895Y3991572D01*
X23072895Y3991572D02*
X23072895Y4296334D01*
X23072895Y4296334D02*
X23110990Y4372524D01*
X23110990Y4372524D02*
X23149085Y4410619D01*
X23149085Y4410619D02*
X23225276Y4448715D01*
X23225276Y4448715D02*
X23339561Y4448715D01*
X23339561Y4448715D02*
X23415752Y4410619D01*
X23415752Y4410619D02*
X23453847Y4372524D01*
X23453847Y4372524D02*
X23491942Y4296334D01*
X23491942Y4296334D02*
X23491942Y3991572D01*
X23872895Y5210619D02*
X23872895Y4753476D01*
X23872895Y4982048D02*
X23072895Y4982048D01*
X23072895Y4982048D02*
X23187180Y4905857D01*
X23187180Y4905857D02*
X23263371Y4829667D01*
X23263371Y4829667D02*
X23301466Y4753476D01*
X23339561Y5896334D02*
X23872895Y5896334D01*
X23034800Y5705858D02*
X23606228Y5515381D01*
X23606228Y5515381D02*
X23606228Y6010620D01*
X27722895Y8258477D02*
X28370514Y8258477D01*
X28370514Y8258477D02*
X28446704Y8296572D01*
X28446704Y8296572D02*
X28484800Y8334667D01*
X28484800Y8334667D02*
X28522895Y8410858D01*
X28522895Y8410858D02*
X28522895Y8563239D01*
X28522895Y8563239D02*
X28484800Y8639429D01*
X28484800Y8639429D02*
X28446704Y8677524D01*
X28446704Y8677524D02*
X28370514Y8715620D01*
X28370514Y8715620D02*
X27722895Y8715620D01*
X27799085Y9058476D02*
X27760990Y9096572D01*
X27760990Y9096572D02*
X27722895Y9172762D01*
X27722895Y9172762D02*
X27722895Y9363238D01*
X27722895Y9363238D02*
X27760990Y9439429D01*
X27760990Y9439429D02*
X27799085Y9477524D01*
X27799085Y9477524D02*
X27875276Y9515619D01*
X27875276Y9515619D02*
X27951466Y9515619D01*
X27951466Y9515619D02*
X28065752Y9477524D01*
X28065752Y9477524D02*
X28522895Y9020381D01*
X28522895Y9020381D02*
X28522895Y9515619D01*
X30842895Y3107525D02*
X30042895Y3107525D01*
X30042895Y3107525D02*
X30042895Y3298001D01*
X30042895Y3298001D02*
X30080990Y3412287D01*
X30080990Y3412287D02*
X30157180Y3488477D01*
X30157180Y3488477D02*
X30233371Y3526572D01*
X30233371Y3526572D02*
X30385752Y3564668D01*
X30385752Y3564668D02*
X30500038Y3564668D01*
X30500038Y3564668D02*
X30652419Y3526572D01*
X30652419Y3526572D02*
X30728609Y3488477D01*
X30728609Y3488477D02*
X30804800Y3412287D01*
X30804800Y3412287D02*
X30842895Y3298001D01*
X30842895Y3298001D02*
X30842895Y3107525D01*
X30309561Y4250382D02*
X30842895Y4250382D01*
X30004800Y4059906D02*
X30576228Y3869429D01*
X30576228Y3869429D02*
X30576228Y4364668D01*
X19913714Y29633105D02*
X19647047Y30014058D01*
X19456571Y29633105D02*
X19456571Y30433105D01*
X19456571Y30433105D02*
X19761333Y30433105D01*
X19761333Y30433105D02*
X19837523Y30395010D01*
X19837523Y30395010D02*
X19875618Y30356915D01*
X19875618Y30356915D02*
X19913714Y30280724D01*
X19913714Y30280724D02*
X19913714Y30166439D01*
X19913714Y30166439D02*
X19875618Y30090248D01*
X19875618Y30090248D02*
X19837523Y30052153D01*
X19837523Y30052153D02*
X19761333Y30014058D01*
X19761333Y30014058D02*
X19456571Y30014058D01*
X20675618Y29633105D02*
X20218475Y29633105D01*
X20447047Y29633105D02*
X20447047Y30433105D01*
X20447047Y30433105D02*
X20370856Y30318820D01*
X20370856Y30318820D02*
X20294666Y30242629D01*
X20294666Y30242629D02*
X20218475Y30204534D01*
X21437523Y29633105D02*
X20980380Y29633105D01*
X21208952Y29633105D02*
X21208952Y30433105D01*
X21208952Y30433105D02*
X21132761Y30318820D01*
X21132761Y30318820D02*
X21056571Y30242629D01*
X21056571Y30242629D02*
X20980380Y30204534D01*
X13634667Y42053105D02*
X13368000Y42434058D01*
X13177524Y42053105D02*
X13177524Y42853105D01*
X13177524Y42853105D02*
X13482286Y42853105D01*
X13482286Y42853105D02*
X13558476Y42815010D01*
X13558476Y42815010D02*
X13596571Y42776915D01*
X13596571Y42776915D02*
X13634667Y42700724D01*
X13634667Y42700724D02*
X13634667Y42586439D01*
X13634667Y42586439D02*
X13596571Y42510248D01*
X13596571Y42510248D02*
X13558476Y42472153D01*
X13558476Y42472153D02*
X13482286Y42434058D01*
X13482286Y42434058D02*
X13177524Y42434058D01*
X14091809Y42510248D02*
X14015619Y42548343D01*
X14015619Y42548343D02*
X13977524Y42586439D01*
X13977524Y42586439D02*
X13939428Y42662629D01*
X13939428Y42662629D02*
X13939428Y42700724D01*
X13939428Y42700724D02*
X13977524Y42776915D01*
X13977524Y42776915D02*
X14015619Y42815010D01*
X14015619Y42815010D02*
X14091809Y42853105D01*
X14091809Y42853105D02*
X14244190Y42853105D01*
X14244190Y42853105D02*
X14320381Y42815010D01*
X14320381Y42815010D02*
X14358476Y42776915D01*
X14358476Y42776915D02*
X14396571Y42700724D01*
X14396571Y42700724D02*
X14396571Y42662629D01*
X14396571Y42662629D02*
X14358476Y42586439D01*
X14358476Y42586439D02*
X14320381Y42548343D01*
X14320381Y42548343D02*
X14244190Y42510248D01*
X14244190Y42510248D02*
X14091809Y42510248D01*
X14091809Y42510248D02*
X14015619Y42472153D01*
X14015619Y42472153D02*
X13977524Y42434058D01*
X13977524Y42434058D02*
X13939428Y42357867D01*
X13939428Y42357867D02*
X13939428Y42205486D01*
X13939428Y42205486D02*
X13977524Y42129296D01*
X13977524Y42129296D02*
X14015619Y42091200D01*
X14015619Y42091200D02*
X14091809Y42053105D01*
X14091809Y42053105D02*
X14244190Y42053105D01*
X14244190Y42053105D02*
X14320381Y42091200D01*
X14320381Y42091200D02*
X14358476Y42129296D01*
X14358476Y42129296D02*
X14396571Y42205486D01*
X14396571Y42205486D02*
X14396571Y42357867D01*
X14396571Y42357867D02*
X14358476Y42434058D01*
X14358476Y42434058D02*
X14320381Y42472153D01*
X14320381Y42472153D02*
X14244190Y42510248D01*
X42558476Y15063105D02*
X42558476Y14415486D01*
X42558476Y14415486D02*
X42596571Y14339296D01*
X42596571Y14339296D02*
X42634666Y14301200D01*
X42634666Y14301200D02*
X42710857Y14263105D01*
X42710857Y14263105D02*
X42863238Y14263105D01*
X42863238Y14263105D02*
X42939428Y14301200D01*
X42939428Y14301200D02*
X42977523Y14339296D01*
X42977523Y14339296D02*
X43015619Y14415486D01*
X43015619Y14415486D02*
X43015619Y15063105D01*
X43320380Y15063105D02*
X43815618Y15063105D01*
X43815618Y15063105D02*
X43548952Y14758343D01*
X43548952Y14758343D02*
X43663237Y14758343D01*
X43663237Y14758343D02*
X43739428Y14720248D01*
X43739428Y14720248D02*
X43777523Y14682153D01*
X43777523Y14682153D02*
X43815618Y14605962D01*
X43815618Y14605962D02*
X43815618Y14415486D01*
X43815618Y14415486D02*
X43777523Y14339296D01*
X43777523Y14339296D02*
X43739428Y14301200D01*
X43739428Y14301200D02*
X43663237Y14263105D01*
X43663237Y14263105D02*
X43434666Y14263105D01*
X43434666Y14263105D02*
X43358475Y14301200D01*
X43358475Y14301200D02*
X43320380Y14339296D01*
X45343714Y11389296D02*
X45305618Y11351200D01*
X45305618Y11351200D02*
X45191333Y11313105D01*
X45191333Y11313105D02*
X45115142Y11313105D01*
X45115142Y11313105D02*
X45000856Y11351200D01*
X45000856Y11351200D02*
X44924666Y11427391D01*
X44924666Y11427391D02*
X44886571Y11503581D01*
X44886571Y11503581D02*
X44848475Y11655962D01*
X44848475Y11655962D02*
X44848475Y11770248D01*
X44848475Y11770248D02*
X44886571Y11922629D01*
X44886571Y11922629D02*
X44924666Y11998820D01*
X44924666Y11998820D02*
X45000856Y12075010D01*
X45000856Y12075010D02*
X45115142Y12113105D01*
X45115142Y12113105D02*
X45191333Y12113105D01*
X45191333Y12113105D02*
X45305618Y12075010D01*
X45305618Y12075010D02*
X45343714Y12036915D01*
X46105618Y11313105D02*
X45648475Y11313105D01*
X45877047Y11313105D02*
X45877047Y12113105D01*
X45877047Y12113105D02*
X45800856Y11998820D01*
X45800856Y11998820D02*
X45724666Y11922629D01*
X45724666Y11922629D02*
X45648475Y11884534D01*
X46867523Y11313105D02*
X46410380Y11313105D01*
X46638952Y11313105D02*
X46638952Y12113105D01*
X46638952Y12113105D02*
X46562761Y11998820D01*
X46562761Y11998820D02*
X46486571Y11922629D01*
X46486571Y11922629D02*
X46410380Y11884534D01*
X43346714Y16758296D02*
X43308618Y16720200D01*
X43308618Y16720200D02*
X43194333Y16682105D01*
X43194333Y16682105D02*
X43118142Y16682105D01*
X43118142Y16682105D02*
X43003856Y16720200D01*
X43003856Y16720200D02*
X42927666Y16796391D01*
X42927666Y16796391D02*
X42889571Y16872581D01*
X42889571Y16872581D02*
X42851475Y17024962D01*
X42851475Y17024962D02*
X42851475Y17139248D01*
X42851475Y17139248D02*
X42889571Y17291629D01*
X42889571Y17291629D02*
X42927666Y17367820D01*
X42927666Y17367820D02*
X43003856Y17444010D01*
X43003856Y17444010D02*
X43118142Y17482105D01*
X43118142Y17482105D02*
X43194333Y17482105D01*
X43194333Y17482105D02*
X43308618Y17444010D01*
X43308618Y17444010D02*
X43346714Y17405915D01*
X44108618Y16682105D02*
X43651475Y16682105D01*
X43880047Y16682105D02*
X43880047Y17482105D01*
X43880047Y17482105D02*
X43803856Y17367820D01*
X43803856Y17367820D02*
X43727666Y17291629D01*
X43727666Y17291629D02*
X43651475Y17253534D01*
X44413380Y17405915D02*
X44451476Y17444010D01*
X44451476Y17444010D02*
X44527666Y17482105D01*
X44527666Y17482105D02*
X44718142Y17482105D01*
X44718142Y17482105D02*
X44794333Y17444010D01*
X44794333Y17444010D02*
X44832428Y17405915D01*
X44832428Y17405915D02*
X44870523Y17329724D01*
X44870523Y17329724D02*
X44870523Y17253534D01*
X44870523Y17253534D02*
X44832428Y17139248D01*
X44832428Y17139248D02*
X44375285Y16682105D01*
X44375285Y16682105D02*
X44870523Y16682105D01*
X22584667Y25423105D02*
X22318000Y25804058D01*
X22127524Y25423105D02*
X22127524Y26223105D01*
X22127524Y26223105D02*
X22432286Y26223105D01*
X22432286Y26223105D02*
X22508476Y26185010D01*
X22508476Y26185010D02*
X22546571Y26146915D01*
X22546571Y26146915D02*
X22584667Y26070724D01*
X22584667Y26070724D02*
X22584667Y25956439D01*
X22584667Y25956439D02*
X22546571Y25880248D01*
X22546571Y25880248D02*
X22508476Y25842153D01*
X22508476Y25842153D02*
X22432286Y25804058D01*
X22432286Y25804058D02*
X22127524Y25804058D01*
X22965619Y25423105D02*
X23118000Y25423105D01*
X23118000Y25423105D02*
X23194190Y25461200D01*
X23194190Y25461200D02*
X23232286Y25499296D01*
X23232286Y25499296D02*
X23308476Y25613581D01*
X23308476Y25613581D02*
X23346571Y25765962D01*
X23346571Y25765962D02*
X23346571Y26070724D01*
X23346571Y26070724D02*
X23308476Y26146915D01*
X23308476Y26146915D02*
X23270381Y26185010D01*
X23270381Y26185010D02*
X23194190Y26223105D01*
X23194190Y26223105D02*
X23041809Y26223105D01*
X23041809Y26223105D02*
X22965619Y26185010D01*
X22965619Y26185010D02*
X22927524Y26146915D01*
X22927524Y26146915D02*
X22889428Y26070724D01*
X22889428Y26070724D02*
X22889428Y25880248D01*
X22889428Y25880248D02*
X22927524Y25804058D01*
X22927524Y25804058D02*
X22965619Y25765962D01*
X22965619Y25765962D02*
X23041809Y25727867D01*
X23041809Y25727867D02*
X23194190Y25727867D01*
X23194190Y25727867D02*
X23270381Y25765962D01*
X23270381Y25765962D02*
X23308476Y25804058D01*
X23308476Y25804058D02*
X23346571Y25880248D01*
X42401704Y33502168D02*
X42439800Y33464072D01*
X42439800Y33464072D02*
X42477895Y33349787D01*
X42477895Y33349787D02*
X42477895Y33273596D01*
X42477895Y33273596D02*
X42439800Y33159310D01*
X42439800Y33159310D02*
X42363609Y33083120D01*
X42363609Y33083120D02*
X42287419Y33045025D01*
X42287419Y33045025D02*
X42135038Y33006929D01*
X42135038Y33006929D02*
X42020752Y33006929D01*
X42020752Y33006929D02*
X41868371Y33045025D01*
X41868371Y33045025D02*
X41792180Y33083120D01*
X41792180Y33083120D02*
X41715990Y33159310D01*
X41715990Y33159310D02*
X41677895Y33273596D01*
X41677895Y33273596D02*
X41677895Y33349787D01*
X41677895Y33349787D02*
X41715990Y33464072D01*
X41715990Y33464072D02*
X41754085Y33502168D01*
X42477895Y34264072D02*
X42477895Y33806929D01*
X42477895Y34035501D02*
X41677895Y34035501D01*
X41677895Y34035501D02*
X41792180Y33959310D01*
X41792180Y33959310D02*
X41868371Y33883120D01*
X41868371Y33883120D02*
X41906466Y33806929D01*
X33511334Y38836796D02*
X33473238Y38798700D01*
X33473238Y38798700D02*
X33358953Y38760605D01*
X33358953Y38760605D02*
X33282762Y38760605D01*
X33282762Y38760605D02*
X33168476Y38798700D01*
X33168476Y38798700D02*
X33092286Y38874891D01*
X33092286Y38874891D02*
X33054191Y38951081D01*
X33054191Y38951081D02*
X33016095Y39103462D01*
X33016095Y39103462D02*
X33016095Y39217748D01*
X33016095Y39217748D02*
X33054191Y39370129D01*
X33054191Y39370129D02*
X33092286Y39446320D01*
X33092286Y39446320D02*
X33168476Y39522510D01*
X33168476Y39522510D02*
X33282762Y39560605D01*
X33282762Y39560605D02*
X33358953Y39560605D01*
X33358953Y39560605D02*
X33473238Y39522510D01*
X33473238Y39522510D02*
X33511334Y39484415D01*
X33778000Y39560605D02*
X34273238Y39560605D01*
X34273238Y39560605D02*
X34006572Y39255843D01*
X34006572Y39255843D02*
X34120857Y39255843D01*
X34120857Y39255843D02*
X34197048Y39217748D01*
X34197048Y39217748D02*
X34235143Y39179653D01*
X34235143Y39179653D02*
X34273238Y39103462D01*
X34273238Y39103462D02*
X34273238Y38912986D01*
X34273238Y38912986D02*
X34235143Y38836796D01*
X34235143Y38836796D02*
X34197048Y38798700D01*
X34197048Y38798700D02*
X34120857Y38760605D01*
X34120857Y38760605D02*
X33892286Y38760605D01*
X33892286Y38760605D02*
X33816095Y38798700D01*
X33816095Y38798700D02*
X33778000Y38836796D01*
X35274667Y38869296D02*
X35236571Y38831200D01*
X35236571Y38831200D02*
X35122286Y38793105D01*
X35122286Y38793105D02*
X35046095Y38793105D01*
X35046095Y38793105D02*
X34931809Y38831200D01*
X34931809Y38831200D02*
X34855619Y38907391D01*
X34855619Y38907391D02*
X34817524Y38983581D01*
X34817524Y38983581D02*
X34779428Y39135962D01*
X34779428Y39135962D02*
X34779428Y39250248D01*
X34779428Y39250248D02*
X34817524Y39402629D01*
X34817524Y39402629D02*
X34855619Y39478820D01*
X34855619Y39478820D02*
X34931809Y39555010D01*
X34931809Y39555010D02*
X35046095Y39593105D01*
X35046095Y39593105D02*
X35122286Y39593105D01*
X35122286Y39593105D02*
X35236571Y39555010D01*
X35236571Y39555010D02*
X35274667Y39516915D01*
X35579428Y39516915D02*
X35617524Y39555010D01*
X35617524Y39555010D02*
X35693714Y39593105D01*
X35693714Y39593105D02*
X35884190Y39593105D01*
X35884190Y39593105D02*
X35960381Y39555010D01*
X35960381Y39555010D02*
X35998476Y39516915D01*
X35998476Y39516915D02*
X36036571Y39440724D01*
X36036571Y39440724D02*
X36036571Y39364534D01*
X36036571Y39364534D02*
X35998476Y39250248D01*
X35998476Y39250248D02*
X35541333Y38793105D01*
X35541333Y38793105D02*
X36036571Y38793105D01*
X29984667Y38836796D02*
X29946571Y38798700D01*
X29946571Y38798700D02*
X29832286Y38760605D01*
X29832286Y38760605D02*
X29756095Y38760605D01*
X29756095Y38760605D02*
X29641809Y38798700D01*
X29641809Y38798700D02*
X29565619Y38874891D01*
X29565619Y38874891D02*
X29527524Y38951081D01*
X29527524Y38951081D02*
X29489428Y39103462D01*
X29489428Y39103462D02*
X29489428Y39217748D01*
X29489428Y39217748D02*
X29527524Y39370129D01*
X29527524Y39370129D02*
X29565619Y39446320D01*
X29565619Y39446320D02*
X29641809Y39522510D01*
X29641809Y39522510D02*
X29756095Y39560605D01*
X29756095Y39560605D02*
X29832286Y39560605D01*
X29832286Y39560605D02*
X29946571Y39522510D01*
X29946571Y39522510D02*
X29984667Y39484415D01*
X30670381Y39293939D02*
X30670381Y38760605D01*
X30479905Y39598700D02*
X30289428Y39027272D01*
X30289428Y39027272D02*
X30784667Y39027272D01*
X18321333Y42973105D02*
X18321333Y42401677D01*
X18321333Y42401677D02*
X18283238Y42287391D01*
X18283238Y42287391D02*
X18207047Y42211200D01*
X18207047Y42211200D02*
X18092762Y42173105D01*
X18092762Y42173105D02*
X18016571Y42173105D01*
X18626095Y42973105D02*
X19121333Y42973105D01*
X19121333Y42973105D02*
X18854667Y42668343D01*
X18854667Y42668343D02*
X18968952Y42668343D01*
X18968952Y42668343D02*
X19045143Y42630248D01*
X19045143Y42630248D02*
X19083238Y42592153D01*
X19083238Y42592153D02*
X19121333Y42515962D01*
X19121333Y42515962D02*
X19121333Y42325486D01*
X19121333Y42325486D02*
X19083238Y42249296D01*
X19083238Y42249296D02*
X19045143Y42211200D01*
X19045143Y42211200D02*
X18968952Y42173105D01*
X18968952Y42173105D02*
X18740381Y42173105D01*
X18740381Y42173105D02*
X18664190Y42211200D01*
X18664190Y42211200D02*
X18626095Y42249296D01*
X30946704Y13523715D02*
X30984800Y13485619D01*
X30984800Y13485619D02*
X31022895Y13371334D01*
X31022895Y13371334D02*
X31022895Y13295143D01*
X31022895Y13295143D02*
X30984800Y13180857D01*
X30984800Y13180857D02*
X30908609Y13104667D01*
X30908609Y13104667D02*
X30832419Y13066572D01*
X30832419Y13066572D02*
X30680038Y13028476D01*
X30680038Y13028476D02*
X30565752Y13028476D01*
X30565752Y13028476D02*
X30413371Y13066572D01*
X30413371Y13066572D02*
X30337180Y13104667D01*
X30337180Y13104667D02*
X30260990Y13180857D01*
X30260990Y13180857D02*
X30222895Y13295143D01*
X30222895Y13295143D02*
X30222895Y13371334D01*
X30222895Y13371334D02*
X30260990Y13485619D01*
X30260990Y13485619D02*
X30299085Y13523715D01*
X30299085Y13828476D02*
X30260990Y13866572D01*
X30260990Y13866572D02*
X30222895Y13942762D01*
X30222895Y13942762D02*
X30222895Y14133238D01*
X30222895Y14133238D02*
X30260990Y14209429D01*
X30260990Y14209429D02*
X30299085Y14247524D01*
X30299085Y14247524D02*
X30375276Y14285619D01*
X30375276Y14285619D02*
X30451466Y14285619D01*
X30451466Y14285619D02*
X30565752Y14247524D01*
X30565752Y14247524D02*
X31022895Y13790381D01*
X31022895Y13790381D02*
X31022895Y14285619D01*
X30222895Y14780858D02*
X30222895Y14857048D01*
X30222895Y14857048D02*
X30260990Y14933239D01*
X30260990Y14933239D02*
X30299085Y14971334D01*
X30299085Y14971334D02*
X30375276Y15009429D01*
X30375276Y15009429D02*
X30527657Y15047524D01*
X30527657Y15047524D02*
X30718133Y15047524D01*
X30718133Y15047524D02*
X30870514Y15009429D01*
X30870514Y15009429D02*
X30946704Y14971334D01*
X30946704Y14971334D02*
X30984800Y14933239D01*
X30984800Y14933239D02*
X31022895Y14857048D01*
X31022895Y14857048D02*
X31022895Y14780858D01*
X31022895Y14780858D02*
X30984800Y14704667D01*
X30984800Y14704667D02*
X30946704Y14666572D01*
X30946704Y14666572D02*
X30870514Y14628477D01*
X30870514Y14628477D02*
X30718133Y14590381D01*
X30718133Y14590381D02*
X30527657Y14590381D01*
X30527657Y14590381D02*
X30375276Y14628477D01*
X30375276Y14628477D02*
X30299085Y14666572D01*
X30299085Y14666572D02*
X30260990Y14704667D01*
X30260990Y14704667D02*
X30222895Y14780858D01*
X32226704Y13553715D02*
X32264800Y13515619D01*
X32264800Y13515619D02*
X32302895Y13401334D01*
X32302895Y13401334D02*
X32302895Y13325143D01*
X32302895Y13325143D02*
X32264800Y13210857D01*
X32264800Y13210857D02*
X32188609Y13134667D01*
X32188609Y13134667D02*
X32112419Y13096572D01*
X32112419Y13096572D02*
X31960038Y13058476D01*
X31960038Y13058476D02*
X31845752Y13058476D01*
X31845752Y13058476D02*
X31693371Y13096572D01*
X31693371Y13096572D02*
X31617180Y13134667D01*
X31617180Y13134667D02*
X31540990Y13210857D01*
X31540990Y13210857D02*
X31502895Y13325143D01*
X31502895Y13325143D02*
X31502895Y13401334D01*
X31502895Y13401334D02*
X31540990Y13515619D01*
X31540990Y13515619D02*
X31579085Y13553715D01*
X32302895Y14315619D02*
X32302895Y13858476D01*
X32302895Y14087048D02*
X31502895Y14087048D01*
X31502895Y14087048D02*
X31617180Y14010857D01*
X31617180Y14010857D02*
X31693371Y13934667D01*
X31693371Y13934667D02*
X31731466Y13858476D01*
X32302895Y14696572D02*
X32302895Y14848953D01*
X32302895Y14848953D02*
X32264800Y14925143D01*
X32264800Y14925143D02*
X32226704Y14963239D01*
X32226704Y14963239D02*
X32112419Y15039429D01*
X32112419Y15039429D02*
X31960038Y15077524D01*
X31960038Y15077524D02*
X31655276Y15077524D01*
X31655276Y15077524D02*
X31579085Y15039429D01*
X31579085Y15039429D02*
X31540990Y15001334D01*
X31540990Y15001334D02*
X31502895Y14925143D01*
X31502895Y14925143D02*
X31502895Y14772762D01*
X31502895Y14772762D02*
X31540990Y14696572D01*
X31540990Y14696572D02*
X31579085Y14658477D01*
X31579085Y14658477D02*
X31655276Y14620381D01*
X31655276Y14620381D02*
X31845752Y14620381D01*
X31845752Y14620381D02*
X31921942Y14658477D01*
X31921942Y14658477D02*
X31960038Y14696572D01*
X31960038Y14696572D02*
X31998133Y14772762D01*
X31998133Y14772762D02*
X31998133Y14925143D01*
X31998133Y14925143D02*
X31960038Y15001334D01*
X31960038Y15001334D02*
X31921942Y15039429D01*
X31921942Y15039429D02*
X31845752Y15077524D01*
X41042895Y1728477D02*
X41690514Y1728477D01*
X41690514Y1728477D02*
X41766704Y1766572D01*
X41766704Y1766572D02*
X41804800Y1804667D01*
X41804800Y1804667D02*
X41842895Y1880858D01*
X41842895Y1880858D02*
X41842895Y2033239D01*
X41842895Y2033239D02*
X41804800Y2109429D01*
X41804800Y2109429D02*
X41766704Y2147524D01*
X41766704Y2147524D02*
X41690514Y2185620D01*
X41690514Y2185620D02*
X41042895Y2185620D01*
X41842895Y2985619D02*
X41842895Y2528476D01*
X41842895Y2757048D02*
X41042895Y2757048D01*
X41042895Y2757048D02*
X41157180Y2680857D01*
X41157180Y2680857D02*
X41233371Y2604667D01*
X41233371Y2604667D02*
X41271466Y2528476D01*
X44374668Y4810604D02*
X44108001Y5191557D01*
X43917525Y4810604D02*
X43917525Y5610604D01*
X43917525Y5610604D02*
X44222287Y5610604D01*
X44222287Y5610604D02*
X44298477Y5572509D01*
X44298477Y5572509D02*
X44336572Y5534414D01*
X44336572Y5534414D02*
X44374668Y5458223D01*
X44374668Y5458223D02*
X44374668Y5343938D01*
X44374668Y5343938D02*
X44336572Y5267747D01*
X44336572Y5267747D02*
X44298477Y5229652D01*
X44298477Y5229652D02*
X44222287Y5191557D01*
X44222287Y5191557D02*
X43917525Y5191557D01*
X45060382Y5343938D02*
X45060382Y4810604D01*
X44869906Y5648699D02*
X44679429Y5077271D01*
X44679429Y5077271D02*
X45174668Y5077271D01*
X33484667Y10883105D02*
X33218000Y11264058D01*
X33027524Y10883105D02*
X33027524Y11683105D01*
X33027524Y11683105D02*
X33332286Y11683105D01*
X33332286Y11683105D02*
X33408476Y11645010D01*
X33408476Y11645010D02*
X33446571Y11606915D01*
X33446571Y11606915D02*
X33484667Y11530724D01*
X33484667Y11530724D02*
X33484667Y11416439D01*
X33484667Y11416439D02*
X33446571Y11340248D01*
X33446571Y11340248D02*
X33408476Y11302153D01*
X33408476Y11302153D02*
X33332286Y11264058D01*
X33332286Y11264058D02*
X33027524Y11264058D01*
X33751333Y11683105D02*
X34246571Y11683105D01*
X34246571Y11683105D02*
X33979905Y11378343D01*
X33979905Y11378343D02*
X34094190Y11378343D01*
X34094190Y11378343D02*
X34170381Y11340248D01*
X34170381Y11340248D02*
X34208476Y11302153D01*
X34208476Y11302153D02*
X34246571Y11225962D01*
X34246571Y11225962D02*
X34246571Y11035486D01*
X34246571Y11035486D02*
X34208476Y10959296D01*
X34208476Y10959296D02*
X34170381Y10921200D01*
X34170381Y10921200D02*
X34094190Y10883105D01*
X34094190Y10883105D02*
X33865619Y10883105D01*
X33865619Y10883105D02*
X33789428Y10921200D01*
X33789428Y10921200D02*
X33751333Y10959296D01*
X31748000Y38836796D02*
X31709904Y38798700D01*
X31709904Y38798700D02*
X31595619Y38760605D01*
X31595619Y38760605D02*
X31519428Y38760605D01*
X31519428Y38760605D02*
X31405142Y38798700D01*
X31405142Y38798700D02*
X31328952Y38874891D01*
X31328952Y38874891D02*
X31290857Y38951081D01*
X31290857Y38951081D02*
X31252761Y39103462D01*
X31252761Y39103462D02*
X31252761Y39217748D01*
X31252761Y39217748D02*
X31290857Y39370129D01*
X31290857Y39370129D02*
X31328952Y39446320D01*
X31328952Y39446320D02*
X31405142Y39522510D01*
X31405142Y39522510D02*
X31519428Y39560605D01*
X31519428Y39560605D02*
X31595619Y39560605D01*
X31595619Y39560605D02*
X31709904Y39522510D01*
X31709904Y39522510D02*
X31748000Y39484415D01*
X32471809Y39560605D02*
X32090857Y39560605D01*
X32090857Y39560605D02*
X32052761Y39179653D01*
X32052761Y39179653D02*
X32090857Y39217748D01*
X32090857Y39217748D02*
X32167047Y39255843D01*
X32167047Y39255843D02*
X32357523Y39255843D01*
X32357523Y39255843D02*
X32433714Y39217748D01*
X32433714Y39217748D02*
X32471809Y39179653D01*
X32471809Y39179653D02*
X32509904Y39103462D01*
X32509904Y39103462D02*
X32509904Y38912986D01*
X32509904Y38912986D02*
X32471809Y38836796D01*
X32471809Y38836796D02*
X32433714Y38798700D01*
X32433714Y38798700D02*
X32357523Y38760605D01*
X32357523Y38760605D02*
X32167047Y38760605D01*
X32167047Y38760605D02*
X32090857Y38798700D01*
X32090857Y38798700D02*
X32052761Y38836796D01*
X29254809Y22103915D02*
X29178619Y22142010D01*
X29178619Y22142010D02*
X29102428Y22218200D01*
X29102428Y22218200D02*
X28988142Y22332486D01*
X28988142Y22332486D02*
X28911952Y22370581D01*
X28911952Y22370581D02*
X28835761Y22370581D01*
X28873857Y22180105D02*
X28797666Y22218200D01*
X28797666Y22218200D02*
X28721476Y22294391D01*
X28721476Y22294391D02*
X28683380Y22446772D01*
X28683380Y22446772D02*
X28683380Y22713439D01*
X28683380Y22713439D02*
X28721476Y22865820D01*
X28721476Y22865820D02*
X28797666Y22942010D01*
X28797666Y22942010D02*
X28873857Y22980105D01*
X28873857Y22980105D02*
X29026238Y22980105D01*
X29026238Y22980105D02*
X29102428Y22942010D01*
X29102428Y22942010D02*
X29178619Y22865820D01*
X29178619Y22865820D02*
X29216714Y22713439D01*
X29216714Y22713439D02*
X29216714Y22446772D01*
X29216714Y22446772D02*
X29178619Y22294391D01*
X29178619Y22294391D02*
X29102428Y22218200D01*
X29102428Y22218200D02*
X29026238Y22180105D01*
X29026238Y22180105D02*
X28873857Y22180105D01*
X29521475Y22903915D02*
X29559571Y22942010D01*
X29559571Y22942010D02*
X29635761Y22980105D01*
X29635761Y22980105D02*
X29826237Y22980105D01*
X29826237Y22980105D02*
X29902428Y22942010D01*
X29902428Y22942010D02*
X29940523Y22903915D01*
X29940523Y22903915D02*
X29978618Y22827724D01*
X29978618Y22827724D02*
X29978618Y22751534D01*
X29978618Y22751534D02*
X29940523Y22637248D01*
X29940523Y22637248D02*
X29483380Y22180105D01*
X29483380Y22180105D02*
X29978618Y22180105D01*
X32854667Y31329296D02*
X32816571Y31291200D01*
X32816571Y31291200D02*
X32702286Y31253105D01*
X32702286Y31253105D02*
X32626095Y31253105D01*
X32626095Y31253105D02*
X32511809Y31291200D01*
X32511809Y31291200D02*
X32435619Y31367391D01*
X32435619Y31367391D02*
X32397524Y31443581D01*
X32397524Y31443581D02*
X32359428Y31595962D01*
X32359428Y31595962D02*
X32359428Y31710248D01*
X32359428Y31710248D02*
X32397524Y31862629D01*
X32397524Y31862629D02*
X32435619Y31938820D01*
X32435619Y31938820D02*
X32511809Y32015010D01*
X32511809Y32015010D02*
X32626095Y32053105D01*
X32626095Y32053105D02*
X32702286Y32053105D01*
X32702286Y32053105D02*
X32816571Y32015010D01*
X32816571Y32015010D02*
X32854667Y31976915D01*
X33540381Y32053105D02*
X33388000Y32053105D01*
X33388000Y32053105D02*
X33311809Y32015010D01*
X33311809Y32015010D02*
X33273714Y31976915D01*
X33273714Y31976915D02*
X33197524Y31862629D01*
X33197524Y31862629D02*
X33159428Y31710248D01*
X33159428Y31710248D02*
X33159428Y31405486D01*
X33159428Y31405486D02*
X33197524Y31329296D01*
X33197524Y31329296D02*
X33235619Y31291200D01*
X33235619Y31291200D02*
X33311809Y31253105D01*
X33311809Y31253105D02*
X33464190Y31253105D01*
X33464190Y31253105D02*
X33540381Y31291200D01*
X33540381Y31291200D02*
X33578476Y31329296D01*
X33578476Y31329296D02*
X33616571Y31405486D01*
X33616571Y31405486D02*
X33616571Y31595962D01*
X33616571Y31595962D02*
X33578476Y31672153D01*
X33578476Y31672153D02*
X33540381Y31710248D01*
X33540381Y31710248D02*
X33464190Y31748343D01*
X33464190Y31748343D02*
X33311809Y31748343D01*
X33311809Y31748343D02*
X33235619Y31710248D01*
X33235619Y31710248D02*
X33197524Y31672153D01*
X33197524Y31672153D02*
X33159428Y31595962D01*
X27717524Y32983105D02*
X27717524Y33783105D01*
X27717524Y33783105D02*
X27908000Y33783105D01*
X27908000Y33783105D02*
X28022286Y33745010D01*
X28022286Y33745010D02*
X28098476Y33668820D01*
X28098476Y33668820D02*
X28136571Y33592629D01*
X28136571Y33592629D02*
X28174667Y33440248D01*
X28174667Y33440248D02*
X28174667Y33325962D01*
X28174667Y33325962D02*
X28136571Y33173581D01*
X28136571Y33173581D02*
X28098476Y33097391D01*
X28098476Y33097391D02*
X28022286Y33021200D01*
X28022286Y33021200D02*
X27908000Y32983105D01*
X27908000Y32983105D02*
X27717524Y32983105D01*
X28479428Y33706915D02*
X28517524Y33745010D01*
X28517524Y33745010D02*
X28593714Y33783105D01*
X28593714Y33783105D02*
X28784190Y33783105D01*
X28784190Y33783105D02*
X28860381Y33745010D01*
X28860381Y33745010D02*
X28898476Y33706915D01*
X28898476Y33706915D02*
X28936571Y33630724D01*
X28936571Y33630724D02*
X28936571Y33554534D01*
X28936571Y33554534D02*
X28898476Y33440248D01*
X28898476Y33440248D02*
X28441333Y32983105D01*
X28441333Y32983105D02*
X28936571Y32983105D01*
X39107666Y23857105D02*
X38726714Y23857105D01*
X38726714Y23857105D02*
X38726714Y24657105D01*
X39793380Y23857105D02*
X39336237Y23857105D01*
X39564809Y23857105D02*
X39564809Y24657105D01*
X39564809Y24657105D02*
X39488618Y24542820D01*
X39488618Y24542820D02*
X39412428Y24466629D01*
X39412428Y24466629D02*
X39336237Y24428534D01*
X29724667Y29359296D02*
X29686571Y29321200D01*
X29686571Y29321200D02*
X29572286Y29283105D01*
X29572286Y29283105D02*
X29496095Y29283105D01*
X29496095Y29283105D02*
X29381809Y29321200D01*
X29381809Y29321200D02*
X29305619Y29397391D01*
X29305619Y29397391D02*
X29267524Y29473581D01*
X29267524Y29473581D02*
X29229428Y29625962D01*
X29229428Y29625962D02*
X29229428Y29740248D01*
X29229428Y29740248D02*
X29267524Y29892629D01*
X29267524Y29892629D02*
X29305619Y29968820D01*
X29305619Y29968820D02*
X29381809Y30045010D01*
X29381809Y30045010D02*
X29496095Y30083105D01*
X29496095Y30083105D02*
X29572286Y30083105D01*
X29572286Y30083105D02*
X29686571Y30045010D01*
X29686571Y30045010D02*
X29724667Y30006915D01*
X29991333Y30083105D02*
X30524667Y30083105D01*
X30524667Y30083105D02*
X30181809Y29283105D01*
X44574667Y28783105D02*
X44308000Y29164058D01*
X44117524Y28783105D02*
X44117524Y29583105D01*
X44117524Y29583105D02*
X44422286Y29583105D01*
X44422286Y29583105D02*
X44498476Y29545010D01*
X44498476Y29545010D02*
X44536571Y29506915D01*
X44536571Y29506915D02*
X44574667Y29430724D01*
X44574667Y29430724D02*
X44574667Y29316439D01*
X44574667Y29316439D02*
X44536571Y29240248D01*
X44536571Y29240248D02*
X44498476Y29202153D01*
X44498476Y29202153D02*
X44422286Y29164058D01*
X44422286Y29164058D02*
X44117524Y29164058D01*
X44879428Y29506915D02*
X44917524Y29545010D01*
X44917524Y29545010D02*
X44993714Y29583105D01*
X44993714Y29583105D02*
X45184190Y29583105D01*
X45184190Y29583105D02*
X45260381Y29545010D01*
X45260381Y29545010D02*
X45298476Y29506915D01*
X45298476Y29506915D02*
X45336571Y29430724D01*
X45336571Y29430724D02*
X45336571Y29354534D01*
X45336571Y29354534D02*
X45298476Y29240248D01*
X45298476Y29240248D02*
X44841333Y28783105D01*
X44841333Y28783105D02*
X45336571Y28783105D01*
X16923714Y16553105D02*
X16657047Y16934058D01*
X16466571Y16553105D02*
X16466571Y17353105D01*
X16466571Y17353105D02*
X16771333Y17353105D01*
X16771333Y17353105D02*
X16847523Y17315010D01*
X16847523Y17315010D02*
X16885618Y17276915D01*
X16885618Y17276915D02*
X16923714Y17200724D01*
X16923714Y17200724D02*
X16923714Y17086439D01*
X16923714Y17086439D02*
X16885618Y17010248D01*
X16885618Y17010248D02*
X16847523Y16972153D01*
X16847523Y16972153D02*
X16771333Y16934058D01*
X16771333Y16934058D02*
X16466571Y16934058D01*
X17685618Y16553105D02*
X17228475Y16553105D01*
X17457047Y16553105D02*
X17457047Y17353105D01*
X17457047Y17353105D02*
X17380856Y17238820D01*
X17380856Y17238820D02*
X17304666Y17162629D01*
X17304666Y17162629D02*
X17228475Y17124534D01*
X17952285Y17353105D02*
X18447523Y17353105D01*
X18447523Y17353105D02*
X18180857Y17048343D01*
X18180857Y17048343D02*
X18295142Y17048343D01*
X18295142Y17048343D02*
X18371333Y17010248D01*
X18371333Y17010248D02*
X18409428Y16972153D01*
X18409428Y16972153D02*
X18447523Y16895962D01*
X18447523Y16895962D02*
X18447523Y16705486D01*
X18447523Y16705486D02*
X18409428Y16629296D01*
X18409428Y16629296D02*
X18371333Y16591200D01*
X18371333Y16591200D02*
X18295142Y16553105D01*
X18295142Y16553105D02*
X18066571Y16553105D01*
X18066571Y16553105D02*
X17990380Y16591200D01*
X17990380Y16591200D02*
X17952285Y16629296D01*
X20933714Y39119296D02*
X20895618Y39081200D01*
X20895618Y39081200D02*
X20781333Y39043105D01*
X20781333Y39043105D02*
X20705142Y39043105D01*
X20705142Y39043105D02*
X20590856Y39081200D01*
X20590856Y39081200D02*
X20514666Y39157391D01*
X20514666Y39157391D02*
X20476571Y39233581D01*
X20476571Y39233581D02*
X20438475Y39385962D01*
X20438475Y39385962D02*
X20438475Y39500248D01*
X20438475Y39500248D02*
X20476571Y39652629D01*
X20476571Y39652629D02*
X20514666Y39728820D01*
X20514666Y39728820D02*
X20590856Y39805010D01*
X20590856Y39805010D02*
X20705142Y39843105D01*
X20705142Y39843105D02*
X20781333Y39843105D01*
X20781333Y39843105D02*
X20895618Y39805010D01*
X20895618Y39805010D02*
X20933714Y39766915D01*
X21695618Y39043105D02*
X21238475Y39043105D01*
X21467047Y39043105D02*
X21467047Y39843105D01*
X21467047Y39843105D02*
X21390856Y39728820D01*
X21390856Y39728820D02*
X21314666Y39652629D01*
X21314666Y39652629D02*
X21238475Y39614534D01*
X22381333Y39576439D02*
X22381333Y39043105D01*
X22190857Y39881200D02*
X22000380Y39309772D01*
X22000380Y39309772D02*
X22495619Y39309772D01*
X28055895Y22506715D02*
X27674942Y22240048D01*
X28055895Y22049572D02*
X27255895Y22049572D01*
X27255895Y22049572D02*
X27255895Y22354334D01*
X27255895Y22354334D02*
X27293990Y22430524D01*
X27293990Y22430524D02*
X27332085Y22468619D01*
X27332085Y22468619D02*
X27408276Y22506715D01*
X27408276Y22506715D02*
X27522561Y22506715D01*
X27522561Y22506715D02*
X27598752Y22468619D01*
X27598752Y22468619D02*
X27636847Y22430524D01*
X27636847Y22430524D02*
X27674942Y22354334D01*
X27674942Y22354334D02*
X27674942Y22049572D01*
X28055895Y23268619D02*
X28055895Y22811476D01*
X28055895Y23040048D02*
X27255895Y23040048D01*
X27255895Y23040048D02*
X27370180Y22963857D01*
X27370180Y22963857D02*
X27446371Y22887667D01*
X27446371Y22887667D02*
X27484466Y22811476D01*
X27332085Y23573381D02*
X27293990Y23611477D01*
X27293990Y23611477D02*
X27255895Y23687667D01*
X27255895Y23687667D02*
X27255895Y23878143D01*
X27255895Y23878143D02*
X27293990Y23954334D01*
X27293990Y23954334D02*
X27332085Y23992429D01*
X27332085Y23992429D02*
X27408276Y24030524D01*
X27408276Y24030524D02*
X27484466Y24030524D01*
X27484466Y24030524D02*
X27598752Y23992429D01*
X27598752Y23992429D02*
X28055895Y23535286D01*
X28055895Y23535286D02*
X28055895Y24030524D01*
X10836704Y13963715D02*
X10874800Y13925619D01*
X10874800Y13925619D02*
X10912895Y13811334D01*
X10912895Y13811334D02*
X10912895Y13735143D01*
X10912895Y13735143D02*
X10874800Y13620857D01*
X10874800Y13620857D02*
X10798609Y13544667D01*
X10798609Y13544667D02*
X10722419Y13506572D01*
X10722419Y13506572D02*
X10570038Y13468476D01*
X10570038Y13468476D02*
X10455752Y13468476D01*
X10455752Y13468476D02*
X10303371Y13506572D01*
X10303371Y13506572D02*
X10227180Y13544667D01*
X10227180Y13544667D02*
X10150990Y13620857D01*
X10150990Y13620857D02*
X10112895Y13735143D01*
X10112895Y13735143D02*
X10112895Y13811334D01*
X10112895Y13811334D02*
X10150990Y13925619D01*
X10150990Y13925619D02*
X10189085Y13963715D01*
X10912895Y14725619D02*
X10912895Y14268476D01*
X10912895Y14497048D02*
X10112895Y14497048D01*
X10112895Y14497048D02*
X10227180Y14420857D01*
X10227180Y14420857D02*
X10303371Y14344667D01*
X10303371Y14344667D02*
X10341466Y14268476D01*
X10112895Y15411334D02*
X10112895Y15258953D01*
X10112895Y15258953D02*
X10150990Y15182762D01*
X10150990Y15182762D02*
X10189085Y15144667D01*
X10189085Y15144667D02*
X10303371Y15068477D01*
X10303371Y15068477D02*
X10455752Y15030381D01*
X10455752Y15030381D02*
X10760514Y15030381D01*
X10760514Y15030381D02*
X10836704Y15068477D01*
X10836704Y15068477D02*
X10874800Y15106572D01*
X10874800Y15106572D02*
X10912895Y15182762D01*
X10912895Y15182762D02*
X10912895Y15335143D01*
X10912895Y15335143D02*
X10874800Y15411334D01*
X10874800Y15411334D02*
X10836704Y15449429D01*
X10836704Y15449429D02*
X10760514Y15487524D01*
X10760514Y15487524D02*
X10570038Y15487524D01*
X10570038Y15487524D02*
X10493847Y15449429D01*
X10493847Y15449429D02*
X10455752Y15411334D01*
X10455752Y15411334D02*
X10417657Y15335143D01*
X10417657Y15335143D02*
X10417657Y15182762D01*
X10417657Y15182762D02*
X10455752Y15106572D01*
X10455752Y15106572D02*
X10493847Y15068477D01*
X10493847Y15068477D02*
X10570038Y15030381D01*
X32226704Y19673715D02*
X32264800Y19635619D01*
X32264800Y19635619D02*
X32302895Y19521334D01*
X32302895Y19521334D02*
X32302895Y19445143D01*
X32302895Y19445143D02*
X32264800Y19330857D01*
X32264800Y19330857D02*
X32188609Y19254667D01*
X32188609Y19254667D02*
X32112419Y19216572D01*
X32112419Y19216572D02*
X31960038Y19178476D01*
X31960038Y19178476D02*
X31845752Y19178476D01*
X31845752Y19178476D02*
X31693371Y19216572D01*
X31693371Y19216572D02*
X31617180Y19254667D01*
X31617180Y19254667D02*
X31540990Y19330857D01*
X31540990Y19330857D02*
X31502895Y19445143D01*
X31502895Y19445143D02*
X31502895Y19521334D01*
X31502895Y19521334D02*
X31540990Y19635619D01*
X31540990Y19635619D02*
X31579085Y19673715D01*
X32302895Y20435619D02*
X32302895Y19978476D01*
X32302895Y20207048D02*
X31502895Y20207048D01*
X31502895Y20207048D02*
X31617180Y20130857D01*
X31617180Y20130857D02*
X31693371Y20054667D01*
X31693371Y20054667D02*
X31731466Y19978476D01*
X31502895Y20930858D02*
X31502895Y21007048D01*
X31502895Y21007048D02*
X31540990Y21083239D01*
X31540990Y21083239D02*
X31579085Y21121334D01*
X31579085Y21121334D02*
X31655276Y21159429D01*
X31655276Y21159429D02*
X31807657Y21197524D01*
X31807657Y21197524D02*
X31998133Y21197524D01*
X31998133Y21197524D02*
X32150514Y21159429D01*
X32150514Y21159429D02*
X32226704Y21121334D01*
X32226704Y21121334D02*
X32264800Y21083239D01*
X32264800Y21083239D02*
X32302895Y21007048D01*
X32302895Y21007048D02*
X32302895Y20930858D01*
X32302895Y20930858D02*
X32264800Y20854667D01*
X32264800Y20854667D02*
X32226704Y20816572D01*
X32226704Y20816572D02*
X32150514Y20778477D01*
X32150514Y20778477D02*
X31998133Y20740381D01*
X31998133Y20740381D02*
X31807657Y20740381D01*
X31807657Y20740381D02*
X31655276Y20778477D01*
X31655276Y20778477D02*
X31579085Y20816572D01*
X31579085Y20816572D02*
X31540990Y20854667D01*
X31540990Y20854667D02*
X31502895Y20930858D01*
X6283832Y39866200D02*
X6398118Y39828105D01*
X6398118Y39828105D02*
X6588594Y39828105D01*
X6588594Y39828105D02*
X6664785Y39866200D01*
X6664785Y39866200D02*
X6702880Y39904296D01*
X6702880Y39904296D02*
X6740975Y39980486D01*
X6740975Y39980486D02*
X6740975Y40056677D01*
X6740975Y40056677D02*
X6702880Y40132867D01*
X6702880Y40132867D02*
X6664785Y40170962D01*
X6664785Y40170962D02*
X6588594Y40209058D01*
X6588594Y40209058D02*
X6436213Y40247153D01*
X6436213Y40247153D02*
X6360023Y40285248D01*
X6360023Y40285248D02*
X6321928Y40323343D01*
X6321928Y40323343D02*
X6283832Y40399534D01*
X6283832Y40399534D02*
X6283832Y40475724D01*
X6283832Y40475724D02*
X6321928Y40551915D01*
X6321928Y40551915D02*
X6360023Y40590010D01*
X6360023Y40590010D02*
X6436213Y40628105D01*
X6436213Y40628105D02*
X6626690Y40628105D01*
X6626690Y40628105D02*
X6740975Y40590010D01*
X7007642Y40628105D02*
X7198118Y39828105D01*
X7198118Y39828105D02*
X7350499Y40399534D01*
X7350499Y40399534D02*
X7502880Y39828105D01*
X7502880Y39828105D02*
X7693357Y40628105D01*
X7960023Y40551915D02*
X7998119Y40590010D01*
X7998119Y40590010D02*
X8074309Y40628105D01*
X8074309Y40628105D02*
X8264785Y40628105D01*
X8264785Y40628105D02*
X8340976Y40590010D01*
X8340976Y40590010D02*
X8379071Y40551915D01*
X8379071Y40551915D02*
X8417166Y40475724D01*
X8417166Y40475724D02*
X8417166Y40399534D01*
X8417166Y40399534D02*
X8379071Y40285248D01*
X8379071Y40285248D02*
X7921928Y39828105D01*
X7921928Y39828105D02*
X8417166Y39828105D01*
X24224667Y27559296D02*
X24186571Y27521200D01*
X24186571Y27521200D02*
X24072286Y27483105D01*
X24072286Y27483105D02*
X23996095Y27483105D01*
X23996095Y27483105D02*
X23881809Y27521200D01*
X23881809Y27521200D02*
X23805619Y27597391D01*
X23805619Y27597391D02*
X23767524Y27673581D01*
X23767524Y27673581D02*
X23729428Y27825962D01*
X23729428Y27825962D02*
X23729428Y27940248D01*
X23729428Y27940248D02*
X23767524Y28092629D01*
X23767524Y28092629D02*
X23805619Y28168820D01*
X23805619Y28168820D02*
X23881809Y28245010D01*
X23881809Y28245010D02*
X23996095Y28283105D01*
X23996095Y28283105D02*
X24072286Y28283105D01*
X24072286Y28283105D02*
X24186571Y28245010D01*
X24186571Y28245010D02*
X24224667Y28206915D01*
X24681809Y27940248D02*
X24605619Y27978343D01*
X24605619Y27978343D02*
X24567524Y28016439D01*
X24567524Y28016439D02*
X24529428Y28092629D01*
X24529428Y28092629D02*
X24529428Y28130724D01*
X24529428Y28130724D02*
X24567524Y28206915D01*
X24567524Y28206915D02*
X24605619Y28245010D01*
X24605619Y28245010D02*
X24681809Y28283105D01*
X24681809Y28283105D02*
X24834190Y28283105D01*
X24834190Y28283105D02*
X24910381Y28245010D01*
X24910381Y28245010D02*
X24948476Y28206915D01*
X24948476Y28206915D02*
X24986571Y28130724D01*
X24986571Y28130724D02*
X24986571Y28092629D01*
X24986571Y28092629D02*
X24948476Y28016439D01*
X24948476Y28016439D02*
X24910381Y27978343D01*
X24910381Y27978343D02*
X24834190Y27940248D01*
X24834190Y27940248D02*
X24681809Y27940248D01*
X24681809Y27940248D02*
X24605619Y27902153D01*
X24605619Y27902153D02*
X24567524Y27864058D01*
X24567524Y27864058D02*
X24529428Y27787867D01*
X24529428Y27787867D02*
X24529428Y27635486D01*
X24529428Y27635486D02*
X24567524Y27559296D01*
X24567524Y27559296D02*
X24605619Y27521200D01*
X24605619Y27521200D02*
X24681809Y27483105D01*
X24681809Y27483105D02*
X24834190Y27483105D01*
X24834190Y27483105D02*
X24910381Y27521200D01*
X24910381Y27521200D02*
X24948476Y27559296D01*
X24948476Y27559296D02*
X24986571Y27635486D01*
X24986571Y27635486D02*
X24986571Y27787867D01*
X24986571Y27787867D02*
X24948476Y27864058D01*
X24948476Y27864058D02*
X24910381Y27902153D01*
X24910381Y27902153D02*
X24834190Y27940248D01*
X15206332Y1886200D02*
X15320618Y1848105D01*
X15320618Y1848105D02*
X15511094Y1848105D01*
X15511094Y1848105D02*
X15587285Y1886200D01*
X15587285Y1886200D02*
X15625380Y1924296D01*
X15625380Y1924296D02*
X15663475Y2000486D01*
X15663475Y2000486D02*
X15663475Y2076677D01*
X15663475Y2076677D02*
X15625380Y2152867D01*
X15625380Y2152867D02*
X15587285Y2190962D01*
X15587285Y2190962D02*
X15511094Y2229058D01*
X15511094Y2229058D02*
X15358713Y2267153D01*
X15358713Y2267153D02*
X15282523Y2305248D01*
X15282523Y2305248D02*
X15244428Y2343343D01*
X15244428Y2343343D02*
X15206332Y2419534D01*
X15206332Y2419534D02*
X15206332Y2495724D01*
X15206332Y2495724D02*
X15244428Y2571915D01*
X15244428Y2571915D02*
X15282523Y2610010D01*
X15282523Y2610010D02*
X15358713Y2648105D01*
X15358713Y2648105D02*
X15549190Y2648105D01*
X15549190Y2648105D02*
X15663475Y2610010D01*
X15930142Y2648105D02*
X16120618Y1848105D01*
X16120618Y1848105D02*
X16272999Y2419534D01*
X16272999Y2419534D02*
X16425380Y1848105D01*
X16425380Y1848105D02*
X16615857Y2648105D01*
X17339666Y1848105D02*
X16882523Y1848105D01*
X17111095Y1848105D02*
X17111095Y2648105D01*
X17111095Y2648105D02*
X17034904Y2533820D01*
X17034904Y2533820D02*
X16958714Y2457629D01*
X16958714Y2457629D02*
X16882523Y2419534D01*
X15323714Y10079296D02*
X15285618Y10041200D01*
X15285618Y10041200D02*
X15171333Y10003105D01*
X15171333Y10003105D02*
X15095142Y10003105D01*
X15095142Y10003105D02*
X14980856Y10041200D01*
X14980856Y10041200D02*
X14904666Y10117391D01*
X14904666Y10117391D02*
X14866571Y10193581D01*
X14866571Y10193581D02*
X14828475Y10345962D01*
X14828475Y10345962D02*
X14828475Y10460248D01*
X14828475Y10460248D02*
X14866571Y10612629D01*
X14866571Y10612629D02*
X14904666Y10688820D01*
X14904666Y10688820D02*
X14980856Y10765010D01*
X14980856Y10765010D02*
X15095142Y10803105D01*
X15095142Y10803105D02*
X15171333Y10803105D01*
X15171333Y10803105D02*
X15285618Y10765010D01*
X15285618Y10765010D02*
X15323714Y10726915D01*
X16085618Y10003105D02*
X15628475Y10003105D01*
X15857047Y10003105D02*
X15857047Y10803105D01*
X15857047Y10803105D02*
X15780856Y10688820D01*
X15780856Y10688820D02*
X15704666Y10612629D01*
X15704666Y10612629D02*
X15628475Y10574534D01*
X16352285Y10803105D02*
X16847523Y10803105D01*
X16847523Y10803105D02*
X16580857Y10498343D01*
X16580857Y10498343D02*
X16695142Y10498343D01*
X16695142Y10498343D02*
X16771333Y10460248D01*
X16771333Y10460248D02*
X16809428Y10422153D01*
X16809428Y10422153D02*
X16847523Y10345962D01*
X16847523Y10345962D02*
X16847523Y10155486D01*
X16847523Y10155486D02*
X16809428Y10079296D01*
X16809428Y10079296D02*
X16771333Y10041200D01*
X16771333Y10041200D02*
X16695142Y10003105D01*
X16695142Y10003105D02*
X16466571Y10003105D01*
X16466571Y10003105D02*
X16390380Y10041200D01*
X16390380Y10041200D02*
X16352285Y10079296D01*
X19855714Y40325296D02*
X19817618Y40287200D01*
X19817618Y40287200D02*
X19703333Y40249105D01*
X19703333Y40249105D02*
X19627142Y40249105D01*
X19627142Y40249105D02*
X19512856Y40287200D01*
X19512856Y40287200D02*
X19436666Y40363391D01*
X19436666Y40363391D02*
X19398571Y40439581D01*
X19398571Y40439581D02*
X19360475Y40591962D01*
X19360475Y40591962D02*
X19360475Y40706248D01*
X19360475Y40706248D02*
X19398571Y40858629D01*
X19398571Y40858629D02*
X19436666Y40934820D01*
X19436666Y40934820D02*
X19512856Y41011010D01*
X19512856Y41011010D02*
X19627142Y41049105D01*
X19627142Y41049105D02*
X19703333Y41049105D01*
X19703333Y41049105D02*
X19817618Y41011010D01*
X19817618Y41011010D02*
X19855714Y40972915D01*
X20617618Y40249105D02*
X20160475Y40249105D01*
X20389047Y40249105D02*
X20389047Y41049105D01*
X20389047Y41049105D02*
X20312856Y40934820D01*
X20312856Y40934820D02*
X20236666Y40858629D01*
X20236666Y40858629D02*
X20160475Y40820534D01*
X21341428Y41049105D02*
X20960476Y41049105D01*
X20960476Y41049105D02*
X20922380Y40668153D01*
X20922380Y40668153D02*
X20960476Y40706248D01*
X20960476Y40706248D02*
X21036666Y40744343D01*
X21036666Y40744343D02*
X21227142Y40744343D01*
X21227142Y40744343D02*
X21303333Y40706248D01*
X21303333Y40706248D02*
X21341428Y40668153D01*
X21341428Y40668153D02*
X21379523Y40591962D01*
X21379523Y40591962D02*
X21379523Y40401486D01*
X21379523Y40401486D02*
X21341428Y40325296D01*
X21341428Y40325296D02*
X21303333Y40287200D01*
X21303333Y40287200D02*
X21227142Y40249105D01*
X21227142Y40249105D02*
X21036666Y40249105D01*
X21036666Y40249105D02*
X20960476Y40287200D01*
X20960476Y40287200D02*
X20922380Y40325296D01*
X39465667Y25200105D02*
X39199000Y25581058D01*
X39008524Y25200105D02*
X39008524Y26000105D01*
X39008524Y26000105D02*
X39313286Y26000105D01*
X39313286Y26000105D02*
X39389476Y25962010D01*
X39389476Y25962010D02*
X39427571Y25923915D01*
X39427571Y25923915D02*
X39465667Y25847724D01*
X39465667Y25847724D02*
X39465667Y25733439D01*
X39465667Y25733439D02*
X39427571Y25657248D01*
X39427571Y25657248D02*
X39389476Y25619153D01*
X39389476Y25619153D02*
X39313286Y25581058D01*
X39313286Y25581058D02*
X39008524Y25581058D01*
X40227571Y25200105D02*
X39770428Y25200105D01*
X39999000Y25200105D02*
X39999000Y26000105D01*
X39999000Y26000105D02*
X39922809Y25885820D01*
X39922809Y25885820D02*
X39846619Y25809629D01*
X39846619Y25809629D02*
X39770428Y25771534D01*
X14422895Y36984668D02*
X14041942Y36718001D01*
X14422895Y36527525D02*
X13622895Y36527525D01*
X13622895Y36527525D02*
X13622895Y36832287D01*
X13622895Y36832287D02*
X13660990Y36908477D01*
X13660990Y36908477D02*
X13699085Y36946572D01*
X13699085Y36946572D02*
X13775276Y36984668D01*
X13775276Y36984668D02*
X13889561Y36984668D01*
X13889561Y36984668D02*
X13965752Y36946572D01*
X13965752Y36946572D02*
X14003847Y36908477D01*
X14003847Y36908477D02*
X14041942Y36832287D01*
X14041942Y36832287D02*
X14041942Y36527525D01*
X13622895Y37670382D02*
X13622895Y37518001D01*
X13622895Y37518001D02*
X13660990Y37441810D01*
X13660990Y37441810D02*
X13699085Y37403715D01*
X13699085Y37403715D02*
X13813371Y37327525D01*
X13813371Y37327525D02*
X13965752Y37289429D01*
X13965752Y37289429D02*
X14270514Y37289429D01*
X14270514Y37289429D02*
X14346704Y37327525D01*
X14346704Y37327525D02*
X14384800Y37365620D01*
X14384800Y37365620D02*
X14422895Y37441810D01*
X14422895Y37441810D02*
X14422895Y37594191D01*
X14422895Y37594191D02*
X14384800Y37670382D01*
X14384800Y37670382D02*
X14346704Y37708477D01*
X14346704Y37708477D02*
X14270514Y37746572D01*
X14270514Y37746572D02*
X14080038Y37746572D01*
X14080038Y37746572D02*
X14003847Y37708477D01*
X14003847Y37708477D02*
X13965752Y37670382D01*
X13965752Y37670382D02*
X13927657Y37594191D01*
X13927657Y37594191D02*
X13927657Y37441810D01*
X13927657Y37441810D02*
X13965752Y37365620D01*
X13965752Y37365620D02*
X14003847Y37327525D01*
X14003847Y37327525D02*
X14080038Y37289429D01*
X36297524Y32883105D02*
X36297524Y33683105D01*
X36297524Y33683105D02*
X36488000Y33683105D01*
X36488000Y33683105D02*
X36602286Y33645010D01*
X36602286Y33645010D02*
X36678476Y33568820D01*
X36678476Y33568820D02*
X36716571Y33492629D01*
X36716571Y33492629D02*
X36754667Y33340248D01*
X36754667Y33340248D02*
X36754667Y33225962D01*
X36754667Y33225962D02*
X36716571Y33073581D01*
X36716571Y33073581D02*
X36678476Y32997391D01*
X36678476Y32997391D02*
X36602286Y32921200D01*
X36602286Y32921200D02*
X36488000Y32883105D01*
X36488000Y32883105D02*
X36297524Y32883105D01*
X37516571Y32883105D02*
X37059428Y32883105D01*
X37288000Y32883105D02*
X37288000Y33683105D01*
X37288000Y33683105D02*
X37211809Y33568820D01*
X37211809Y33568820D02*
X37135619Y33492629D01*
X37135619Y33492629D02*
X37059428Y33454534D01*
X12516704Y13963715D02*
X12554800Y13925619D01*
X12554800Y13925619D02*
X12592895Y13811334D01*
X12592895Y13811334D02*
X12592895Y13735143D01*
X12592895Y13735143D02*
X12554800Y13620857D01*
X12554800Y13620857D02*
X12478609Y13544667D01*
X12478609Y13544667D02*
X12402419Y13506572D01*
X12402419Y13506572D02*
X12250038Y13468476D01*
X12250038Y13468476D02*
X12135752Y13468476D01*
X12135752Y13468476D02*
X11983371Y13506572D01*
X11983371Y13506572D02*
X11907180Y13544667D01*
X11907180Y13544667D02*
X11830990Y13620857D01*
X11830990Y13620857D02*
X11792895Y13735143D01*
X11792895Y13735143D02*
X11792895Y13811334D01*
X11792895Y13811334D02*
X11830990Y13925619D01*
X11830990Y13925619D02*
X11869085Y13963715D01*
X12592895Y14725619D02*
X12592895Y14268476D01*
X12592895Y14497048D02*
X11792895Y14497048D01*
X11792895Y14497048D02*
X11907180Y14420857D01*
X11907180Y14420857D02*
X11983371Y14344667D01*
X11983371Y14344667D02*
X12021466Y14268476D01*
X11792895Y14992286D02*
X11792895Y15525620D01*
X11792895Y15525620D02*
X12592895Y15182762D01*
X35073704Y17815668D02*
X35111800Y17777572D01*
X35111800Y17777572D02*
X35149895Y17663287D01*
X35149895Y17663287D02*
X35149895Y17587096D01*
X35149895Y17587096D02*
X35111800Y17472810D01*
X35111800Y17472810D02*
X35035609Y17396620D01*
X35035609Y17396620D02*
X34959419Y17358525D01*
X34959419Y17358525D02*
X34807038Y17320429D01*
X34807038Y17320429D02*
X34692752Y17320429D01*
X34692752Y17320429D02*
X34540371Y17358525D01*
X34540371Y17358525D02*
X34464180Y17396620D01*
X34464180Y17396620D02*
X34387990Y17472810D01*
X34387990Y17472810D02*
X34349895Y17587096D01*
X34349895Y17587096D02*
X34349895Y17663287D01*
X34349895Y17663287D02*
X34387990Y17777572D01*
X34387990Y17777572D02*
X34426085Y17815668D01*
X35149895Y18196620D02*
X35149895Y18349001D01*
X35149895Y18349001D02*
X35111800Y18425191D01*
X35111800Y18425191D02*
X35073704Y18463287D01*
X35073704Y18463287D02*
X34959419Y18539477D01*
X34959419Y18539477D02*
X34807038Y18577572D01*
X34807038Y18577572D02*
X34502276Y18577572D01*
X34502276Y18577572D02*
X34426085Y18539477D01*
X34426085Y18539477D02*
X34387990Y18501382D01*
X34387990Y18501382D02*
X34349895Y18425191D01*
X34349895Y18425191D02*
X34349895Y18272810D01*
X34349895Y18272810D02*
X34387990Y18196620D01*
X34387990Y18196620D02*
X34426085Y18158525D01*
X34426085Y18158525D02*
X34502276Y18120429D01*
X34502276Y18120429D02*
X34692752Y18120429D01*
X34692752Y18120429D02*
X34768942Y18158525D01*
X34768942Y18158525D02*
X34807038Y18196620D01*
X34807038Y18196620D02*
X34845133Y18272810D01*
X34845133Y18272810D02*
X34845133Y18425191D01*
X34845133Y18425191D02*
X34807038Y18501382D01*
X34807038Y18501382D02*
X34768942Y18539477D01*
X34768942Y18539477D02*
X34692752Y18577572D01*
X21934667Y11463105D02*
X21668000Y11844058D01*
X21477524Y11463105D02*
X21477524Y12263105D01*
X21477524Y12263105D02*
X21782286Y12263105D01*
X21782286Y12263105D02*
X21858476Y12225010D01*
X21858476Y12225010D02*
X21896571Y12186915D01*
X21896571Y12186915D02*
X21934667Y12110724D01*
X21934667Y12110724D02*
X21934667Y11996439D01*
X21934667Y11996439D02*
X21896571Y11920248D01*
X21896571Y11920248D02*
X21858476Y11882153D01*
X21858476Y11882153D02*
X21782286Y11844058D01*
X21782286Y11844058D02*
X21477524Y11844058D01*
X22658476Y12263105D02*
X22277524Y12263105D01*
X22277524Y12263105D02*
X22239428Y11882153D01*
X22239428Y11882153D02*
X22277524Y11920248D01*
X22277524Y11920248D02*
X22353714Y11958343D01*
X22353714Y11958343D02*
X22544190Y11958343D01*
X22544190Y11958343D02*
X22620381Y11920248D01*
X22620381Y11920248D02*
X22658476Y11882153D01*
X22658476Y11882153D02*
X22696571Y11805962D01*
X22696571Y11805962D02*
X22696571Y11615486D01*
X22696571Y11615486D02*
X22658476Y11539296D01*
X22658476Y11539296D02*
X22620381Y11501200D01*
X22620381Y11501200D02*
X22544190Y11463105D01*
X22544190Y11463105D02*
X22353714Y11463105D01*
X22353714Y11463105D02*
X22277524Y11501200D01*
X22277524Y11501200D02*
X22239428Y11539296D01*
X623895Y25289477D02*
X1271514Y25289477D01*
X1271514Y25289477D02*
X1347704Y25327572D01*
X1347704Y25327572D02*
X1385800Y25365667D01*
X1385800Y25365667D02*
X1423895Y25441858D01*
X1423895Y25441858D02*
X1423895Y25594239D01*
X1423895Y25594239D02*
X1385800Y25670429D01*
X1385800Y25670429D02*
X1347704Y25708524D01*
X1347704Y25708524D02*
X1271514Y25746620D01*
X1271514Y25746620D02*
X623895Y25746620D01*
X890561Y26470429D02*
X1423895Y26470429D01*
X585800Y26279953D02*
X1157228Y26089476D01*
X1157228Y26089476D02*
X1157228Y26584715D01*
X4649323Y22088476D02*
X4649323Y22469429D01*
X4877895Y22012286D02*
X4077895Y22278953D01*
X4077895Y22278953D02*
X4877895Y22545619D01*
X4344561Y22812286D02*
X4877895Y22812286D01*
X4420752Y22812286D02*
X4382657Y22850381D01*
X4382657Y22850381D02*
X4344561Y22926571D01*
X4344561Y22926571D02*
X4344561Y23040857D01*
X4344561Y23040857D02*
X4382657Y23117048D01*
X4382657Y23117048D02*
X4458847Y23155143D01*
X4458847Y23155143D02*
X4877895Y23155143D01*
X4344561Y23421810D02*
X4344561Y23726572D01*
X4077895Y23536096D02*
X4763609Y23536096D01*
X4763609Y23536096D02*
X4839800Y23574191D01*
X4839800Y23574191D02*
X4877895Y23650381D01*
X4877895Y23650381D02*
X4877895Y23726572D01*
X4839800Y24298001D02*
X4877895Y24221810D01*
X4877895Y24221810D02*
X4877895Y24069429D01*
X4877895Y24069429D02*
X4839800Y23993239D01*
X4839800Y23993239D02*
X4763609Y23955143D01*
X4763609Y23955143D02*
X4458847Y23955143D01*
X4458847Y23955143D02*
X4382657Y23993239D01*
X4382657Y23993239D02*
X4344561Y24069429D01*
X4344561Y24069429D02*
X4344561Y24221810D01*
X4344561Y24221810D02*
X4382657Y24298001D01*
X4382657Y24298001D02*
X4458847Y24336096D01*
X4458847Y24336096D02*
X4535038Y24336096D01*
X4535038Y24336096D02*
X4611228Y23955143D01*
X4344561Y24678953D02*
X4877895Y24678953D01*
X4420752Y24678953D02*
X4382657Y24717048D01*
X4382657Y24717048D02*
X4344561Y24793238D01*
X4344561Y24793238D02*
X4344561Y24907524D01*
X4344561Y24907524D02*
X4382657Y24983715D01*
X4382657Y24983715D02*
X4458847Y25021810D01*
X4458847Y25021810D02*
X4877895Y25021810D01*
X4344561Y25402763D02*
X4877895Y25402763D01*
X4420752Y25402763D02*
X4382657Y25440858D01*
X4382657Y25440858D02*
X4344561Y25517048D01*
X4344561Y25517048D02*
X4344561Y25631334D01*
X4344561Y25631334D02*
X4382657Y25707525D01*
X4382657Y25707525D02*
X4458847Y25745620D01*
X4458847Y25745620D02*
X4877895Y25745620D01*
X4877895Y26469430D02*
X4458847Y26469430D01*
X4458847Y26469430D02*
X4382657Y26431335D01*
X4382657Y26431335D02*
X4344561Y26355144D01*
X4344561Y26355144D02*
X4344561Y26202763D01*
X4344561Y26202763D02*
X4382657Y26126573D01*
X4839800Y26469430D02*
X4877895Y26393239D01*
X4877895Y26393239D02*
X4877895Y26202763D01*
X4877895Y26202763D02*
X4839800Y26126573D01*
X4839800Y26126573D02*
X4763609Y26088477D01*
X4763609Y26088477D02*
X4687419Y26088477D01*
X4687419Y26088477D02*
X4611228Y26126573D01*
X4611228Y26126573D02*
X4573133Y26202763D01*
X4573133Y26202763D02*
X4573133Y26393239D01*
X4573133Y26393239D02*
X4535038Y26469430D01*
X4649323Y27421811D02*
X4649323Y27802764D01*
X4877895Y27345621D02*
X4077895Y27612288D01*
X4077895Y27612288D02*
X4877895Y27878954D01*
X4877895Y28145621D02*
X4344561Y28145621D01*
X4496942Y28145621D02*
X4420752Y28183716D01*
X4420752Y28183716D02*
X4382657Y28221811D01*
X4382657Y28221811D02*
X4344561Y28298002D01*
X4344561Y28298002D02*
X4344561Y28374192D01*
X4839800Y28945621D02*
X4877895Y28869430D01*
X4877895Y28869430D02*
X4877895Y28717049D01*
X4877895Y28717049D02*
X4839800Y28640859D01*
X4839800Y28640859D02*
X4763609Y28602763D01*
X4763609Y28602763D02*
X4458847Y28602763D01*
X4458847Y28602763D02*
X4382657Y28640859D01*
X4382657Y28640859D02*
X4344561Y28717049D01*
X4344561Y28717049D02*
X4344561Y28869430D01*
X4344561Y28869430D02*
X4382657Y28945621D01*
X4382657Y28945621D02*
X4458847Y28983716D01*
X4458847Y28983716D02*
X4535038Y28983716D01*
X4535038Y28983716D02*
X4611228Y28602763D01*
X4877895Y29669430D02*
X4458847Y29669430D01*
X4458847Y29669430D02*
X4382657Y29631335D01*
X4382657Y29631335D02*
X4344561Y29555144D01*
X4344561Y29555144D02*
X4344561Y29402763D01*
X4344561Y29402763D02*
X4382657Y29326573D01*
X4839800Y29669430D02*
X4877895Y29593239D01*
X4877895Y29593239D02*
X4877895Y29402763D01*
X4877895Y29402763D02*
X4839800Y29326573D01*
X4839800Y29326573D02*
X4763609Y29288477D01*
X4763609Y29288477D02*
X4687419Y29288477D01*
X4687419Y29288477D02*
X4611228Y29326573D01*
X4611228Y29326573D02*
X4573133Y29402763D01*
X4573133Y29402763D02*
X4573133Y29593239D01*
X4573133Y29593239D02*
X4535038Y29669430D01*
X23293714Y23843105D02*
X23027047Y24224058D01*
X22836571Y23843105D02*
X22836571Y24643105D01*
X22836571Y24643105D02*
X23141333Y24643105D01*
X23141333Y24643105D02*
X23217523Y24605010D01*
X23217523Y24605010D02*
X23255618Y24566915D01*
X23255618Y24566915D02*
X23293714Y24490724D01*
X23293714Y24490724D02*
X23293714Y24376439D01*
X23293714Y24376439D02*
X23255618Y24300248D01*
X23255618Y24300248D02*
X23217523Y24262153D01*
X23217523Y24262153D02*
X23141333Y24224058D01*
X23141333Y24224058D02*
X22836571Y24224058D01*
X24055618Y23843105D02*
X23598475Y23843105D01*
X23827047Y23843105D02*
X23827047Y24643105D01*
X23827047Y24643105D02*
X23750856Y24528820D01*
X23750856Y24528820D02*
X23674666Y24452629D01*
X23674666Y24452629D02*
X23598475Y24414534D01*
X24550857Y24643105D02*
X24627047Y24643105D01*
X24627047Y24643105D02*
X24703238Y24605010D01*
X24703238Y24605010D02*
X24741333Y24566915D01*
X24741333Y24566915D02*
X24779428Y24490724D01*
X24779428Y24490724D02*
X24817523Y24338343D01*
X24817523Y24338343D02*
X24817523Y24147867D01*
X24817523Y24147867D02*
X24779428Y23995486D01*
X24779428Y23995486D02*
X24741333Y23919296D01*
X24741333Y23919296D02*
X24703238Y23881200D01*
X24703238Y23881200D02*
X24627047Y23843105D01*
X24627047Y23843105D02*
X24550857Y23843105D01*
X24550857Y23843105D02*
X24474666Y23881200D01*
X24474666Y23881200D02*
X24436571Y23919296D01*
X24436571Y23919296D02*
X24398476Y23995486D01*
X24398476Y23995486D02*
X24360380Y24147867D01*
X24360380Y24147867D02*
X24360380Y24338343D01*
X24360380Y24338343D02*
X24398476Y24490724D01*
X24398476Y24490724D02*
X24436571Y24566915D01*
X24436571Y24566915D02*
X24474666Y24605010D01*
X24474666Y24605010D02*
X24550857Y24643105D01*
X23774667Y42063105D02*
X23508000Y42444058D01*
X23317524Y42063105D02*
X23317524Y42863105D01*
X23317524Y42863105D02*
X23622286Y42863105D01*
X23622286Y42863105D02*
X23698476Y42825010D01*
X23698476Y42825010D02*
X23736571Y42786915D01*
X23736571Y42786915D02*
X23774667Y42710724D01*
X23774667Y42710724D02*
X23774667Y42596439D01*
X23774667Y42596439D02*
X23736571Y42520248D01*
X23736571Y42520248D02*
X23698476Y42482153D01*
X23698476Y42482153D02*
X23622286Y42444058D01*
X23622286Y42444058D02*
X23317524Y42444058D01*
X24041333Y42863105D02*
X24574667Y42863105D01*
X24574667Y42863105D02*
X24231809Y42063105D01*
X42006809Y26969415D02*
X41930619Y27007510D01*
X41930619Y27007510D02*
X41854428Y27083700D01*
X41854428Y27083700D02*
X41740142Y27197986D01*
X41740142Y27197986D02*
X41663952Y27236081D01*
X41663952Y27236081D02*
X41587761Y27236081D01*
X41625857Y27045605D02*
X41549666Y27083700D01*
X41549666Y27083700D02*
X41473476Y27159891D01*
X41473476Y27159891D02*
X41435380Y27312272D01*
X41435380Y27312272D02*
X41435380Y27578939D01*
X41435380Y27578939D02*
X41473476Y27731320D01*
X41473476Y27731320D02*
X41549666Y27807510D01*
X41549666Y27807510D02*
X41625857Y27845605D01*
X41625857Y27845605D02*
X41778238Y27845605D01*
X41778238Y27845605D02*
X41854428Y27807510D01*
X41854428Y27807510D02*
X41930619Y27731320D01*
X41930619Y27731320D02*
X41968714Y27578939D01*
X41968714Y27578939D02*
X41968714Y27312272D01*
X41968714Y27312272D02*
X41930619Y27159891D01*
X41930619Y27159891D02*
X41854428Y27083700D01*
X41854428Y27083700D02*
X41778238Y27045605D01*
X41778238Y27045605D02*
X41625857Y27045605D01*
X42730618Y27045605D02*
X42273475Y27045605D01*
X42502047Y27045605D02*
X42502047Y27845605D01*
X42502047Y27845605D02*
X42425856Y27731320D01*
X42425856Y27731320D02*
X42349666Y27655129D01*
X42349666Y27655129D02*
X42273475Y27617034D01*
X23667524Y32983105D02*
X23667524Y33783105D01*
X23667524Y33783105D02*
X23858000Y33783105D01*
X23858000Y33783105D02*
X23972286Y33745010D01*
X23972286Y33745010D02*
X24048476Y33668820D01*
X24048476Y33668820D02*
X24086571Y33592629D01*
X24086571Y33592629D02*
X24124667Y33440248D01*
X24124667Y33440248D02*
X24124667Y33325962D01*
X24124667Y33325962D02*
X24086571Y33173581D01*
X24086571Y33173581D02*
X24048476Y33097391D01*
X24048476Y33097391D02*
X23972286Y33021200D01*
X23972286Y33021200D02*
X23858000Y32983105D01*
X23858000Y32983105D02*
X23667524Y32983105D01*
X24391333Y33783105D02*
X24886571Y33783105D01*
X24886571Y33783105D02*
X24619905Y33478343D01*
X24619905Y33478343D02*
X24734190Y33478343D01*
X24734190Y33478343D02*
X24810381Y33440248D01*
X24810381Y33440248D02*
X24848476Y33402153D01*
X24848476Y33402153D02*
X24886571Y33325962D01*
X24886571Y33325962D02*
X24886571Y33135486D01*
X24886571Y33135486D02*
X24848476Y33059296D01*
X24848476Y33059296D02*
X24810381Y33021200D01*
X24810381Y33021200D02*
X24734190Y32983105D01*
X24734190Y32983105D02*
X24505619Y32983105D01*
X24505619Y32983105D02*
X24429428Y33021200D01*
X24429428Y33021200D02*
X24391333Y33059296D01*
D11*
%TO.C,L2*%
X41902000Y23086000D02*
X36902000Y23086000D01*
X36902000Y18086000D02*
X41902000Y18086000D01*
%TO.C,J2*%
X38088001Y9955499D02*
X37528001Y9955499D01*
X38088001Y6795499D02*
X37528001Y6795499D01*
X42088001Y6795499D02*
X41528001Y6795499D01*
X42088001Y9955499D02*
X41528001Y9955499D01*
X42658001Y5715499D02*
G75*
G02*
X42458001Y5715499I-100000J0D01*
G01*
X42458001Y5715499D02*
G75*
G02*
X42658001Y5715499I100000J0D01*
G01*
D12*
%TO.C,C18*%
X28420164Y7778000D02*
X28635836Y7778000D01*
X28420164Y7058000D02*
X28635836Y7058000D01*
%TO.C,R14*%
X24415500Y4725742D02*
X24415500Y5200258D01*
X25460500Y4725742D02*
X25460500Y5200258D01*
D13*
%TO.C,U2*%
X27338000Y8878000D02*
X27338000Y8218000D01*
X24438000Y8218000D02*
X24438000Y8878000D01*
X26223000Y7748000D02*
X25553000Y7748000D01*
D11*
X27038000Y10958000D02*
G75*
G02*
X26838000Y10958000I-100000J0D01*
G01*
X26838000Y10958000D02*
G75*
G02*
X27038000Y10958000I100000J0D01*
G01*
D13*
%TO.C,D4*%
X25928000Y3338000D02*
X25928000Y4538000D01*
X29428000Y3338000D02*
X29428000Y4538000D01*
D11*
X26593000Y1148000D02*
G75*
G02*
X26393000Y1148000I-100000J0D01*
G01*
X26393000Y1148000D02*
G75*
G02*
X26593000Y1148000I100000J0D01*
G01*
D12*
%TO.C,R11*%
X20100742Y28085500D02*
X20575258Y28085500D01*
X20100742Y29130500D02*
X20575258Y29130500D01*
%TO.C,R8*%
X15895742Y41950500D02*
X16370258Y41950500D01*
X15895742Y42995500D02*
X16370258Y42995500D01*
%TO.C,U3*%
X38918000Y13291385D02*
X38588000Y13051385D01*
X38588000Y13531385D01*
X38918000Y13291385D01*
G36*
X38918000Y13291385D02*
G01*
X38588000Y13051385D01*
X38588000Y13531385D01*
X38918000Y13291385D01*
G37*
X41988000Y15651385D02*
X41988000Y13831385D01*
X41938000Y15651385D02*
X41988000Y15651385D01*
X38868000Y15651385D02*
X38918000Y15651385D01*
X41988000Y13831385D02*
X41938000Y13831385D01*
X38918000Y13831385D02*
X38868000Y13831385D01*
X38868000Y13831385D02*
X38868000Y15651385D01*
%TO.C,C11*%
X41632167Y10980284D02*
X42154671Y10980284D01*
X41632167Y12450284D02*
X42154671Y12450284D01*
%TO.C,C12*%
X39520164Y16918885D02*
X39735836Y16918885D01*
X39520164Y17638885D02*
X39735836Y17638885D01*
%TO.C,R9*%
X20575258Y25245500D02*
X20100742Y25245500D01*
X20575258Y26290500D02*
X20100742Y26290500D01*
%TO.C,C1*%
X41193000Y33776080D02*
X41193000Y33494920D01*
X40173000Y33776080D02*
X40173000Y33494920D01*
%TO.C,C3*%
X33863000Y34176080D02*
X33863000Y33894920D01*
X32843000Y34176080D02*
X32843000Y33894920D01*
%TO.C,C2*%
X35343000Y34176080D02*
X35343000Y33894920D01*
X34323000Y34176080D02*
X34323000Y33894920D01*
%TO.C,C4*%
X30893000Y34176080D02*
X30893000Y33894920D01*
X29873000Y34176080D02*
X29873000Y33894920D01*
%TO.C,J3*%
X13103000Y46178000D02*
X13103000Y44728000D01*
X13103000Y44728000D02*
X14903000Y44728000D01*
X22273000Y44728000D02*
X22273000Y43738000D01*
X22803000Y48998000D02*
X14373000Y48998000D01*
X24073000Y46178000D02*
X24073000Y44728000D01*
X24073000Y44728000D02*
X22273000Y44728000D01*
%TO.C,C20*%
X34678000Y15169252D02*
X34678000Y13746748D01*
X32858000Y15169252D02*
X32858000Y13746748D01*
%TO.C,C19*%
X35158000Y15169252D02*
X35158000Y13746748D01*
X36978000Y15169252D02*
X36978000Y13746748D01*
%TO.C,U1*%
X40568001Y4435499D02*
X40568001Y2615499D01*
X40518001Y4435499D02*
X40568001Y4435499D01*
X37448001Y4435499D02*
X37498001Y4435499D01*
X40568001Y2615499D02*
X40518001Y2615499D01*
X37498001Y2615499D02*
X37448001Y2615499D01*
X37448001Y2615499D02*
X37448001Y4435499D01*
X40848001Y4735499D02*
X40518001Y4975499D01*
X40848001Y5215499D01*
X40848001Y4735499D01*
G36*
X40848001Y4735499D02*
G01*
X40518001Y4975499D01*
X40848001Y5215499D01*
X40848001Y4735499D01*
G37*
%TO.C,R4*%
X41770743Y4802999D02*
X42245259Y4802999D01*
X41770743Y5847999D02*
X42245259Y5847999D01*
%TO.C,R3*%
X37895259Y10888000D02*
X37420743Y10888000D01*
X37895259Y11933000D02*
X37420743Y11933000D01*
%TO.C,C5*%
X31373000Y34176080D02*
X31373000Y33894920D01*
X32393000Y34176080D02*
X32393000Y33894920D01*
D11*
%TO.C,Q2*%
X32058000Y23800500D02*
X31708000Y23800500D01*
X32058000Y26720500D02*
X32058000Y23800500D01*
X31708000Y23800500D02*
X31708000Y26720500D01*
X31708000Y26720500D02*
X32058000Y26720500D01*
X30208000Y26760500D02*
X31358000Y26760500D01*
D12*
%TO.C,C6*%
X33543000Y29494920D02*
X33543000Y29776080D01*
X32523000Y29494920D02*
X32523000Y29776080D01*
D11*
%TO.C,D2*%
X27183000Y30560500D02*
X29983000Y30560500D01*
X26508000Y32360500D02*
X29983000Y32360500D01*
D12*
%TO.C,L1*%
X38193000Y29145500D02*
X37168000Y29145500D01*
X38193000Y29145500D02*
X38193000Y28120500D01*
X33973000Y29145500D02*
X34998000Y29145500D01*
X33973000Y29145500D02*
X33973000Y28120500D01*
X38193000Y24375500D02*
X38193000Y25400500D01*
X38193000Y24375500D02*
X37168000Y24375500D01*
X33973000Y24375500D02*
X33973000Y25400500D01*
X33973000Y24375500D02*
X34998000Y24375500D01*
%TO.C,C7*%
X32043000Y29494920D02*
X32043000Y29776080D01*
X31023000Y29494920D02*
X31023000Y29776080D01*
%TO.C,R2*%
X44945258Y30055500D02*
X44470742Y30055500D01*
X44945258Y31100500D02*
X44470742Y31100500D01*
%TO.C,R13*%
X15970500Y17815258D02*
X15970500Y17340742D01*
X14925500Y17815258D02*
X14925500Y17340742D01*
%TO.C,C14*%
X17859252Y38573000D02*
X17336748Y38573000D01*
X17859252Y40043000D02*
X17336748Y40043000D01*
%TO.C,R12*%
X29705500Y24998242D02*
X29705500Y25472758D01*
X28660500Y24998242D02*
X28660500Y25472758D01*
%TO.C,C16*%
X11413000Y17136748D02*
X11413000Y17659252D01*
X12883000Y17136748D02*
X12883000Y17659252D01*
%TO.C,C10*%
X31923000Y22668336D02*
X31923000Y22452664D01*
X32643000Y22668336D02*
X32643000Y22452664D01*
D13*
%TO.C,SW2*%
X4375500Y32958000D02*
X4375500Y38958000D01*
X10375500Y38958000D02*
X4375500Y38958000D01*
X10375500Y38958000D02*
X10375500Y32958000D01*
X10375500Y32958000D02*
X4375500Y32958000D01*
D11*
X1225500Y38258000D02*
G75*
G02*
X1025500Y38258000I-100000J0D01*
G01*
X1025500Y38258000D02*
G75*
G02*
X1225500Y38258000I100000J0D01*
G01*
D12*
%TO.C,C8*%
X26946748Y27000500D02*
X28369252Y27000500D01*
X26946748Y28820500D02*
X28369252Y28820500D01*
D14*
%TO.C,J1*%
X46554401Y31983000D02*
G75*
G02*
X45792401Y31983000I-381000J0D01*
G01*
X45792401Y31983000D02*
G75*
G02*
X46554401Y31983000I381000J0D01*
G01*
D13*
%TO.C,SW1*%
X19248000Y9448000D02*
X19248000Y3448000D01*
X13248000Y3448000D02*
X19248000Y3448000D01*
X13248000Y3448000D02*
X13248000Y9448000D01*
X13248000Y9448000D02*
X19248000Y9448000D01*
D11*
X22598000Y4148000D02*
G75*
G02*
X22398000Y4148000I-100000J0D01*
G01*
X22398000Y4148000D02*
G75*
G02*
X22598000Y4148000I100000J0D01*
G01*
D12*
%TO.C,C13*%
X19462420Y10938000D02*
X19743580Y10938000D01*
X19462420Y9918000D02*
X19743580Y9918000D01*
%TO.C,C15*%
X18175836Y40388000D02*
X17960164Y40388000D01*
X18175836Y41108000D02*
X17960164Y41108000D01*
%TO.C,R1*%
X38573000Y29937564D02*
X38573000Y28483436D01*
X40393000Y29937564D02*
X40393000Y28483436D01*
%TO.C,R6*%
X14470500Y34825258D02*
X14470500Y34350742D01*
X13425500Y34825258D02*
X13425500Y34350742D01*
D11*
%TO.C,D1*%
X34733000Y29510500D02*
X37533000Y29510500D01*
X34058000Y31310500D02*
X37533000Y31310500D01*
D12*
%TO.C,C17*%
X11028000Y18285836D02*
X11028000Y18070164D01*
X10308000Y18285836D02*
X10308000Y18070164D01*
%TO.C,C9*%
X33023000Y21871752D02*
X33023000Y20449248D01*
X34843000Y21871752D02*
X34843000Y20449248D01*
%TO.C,R5*%
X19365742Y12420500D02*
X19840258Y12420500D01*
X19365742Y11375500D02*
X19840258Y11375500D01*
%TO.C,U4*%
X18863000Y32698000D02*
X18863000Y31898000D01*
X18063000Y32698000D02*
X18863000Y32698000D01*
X1863000Y32698000D02*
X2463000Y32698000D01*
X18663000Y32498000D02*
X18663000Y19298000D01*
X2063000Y32498000D02*
X18663000Y32498000D01*
X1863000Y31948000D02*
X1863000Y32698000D01*
X1863000Y19973000D02*
X1863000Y19123000D01*
X18663000Y19298000D02*
X2063000Y19298000D01*
X7463000Y19298000D02*
X7463000Y32498000D01*
X2063000Y19298000D02*
X2063000Y32498000D01*
X18863000Y19098000D02*
X18863000Y19898000D01*
X18063000Y19098000D02*
X18863000Y19098000D01*
%TO.C,R10*%
X20575258Y24820500D02*
X20100742Y24820500D01*
X20575258Y23775500D02*
X20100742Y23775500D01*
%TO.C,R7*%
X21280258Y43030500D02*
X20805742Y43030500D01*
X21280258Y41985500D02*
X20805742Y41985500D01*
%TO.C,Q1*%
X43400500Y30620500D02*
X43070500Y30860500D01*
X43400500Y31100500D01*
X43400500Y30620500D01*
G36*
X43400500Y30620500D02*
G01*
X43070500Y30860500D01*
X43400500Y31100500D01*
X43400500Y30620500D01*
G37*
X41430500Y29080500D02*
X40770500Y29080500D01*
X43090500Y29080500D02*
X42430500Y29080500D01*
X40770500Y30490500D02*
X40770500Y29080500D01*
X43090500Y30490500D02*
X43090500Y29080500D01*
D11*
%TO.C,D3*%
X22733000Y30560500D02*
X25533000Y30560500D01*
X22058000Y32360500D02*
X25533000Y32360500D01*
%TD*%
%LPC*%
D15*
%TO.C,L2*%
X37452000Y20586000D03*
X41352000Y20586000D03*
%TD*%
D16*
%TO.C,H1*%
X4975000Y4975000D03*
%TD*%
%TO.C,H3*%
X42688000Y46185000D03*
%TD*%
%TO.C,H2*%
X4975000Y46185000D03*
%TD*%
D17*
%TO.C,J2*%
X35808001Y9805499D03*
X43808001Y9805499D03*
X35808001Y6945499D03*
X43808001Y6945499D03*
D18*
X35808001Y8375499D03*
X43808001Y8375499D03*
D19*
X37058001Y9860499D03*
X38558001Y9860499D03*
X39058001Y9860499D03*
X39558001Y9860499D03*
X40058001Y9860499D03*
X40558001Y9860499D03*
X41058001Y9860499D03*
X37058001Y6890499D03*
X38558001Y6890499D03*
X39058001Y6890499D03*
X39558001Y6890499D03*
X40058001Y6890499D03*
X40558001Y6890499D03*
X41058001Y6890499D03*
X42558001Y9860499D03*
X42558001Y6890499D03*
%TD*%
D20*
%TO.C,C18*%
X28048000Y7418000D03*
X29008000Y7418000D03*
%TD*%
D21*
%TO.C,R14*%
X24938000Y4138000D03*
X24938000Y5788000D03*
%TD*%
D22*
%TO.C,U2*%
X26838000Y9803000D03*
X25888000Y9803000D03*
X24938000Y9803000D03*
X24938000Y7293000D03*
X26838000Y7293000D03*
%TD*%
D23*
%TO.C,D4*%
X26608000Y2348000D03*
X28748000Y2348000D03*
X28748000Y5528000D03*
X26608000Y5528000D03*
%TD*%
D24*
%TO.C,R11*%
X21163000Y28608000D03*
X19513000Y28608000D03*
%TD*%
%TO.C,R8*%
X16958000Y42473000D03*
X15308000Y42473000D03*
%TD*%
D25*
%TO.C,U3*%
X39478000Y15878885D03*
X40428000Y15878885D03*
X41378000Y15878885D03*
X41378000Y13603885D03*
X40428000Y13603885D03*
X39478000Y13603885D03*
%TD*%
D26*
%TO.C,C11*%
X42843419Y11715284D03*
X40943419Y11715284D03*
%TD*%
D20*
%TO.C,C12*%
X40108000Y17278885D03*
X39148000Y17278885D03*
%TD*%
D27*
%TO.C,R9*%
X21163000Y25768000D03*
X19513000Y25768000D03*
%TD*%
D28*
%TO.C,C1*%
X40683000Y34410500D03*
X40683000Y32860500D03*
%TD*%
%TO.C,C3*%
X33353000Y34810500D03*
X33353000Y33260500D03*
%TD*%
%TO.C,C2*%
X34833000Y34810500D03*
X34833000Y33260500D03*
%TD*%
%TO.C,C4*%
X30383000Y34810500D03*
X30383000Y33260500D03*
%TD*%
D29*
%TO.C,J3*%
X13613000Y47788000D03*
X23563000Y47788000D03*
D30*
X15463000Y44588000D03*
X16713000Y44588000D03*
X17963000Y44588000D03*
X19213000Y44588000D03*
X20463000Y44588000D03*
X21713000Y44588000D03*
%TD*%
D31*
%TO.C,C20*%
X33768000Y15933000D03*
X33768000Y12983000D03*
%TD*%
%TO.C,C19*%
X36068000Y12983000D03*
X36068000Y15933000D03*
%TD*%
D32*
%TO.C,U1*%
X39958001Y4662999D03*
X39008001Y4662999D03*
X38058001Y4662999D03*
X38058001Y2387999D03*
X39008001Y2387999D03*
X39958001Y2387999D03*
%TD*%
D24*
%TO.C,R4*%
X42833001Y5325499D03*
X41183001Y5325499D03*
%TD*%
D27*
%TO.C,R3*%
X38483001Y11410500D03*
X36833001Y11410500D03*
%TD*%
D28*
%TO.C,C5*%
X31883000Y33260500D03*
X31883000Y34810500D03*
%TD*%
D33*
%TO.C,Q2*%
X32983000Y25260500D03*
X30783000Y24310500D03*
X30783000Y26210500D03*
%TD*%
D34*
%TO.C,C6*%
X33033000Y30410500D03*
X33033000Y28860500D03*
%TD*%
D35*
%TO.C,D2*%
X30158000Y31460500D03*
X27008000Y31460500D03*
%TD*%
D36*
%TO.C,L1*%
X36083000Y28285500D03*
X36083000Y25235500D03*
%TD*%
D34*
%TO.C,C7*%
X31533000Y30410500D03*
X31533000Y28860500D03*
%TD*%
D27*
%TO.C,R2*%
X45533000Y30578000D03*
X43883000Y30578000D03*
%TD*%
D37*
%TO.C,R13*%
X15448000Y18403000D03*
X15448000Y16753000D03*
%TD*%
D38*
%TO.C,C14*%
X18548000Y39308000D03*
X16648000Y39308000D03*
%TD*%
D21*
%TO.C,R12*%
X29183000Y26060500D03*
X29183000Y24410500D03*
%TD*%
D39*
%TO.C,C16*%
X12148000Y16448000D03*
X12148000Y18348000D03*
%TD*%
D40*
%TO.C,C10*%
X32283000Y22080500D03*
X32283000Y23040500D03*
%TD*%
D41*
%TO.C,SW2*%
X2825500Y38208000D03*
X11925500Y38208000D03*
X2825500Y33708000D03*
X11925500Y33708000D03*
%TD*%
D42*
%TO.C,C8*%
X29133000Y27910500D03*
X26183000Y27910500D03*
%TD*%
D43*
%TO.C,SW1*%
X20798000Y4198000D03*
X11698000Y4198000D03*
X20798000Y8698000D03*
X11698000Y8698000D03*
%TD*%
D44*
%TO.C,C13*%
X18828000Y10428000D03*
X20378000Y10428000D03*
%TD*%
D45*
%TO.C,C15*%
X18548000Y40748000D03*
X17588000Y40748000D03*
%TD*%
D46*
%TO.C,R1*%
X39483000Y27748000D03*
X39483000Y30673000D03*
%TD*%
D37*
%TO.C,R6*%
X13948000Y35413000D03*
X13948000Y33763000D03*
%TD*%
D35*
%TO.C,D1*%
X37708000Y30410500D03*
X34558000Y30410500D03*
%TD*%
D40*
%TO.C,C17*%
X10668000Y18658000D03*
X10668000Y17698000D03*
%TD*%
D31*
%TO.C,C9*%
X33933000Y19685500D03*
X33933000Y22635500D03*
%TD*%
D24*
%TO.C,R5*%
X18778000Y11898000D03*
X20428000Y11898000D03*
%TD*%
D47*
%TO.C,U4*%
X8113000Y19948000D03*
X18013000Y19948000D03*
X18013000Y31848000D03*
X8113000Y31848000D03*
D48*
X15038000Y27873000D03*
X13063000Y27873000D03*
X11088000Y27873000D03*
X15038000Y25898000D03*
X13063000Y25898000D03*
X11088000Y25898000D03*
X15038000Y23923000D03*
X13063000Y23923000D03*
D49*
X11088000Y23923000D03*
D50*
X8163000Y21098000D03*
X8163000Y21898000D03*
X8163000Y22698000D03*
X8163000Y23498000D03*
X8163000Y24298000D03*
X8163000Y25098000D03*
X8163000Y25898000D03*
X8163000Y26698000D03*
X8163000Y27498000D03*
X8163000Y28298000D03*
X8163000Y29098000D03*
X8163000Y29898000D03*
X8163000Y30698000D03*
D51*
X9063000Y31798000D03*
X9863000Y31798000D03*
X10663000Y31798000D03*
X11463000Y31798000D03*
X12263000Y31798000D03*
X13063000Y31798000D03*
X13863000Y31798000D03*
X14663000Y31798000D03*
X15463000Y31798000D03*
X16263000Y31798000D03*
X17063000Y31798000D03*
D50*
X17963000Y30698000D03*
X17963000Y29898000D03*
X17963000Y29098000D03*
X17963000Y28298000D03*
X17963000Y27498000D03*
X17963000Y26698000D03*
X17963000Y25898000D03*
X17963000Y25098000D03*
X17963000Y24298000D03*
X17963000Y23498000D03*
X17963000Y22698000D03*
X17963000Y21898000D03*
X17963000Y21098000D03*
D51*
X17063000Y19998000D03*
X16263000Y19998000D03*
X15463000Y19998000D03*
X14663000Y19998000D03*
X13863000Y19998000D03*
X13063000Y19998000D03*
X12263000Y19998000D03*
X11463000Y19998000D03*
X10663000Y19998000D03*
X9863000Y19998000D03*
X9063000Y19998000D03*
%TD*%
D27*
%TO.C,R10*%
X19513000Y24298000D03*
X21163000Y24298000D03*
%TD*%
%TO.C,R7*%
X20218000Y42508000D03*
X21868000Y42508000D03*
%TD*%
D52*
%TO.C,Q1*%
X41930500Y28810500D03*
X41280500Y30810500D03*
X42580500Y30810500D03*
%TD*%
D35*
%TO.C,D3*%
X25708000Y31460500D03*
X22558000Y31460500D03*
%TD*%
%LPD*%
M02*
