%TF.GenerationSoftware,KiCad,Pcbnew,9.0.6*%
%TF.CreationDate,2025-12-09T15:41:04+01:00*%
%TF.ProjectId,CO2Monitor,434f324d-6f6e-4697-946f-722e6b696361,rev?*%
%TF.SameCoordinates,PX83b1de0PY8351ad0*%
%TF.FileFunction,Paste,Top*%
%TF.FilePolarity,Positive*%
%FSLAX46Y46*%
G04 Gerber Fmt 4.6, Leading zero omitted, Abs format (unit mm)*
G04 Created by KiCad (PCBNEW 9.0.6) date 2025-12-09 15:41:04*
%MOMM*%
%LPD*%
G01*
G04 APERTURE LIST*
G04 Aperture macros list*
%AMRoundRect*
0 Rectangle with rounded corners*
0 $1 Rounding radius*
0 $2 $3 $4 $5 $6 $7 $8 $9 X,Y pos of 4 corners*
0 Add a 4 corners polygon primitive as box body*
4,1,4,$2,$3,$4,$5,$6,$7,$8,$9,$2,$3,0*
0 Add four circle primitives for the rounded corners*
1,1,$1+$1,$2,$3*
1,1,$1+$1,$4,$5*
1,1,$1+$1,$6,$7*
1,1,$1+$1,$8,$9*
0 Add four rect primitives between the rounded corners*
20,1,$1+$1,$2,$3,$4,$5,0*
20,1,$1+$1,$4,$5,$6,$7,0*
20,1,$1+$1,$6,$7,$8,$9,0*
20,1,$1+$1,$8,$9,$2,$3,0*%
%AMFreePoly0*
4,1,6,0.725000,-0.725000,-0.725000,-0.725000,-0.725000,0.125000,-0.125000,0.725000,0.725000,0.725000,0.725000,-0.725000,0.725000,-0.725000,$1*%
G04 Aperture macros list end*
%ADD10R,2.350000X4.050000*%
%ADD11R,0.300000X1.150000*%
%ADD12RoundRect,0.140000X-0.140000X-0.170000X0.140000X-0.170000X0.140000X0.170000X-0.140000X0.170000X0*%
%ADD13RoundRect,0.200000X0.275000X-0.200000X0.275000X0.200000X-0.275000X0.200000X-0.275000X-0.200000X0*%
%ADD14RoundRect,0.147500X-0.147500X0.457500X-0.147500X-0.457500X0.147500X-0.457500X0.147500X0.457500X0*%
%ADD15R,0.900000X1.300000*%
%ADD16RoundRect,0.200000X-0.200000X-0.275000X0.200000X-0.275000X0.200000X0.275000X-0.200000X0.275000X0*%
%ADD17RoundRect,0.150000X0.150000X-0.512500X0.150000X0.512500X-0.150000X0.512500X-0.150000X-0.512500X0*%
%ADD18RoundRect,0.250000X-0.250000X-0.475000X0.250000X-0.475000X0.250000X0.475000X-0.250000X0.475000X0*%
%ADD19RoundRect,0.200000X0.200000X0.275000X-0.200000X0.275000X-0.200000X-0.275000X0.200000X-0.275000X0*%
%ADD20RoundRect,0.225000X-0.250000X0.225000X-0.250000X-0.225000X0.250000X-0.225000X0.250000X0.225000X0*%
%ADD21RoundRect,0.250000X0.250000X1.100000X-0.250000X1.100000X-0.250000X-1.100000X0.250000X-1.100000X0*%
%ADD22RoundRect,0.150000X0.150000X0.700000X-0.150000X0.700000X-0.150000X-0.700000X0.150000X-0.700000X0*%
%ADD23RoundRect,0.250000X-0.650000X0.325000X-0.650000X-0.325000X0.650000X-0.325000X0.650000X0.325000X0*%
%ADD24RoundRect,0.150000X-0.150000X0.512500X-0.150000X-0.512500X0.150000X-0.512500X0.150000X0.512500X0*%
%ADD25R,1.150000X0.600000*%
%ADD26RoundRect,0.225000X0.250000X-0.225000X0.250000X0.225000X-0.250000X0.225000X-0.250000X-0.225000X0*%
%ADD27R,1.000000X1.130000*%
%ADD28R,3.600000X1.500000*%
%ADD29RoundRect,0.200000X-0.275000X0.200000X-0.275000X-0.200000X0.275000X-0.200000X0.275000X0.200000X0*%
%ADD30RoundRect,0.250000X0.250000X0.475000X-0.250000X0.475000X-0.250000X-0.475000X0.250000X-0.475000X0*%
%ADD31RoundRect,0.250000X0.475000X-0.250000X0.475000X0.250000X-0.475000X0.250000X-0.475000X-0.250000X0*%
%ADD32RoundRect,0.140000X-0.170000X0.140000X-0.170000X-0.140000X0.170000X-0.140000X0.170000X0.140000X0*%
%ADD33R,2.100000X1.400000*%
%ADD34RoundRect,0.250000X-0.325000X-0.650000X0.325000X-0.650000X0.325000X0.650000X-0.325000X0.650000X0*%
%ADD35RoundRect,0.225000X-0.225000X-0.250000X0.225000X-0.250000X0.225000X0.250000X-0.225000X0.250000X0*%
%ADD36RoundRect,0.140000X0.140000X0.170000X-0.140000X0.170000X-0.140000X-0.170000X0.140000X-0.170000X0*%
%ADD37RoundRect,0.250000X-0.625000X0.312500X-0.625000X-0.312500X0.625000X-0.312500X0.625000X0.312500X0*%
%ADD38R,0.700000X0.700000*%
%ADD39R,1.450000X1.450000*%
%ADD40FreePoly0,90.000000*%
%ADD41R,0.800000X0.400000*%
%ADD42R,0.400000X0.800000*%
%ADD43RoundRect,0.112500X0.112500X0.237500X-0.112500X0.237500X-0.112500X-0.237500X0.112500X-0.237500X0*%
G04 APERTURE END LIST*
D10*
%TO.C,L2*%
X37452000Y20586000D03*
X41352000Y20586000D03*
%TD*%
D11*
%TO.C,J2*%
X37058001Y9860499D03*
X38558001Y9860499D03*
X39058001Y9860499D03*
X39558001Y9860499D03*
X40058001Y9860499D03*
X40558001Y9860499D03*
X41058001Y9860499D03*
X37058001Y6890499D03*
X38558001Y6890499D03*
X39058001Y6890499D03*
X39558001Y6890499D03*
X40058001Y6890499D03*
X40558001Y6890499D03*
X41058001Y6890499D03*
X42558001Y9860499D03*
X42558001Y6890499D03*
%TD*%
D12*
%TO.C,C18*%
X28048000Y7418000D03*
X29008000Y7418000D03*
%TD*%
D13*
%TO.C,R14*%
X24938000Y4138000D03*
X24938000Y5788000D03*
%TD*%
D14*
%TO.C,U2*%
X26838000Y9803000D03*
X25888000Y9803000D03*
X24938000Y9803000D03*
X24938000Y7293000D03*
X26838000Y7293000D03*
%TD*%
D15*
%TO.C,D4*%
X26608000Y2348000D03*
X28748000Y2348000D03*
X28748000Y5528000D03*
X26608000Y5528000D03*
%TD*%
D16*
%TO.C,R11*%
X21163000Y28608000D03*
X19513000Y28608000D03*
%TD*%
%TO.C,R8*%
X16958000Y42473000D03*
X15308000Y42473000D03*
%TD*%
D17*
%TO.C,U3*%
X39478000Y15878885D03*
X40428000Y15878885D03*
X41378000Y15878885D03*
X41378000Y13603885D03*
X40428000Y13603885D03*
X39478000Y13603885D03*
%TD*%
D18*
%TO.C,C11*%
X42843419Y11715284D03*
X40943419Y11715284D03*
%TD*%
D12*
%TO.C,C12*%
X40108000Y17278885D03*
X39148000Y17278885D03*
%TD*%
D19*
%TO.C,R9*%
X21163000Y25768000D03*
X19513000Y25768000D03*
%TD*%
D20*
%TO.C,C1*%
X40683000Y34410500D03*
X40683000Y32860500D03*
%TD*%
%TO.C,C3*%
X33353000Y34810500D03*
X33353000Y33260500D03*
%TD*%
%TO.C,C2*%
X34833000Y34810500D03*
X34833000Y33260500D03*
%TD*%
%TO.C,C4*%
X30383000Y34810500D03*
X30383000Y33260500D03*
%TD*%
D21*
%TO.C,J3*%
X13613000Y47788000D03*
X23563000Y47788000D03*
D22*
X15463000Y44588000D03*
X16713000Y44588000D03*
X17963000Y44588000D03*
X19213000Y44588000D03*
X20463000Y44588000D03*
X21713000Y44588000D03*
%TD*%
D23*
%TO.C,C20*%
X33768000Y15933000D03*
X33768000Y12983000D03*
%TD*%
%TO.C,C19*%
X36068000Y12983000D03*
X36068000Y15933000D03*
%TD*%
D24*
%TO.C,U1*%
X39958001Y4662999D03*
X39008001Y4662999D03*
X38058001Y4662999D03*
X38058001Y2387999D03*
X39008001Y2387999D03*
X39958001Y2387999D03*
%TD*%
D16*
%TO.C,R4*%
X42833001Y5325499D03*
X41183001Y5325499D03*
%TD*%
D19*
%TO.C,R3*%
X38483001Y11410500D03*
X36833001Y11410500D03*
%TD*%
D20*
%TO.C,C5*%
X31883000Y33260500D03*
X31883000Y34810500D03*
%TD*%
D25*
%TO.C,Q2*%
X32983000Y25260500D03*
X30783000Y24310500D03*
X30783000Y26210500D03*
%TD*%
D26*
%TO.C,C6*%
X33033000Y30410500D03*
X33033000Y28860500D03*
%TD*%
D27*
%TO.C,D2*%
X30158000Y31460500D03*
X27008000Y31460500D03*
%TD*%
D28*
%TO.C,L1*%
X36083000Y28285500D03*
X36083000Y25235500D03*
%TD*%
D26*
%TO.C,C7*%
X31533000Y30410500D03*
X31533000Y28860500D03*
%TD*%
D19*
%TO.C,R2*%
X45533000Y30578000D03*
X43883000Y30578000D03*
%TD*%
D29*
%TO.C,R13*%
X15448000Y18403000D03*
X15448000Y16753000D03*
%TD*%
D30*
%TO.C,C14*%
X18548000Y39308000D03*
X16648000Y39308000D03*
%TD*%
D13*
%TO.C,R12*%
X29183000Y26060500D03*
X29183000Y24410500D03*
%TD*%
D31*
%TO.C,C16*%
X12148000Y16448000D03*
X12148000Y18348000D03*
%TD*%
D32*
%TO.C,C10*%
X32283000Y22080500D03*
X32283000Y23040500D03*
%TD*%
D33*
%TO.C,SW2*%
X2825500Y38208000D03*
X11925500Y38208000D03*
X2825500Y33708000D03*
X11925500Y33708000D03*
%TD*%
D34*
%TO.C,C8*%
X29133000Y27910500D03*
X26183000Y27910500D03*
%TD*%
D33*
%TO.C,SW1*%
X20798000Y4198000D03*
X11698000Y4198000D03*
X20798000Y8698000D03*
X11698000Y8698000D03*
%TD*%
D35*
%TO.C,C13*%
X18828000Y10428000D03*
X20378000Y10428000D03*
%TD*%
D36*
%TO.C,C15*%
X18548000Y40748000D03*
X17588000Y40748000D03*
%TD*%
D37*
%TO.C,R1*%
X39483000Y27748000D03*
X39483000Y30673000D03*
%TD*%
D29*
%TO.C,R6*%
X13948000Y35413000D03*
X13948000Y33763000D03*
%TD*%
D27*
%TO.C,D1*%
X37708000Y30410500D03*
X34558000Y30410500D03*
%TD*%
D32*
%TO.C,C17*%
X10668000Y18658000D03*
X10668000Y17698000D03*
%TD*%
D23*
%TO.C,C9*%
X33933000Y19685500D03*
X33933000Y22635500D03*
%TD*%
D16*
%TO.C,R5*%
X18778000Y11898000D03*
X20428000Y11898000D03*
%TD*%
D38*
%TO.C,U4*%
X8113000Y19948000D03*
X18013000Y19948000D03*
X18013000Y31848000D03*
X8113000Y31848000D03*
D39*
X15038000Y27873000D03*
X13063000Y27873000D03*
X11088000Y27873000D03*
X15038000Y25898000D03*
X13063000Y25898000D03*
X11088000Y25898000D03*
X15038000Y23923000D03*
X13063000Y23923000D03*
D40*
X11088000Y23923000D03*
D41*
X8163000Y21098000D03*
X8163000Y21898000D03*
X8163000Y22698000D03*
X8163000Y23498000D03*
X8163000Y24298000D03*
X8163000Y25098000D03*
X8163000Y25898000D03*
X8163000Y26698000D03*
X8163000Y27498000D03*
X8163000Y28298000D03*
X8163000Y29098000D03*
X8163000Y29898000D03*
X8163000Y30698000D03*
D42*
X9063000Y31798000D03*
X9863000Y31798000D03*
X10663000Y31798000D03*
X11463000Y31798000D03*
X12263000Y31798000D03*
X13063000Y31798000D03*
X13863000Y31798000D03*
X14663000Y31798000D03*
X15463000Y31798000D03*
X16263000Y31798000D03*
X17063000Y31798000D03*
D41*
X17963000Y30698000D03*
X17963000Y29898000D03*
X17963000Y29098000D03*
X17963000Y28298000D03*
X17963000Y27498000D03*
X17963000Y26698000D03*
X17963000Y25898000D03*
X17963000Y25098000D03*
X17963000Y24298000D03*
X17963000Y23498000D03*
X17963000Y22698000D03*
X17963000Y21898000D03*
X17963000Y21098000D03*
D42*
X17063000Y19998000D03*
X16263000Y19998000D03*
X15463000Y19998000D03*
X14663000Y19998000D03*
X13863000Y19998000D03*
X13063000Y19998000D03*
X12263000Y19998000D03*
X11463000Y19998000D03*
X10663000Y19998000D03*
X9863000Y19998000D03*
X9063000Y19998000D03*
%TD*%
D19*
%TO.C,R10*%
X19513000Y24298000D03*
X21163000Y24298000D03*
%TD*%
%TO.C,R7*%
X20218000Y42508000D03*
X21868000Y42508000D03*
%TD*%
D43*
%TO.C,Q1*%
X41930500Y28810500D03*
X41280500Y30810500D03*
X42580500Y30810500D03*
%TD*%
D27*
%TO.C,D3*%
X25708000Y31460500D03*
X22558000Y31460500D03*
%TD*%
M02*
