M48
; DRILL file {KiCad 9.0.6} date 2025-12-09T15:41:12+0100
; FORMAT={-:-/ absolute / metric / decimal}
; #@! TF.CreationDate,2025-12-09T15:41:12+01:00
; #@! TF.GenerationSoftware,Kicad,Pcbnew,9.0.6
; #@! TF.FileFunction,Plated,1,2,PTH
FMAT,2
METRIC
; #@! TA.AperFunction,Plated,PTH,ViaDrill
T1C0.300
; #@! TA.AperFunction,Plated,PTH,ComponentDrill
T2C0.600
; #@! TA.AperFunction,Plated,PTH,ComponentDrill
T3C3.200
%
G90
G05
T1
X0.8Y50.36
X0.8Y0.8
X0.801Y40.44
X0.801Y10.704
X10.718Y16.448
X11.088Y27.873
X11.088Y25.898
X11.088Y23.923
X12.313Y0.802
X12.316Y50.36
X13.063Y27.873
X13.063Y25.898
X13.063Y23.923
X13.698Y38.798
X13.948Y33.763
X13.948Y29.898
X14.148Y18.578
X15.038Y27.873
X15.038Y25.898
X15.038Y23.923
X16.928Y23.498
X16.958Y42.473
X17.598Y10.448
X18.183Y17.883
X18.418Y24.278
X18.598Y46.708
X19.318Y19.948
X19.538Y39.288
X20.218Y42.508
X20.428Y11.898
X20.488Y17.788
X21.438Y14.628
X22.278Y28.608
X22.548Y32.848
X22.598Y15.378
X22.718Y2.348
X22.918Y20.218
X23.788Y9.818
X23.829Y0.8
X23.831Y50.36
X25.843Y15.933
X28.478Y8.968
X29.048Y34.818
X30.191Y29.483
X30.383Y33.261
X30.783Y23.198
X31.533Y30.41
X31.883Y33.261
X32.268Y5.728
X33.033Y30.41
X33.353Y33.261
X33.933Y22.636
X33.938Y18.498
X34.833Y33.261
X35.347Y50.36
X35.351Y0.8
X35.448Y11.388
X35.798Y5.738
X36.122Y38.178
X36.699Y37.603
X37.19Y37.028
X37.695Y36.453
X38.058Y4.663
X38.198Y35.878
X38.558Y7.968
X38.766Y32.778
X39.451Y8.069
X39.468Y26.448
X39.483Y30.673
X39.628Y33.108
X40.01Y5.775
X40.408Y8.839
X40.678Y35.358
X40.683Y32.861
X41.058Y8.078
X41.088Y3.528
X42.808Y15.878
X43.883Y30.578
X44.108Y11.728
X44.988Y31.618
X46.846Y0.808
X46.861Y40.442
X46.861Y30.53
X46.861Y20.618
X46.861Y10.706
X46.863Y50.36
T3
X4.975Y46.185
X4.975Y4.975
X42.688Y46.185
T2
G00X36.058Y9.805
M15
G01X35.558Y9.805
M16
G05
G00X36.058Y6.945
M15
G01X35.558Y6.945
M16
G05
G00X44.058Y9.805
M15
G01X43.558Y9.805
M16
G05
G00X44.058Y6.945
M15
G01X43.558Y6.945
M16
G05
M30
