%TF.GenerationSoftware,KiCad,Pcbnew,9.0.6*%
%TF.CreationDate,2025-12-10T11:17:06+01:00*%
%TF.ProjectId,CO2Monitor,434f324d-6f6e-4697-946f-722e6b696361,rev?*%
%TF.SameCoordinates,PX83b1de0PY8351ad0*%
%TF.FileFunction,Copper,L2,Bot*%
%TF.FilePolarity,Positive*%
%FSLAX46Y46*%
G04 Gerber Fmt 4.6, Leading zero omitted, Abs format (unit mm)*
G04 Created by KiCad (PCBNEW 9.0.6) date 2025-12-10 11:17:06*
%MOMM*%
%LPD*%
G01*
G04 APERTURE LIST*
%TA.AperFunction,ComponentPad*%
%ADD10O,1.600000X1.100000*%
%TD*%
%TA.AperFunction,ComponentPad*%
%ADD11C,5.500000*%
%TD*%
%TA.AperFunction,SMDPad,CuDef*%
%ADD12R,0.355600X0.838200*%
%TD*%
%TA.AperFunction,SMDPad,CuDef*%
%ADD13R,0.406400X0.838200*%
%TD*%
%TA.AperFunction,ViaPad*%
%ADD14C,0.600000*%
%TD*%
%TA.AperFunction,Conductor*%
%ADD15C,0.200000*%
%TD*%
%TA.AperFunction,Conductor*%
%ADD16C,0.350000*%
%TD*%
%TA.AperFunction,Conductor*%
%ADD17C,0.250000*%
%TD*%
%TA.AperFunction,Conductor*%
%ADD18C,0.600000*%
%TD*%
G04 APERTURE END LIST*
D10*
%TO.P,J2,S1,SHIELD*%
%TO.N,GND*%
X43808001Y6945499D03*
%TO.P,J2,S2*%
%TO.N,N/C*%
X35808001Y6945499D03*
%TO.P,J2,S3*%
X43808001Y9805499D03*
%TO.P,J2,S4*%
X35808001Y9805499D03*
%TD*%
D11*
%TO.P,H3,1,1*%
%TO.N,GND*%
X42688000Y46185000D03*
%TD*%
%TO.P,H2,1,1*%
%TO.N,GND*%
X4975000Y46185000D03*
%TD*%
%TO.P,H1,1,1*%
%TO.N,GND*%
X4975000Y4975000D03*
%TD*%
D12*
%TO.P,J1,1,1*%
%TO.N,unconnected-(J1-Pad1)*%
X42690502Y31983000D03*
%TO.P,J1,2,2*%
%TO.N,Net-(Q1-G)*%
X42190501Y31983000D03*
%TO.P,J1,3,3*%
%TO.N,Net-(Q1-S)*%
X41690502Y31983000D03*
%TO.P,J1,4,4*%
%TO.N,unconnected-(J1-Pad4)*%
X41190500Y31983000D03*
%TO.P,J1,5,5*%
%TO.N,Net-(C1-Pad2)*%
X40690501Y31983000D03*
%TO.P,J1,6,6*%
%TO.N,unconnected-(J1-Pad6)*%
X40190502Y31983000D03*
%TO.P,J1,7,7*%
%TO.N,unconnected-(J1-Pad7)*%
X39690501Y31983000D03*
%TO.P,J1,8,8*%
%TO.N,GND*%
X39190502Y31983000D03*
%TO.P,J1,9,9*%
%TO.N,Net-(U4-GPIO14)*%
X38690500Y31983000D03*
%TO.P,J1,10,10*%
%TO.N,Net-(U4-GPIO19)*%
X38190501Y31983000D03*
%TO.P,J1,11,11*%
%TO.N,Net-(U4-GPIO20)*%
X37690502Y31983000D03*
%TO.P,J1,12,12*%
%TO.N,Net-(U4-GPIO21)*%
X37190501Y31983000D03*
%TO.P,J1,13,13*%
%TO.N,Net-(U4-GPIO22)*%
X36690501Y31983000D03*
%TO.P,J1,14,14*%
%TO.N,Net-(U4-GPIO23)*%
X36190500Y31983000D03*
%TO.P,J1,15,15*%
%TO.N,Net-(Q2-D)*%
X35690501Y31983000D03*
%TO.P,J1,16,16*%
X35190502Y31983000D03*
%TO.P,J1,17,17*%
%TO.N,GND*%
X34690500Y31983000D03*
%TO.P,J1,18,18*%
%TO.N,Net-(C2-Pad2)*%
X34190501Y31983000D03*
%TO.P,J1,19,19*%
%TO.N,unconnected-(J1-Pad19)*%
X33690500Y31983000D03*
%TO.P,J1,20,20*%
%TO.N,Net-(C3-Pad2)*%
X33190501Y31983000D03*
%TO.P,J1,21,21*%
%TO.N,Net-(D1-K)*%
X32690502Y31983000D03*
%TO.P,J1,22,22*%
%TO.N,Net-(C5-Pad2)*%
X32190500Y31983000D03*
%TO.P,J1,23,23*%
%TO.N,Net-(D2-A)*%
X31690501Y31983000D03*
%TO.P,J1,24,24*%
%TO.N,Net-(C4-Pad2)*%
X31190502Y31983000D03*
D13*
%TO.P,J1,25,SHIELD*%
%TO.N,GND*%
X43690500Y29483000D03*
%TO.P,J1,26,SHIELD*%
X30190502Y29483000D03*
%TD*%
D14*
%TO.N,GND*%
X12083000Y28882000D03*
X12083000Y26879000D03*
X12073000Y24898000D03*
X12077000Y22968000D03*
X14041000Y22968000D03*
X14039000Y28859000D03*
X14049000Y26885000D03*
X14056000Y24902000D03*
X39483000Y26463000D03*
X23788000Y9818000D03*
X801000Y40440000D03*
X22548000Y32848000D03*
X44108000Y11728000D03*
X18598000Y46708000D03*
X35448000Y11388000D03*
X23831500Y50360000D03*
X19318000Y19948000D03*
X800000Y50360000D03*
X10718000Y16448000D03*
X8109000Y18636000D03*
X800000Y800000D03*
X41088000Y3528000D03*
X17598000Y10448000D03*
X801000Y10704000D03*
X46861000Y40441750D03*
X46863000Y50360000D03*
X28478000Y8968000D03*
X23829000Y800000D03*
X29048000Y34818000D03*
X44988000Y31618000D03*
X46861000Y10705750D03*
X46861000Y30529750D03*
X33938000Y18498000D03*
X39628000Y33108000D03*
X30190502Y29483000D03*
X46846000Y808000D03*
X12315750Y50360000D03*
X13698000Y38798000D03*
X35347250Y50360000D03*
X35351000Y800000D03*
X22718000Y2348000D03*
X42808000Y15878000D03*
X46861000Y20617750D03*
X12312750Y802000D03*
X40678000Y35358000D03*
%TO.N,Net-(C1-Pad2)*%
X41613000Y32881000D03*
%TO.N,Net-(C2-Pad2)*%
X35600000Y33935000D03*
%TO.N,Net-(C3-Pad2)*%
X34092000Y33964000D03*
%TO.N,Net-(C4-Pad2)*%
X29472000Y32876500D03*
%TO.N,Net-(C5-Pad2)*%
X31139000Y33955000D03*
%TO.N,Net-(D1-K)*%
X32321000Y31123898D03*
%TO.N,Net-(D2-A)*%
X30599000Y30428000D03*
%TO.N,Net-(Q2-D)*%
X32271000Y23819000D03*
%TO.N,VBUS*%
X38558001Y7968000D03*
X41058001Y8078000D03*
X32268000Y5728000D03*
X35798000Y5738000D03*
%TO.N,/EN*%
X20428000Y12854000D03*
X14148000Y18578000D03*
%TO.N,+3.3V*%
X22598000Y15378000D03*
X19538000Y39288000D03*
X25843000Y15933000D03*
X30783000Y23198000D03*
X22278000Y28608000D03*
%TO.N,Net-(U4-GPIO14)*%
X38765501Y32778121D03*
%TO.N,Net-(U4-GPIO20)*%
X37695284Y36453000D03*
%TO.N,Net-(U4-GPIO21)*%
X37189519Y37028000D03*
%TO.N,Net-(Q1-S)*%
X40646000Y29905000D03*
%TO.N,Net-(U4-GPIO19)*%
X38198000Y35878000D03*
%TO.N,Net-(U4-GPIO22)*%
X36699062Y37603000D03*
%TO.N,Net-(Q1-G)*%
X43869000Y31508000D03*
%TO.N,Net-(U4-GPIO23)*%
X36122338Y38178000D03*
%TO.N,Net-(J2-D--PadA7)*%
X40408001Y8838998D03*
X39451414Y8068912D03*
%TO.N,Net-(J2-D+-PadA6)*%
X38330694Y5779306D03*
X40010280Y5775499D03*
%TO.N,Net-(J3-Pin_4)*%
X16472000Y23638000D03*
X17848000Y42473000D03*
%TO.N,Net-(J3-Pin_3)*%
X17050000Y24277000D03*
X19326000Y42499000D03*
%TO.N,Net-(Q2-G)*%
X22918000Y20218000D03*
X20488000Y17788000D03*
%TO.N,/GPIO 9*%
X14891413Y33839587D03*
X15390000Y29898000D03*
%TO.N,/GPIO5*%
X21438000Y14628000D03*
X18183000Y17883000D03*
%TD*%
D15*
%TO.N,GND*%
X39628000Y32861388D02*
X39628000Y33108000D01*
X39190502Y32423890D02*
X39628000Y32861388D01*
X39628000Y33108000D02*
X39608000Y33088000D01*
X39190502Y31983000D02*
X39190502Y32423890D01*
X39261701Y32054199D02*
X39190502Y31983000D01*
D16*
X34690500Y31983000D02*
X34690500Y30740500D01*
D17*
%TO.N,Net-(C1-Pad2)*%
X41613000Y32881000D02*
X40718502Y32881000D01*
X40690501Y32852999D02*
X40690501Y31983000D01*
X40718502Y32881000D02*
X40690501Y32852999D01*
%TO.N,Net-(C2-Pad2)*%
X35583000Y33935000D02*
X34889000Y33241000D01*
X34889000Y33241000D02*
X34813500Y33241000D01*
X35600000Y33935000D02*
X35583000Y33935000D01*
X34190501Y32618001D02*
X34190501Y31983000D01*
X34813500Y33241000D02*
X34190501Y32618001D01*
%TO.N,Net-(C3-Pad2)*%
X34025834Y33933334D02*
X33190501Y33098001D01*
X33190501Y33098001D02*
X33190501Y31983000D01*
X34025834Y33940834D02*
X34025834Y33933334D01*
X34089000Y34004000D02*
X34025834Y33940834D01*
%TO.N,Net-(C4-Pad2)*%
X30767000Y32876500D02*
X31190502Y32452998D01*
X31190502Y32452998D02*
X31190502Y31983000D01*
X29472000Y32876500D02*
X30767000Y32876500D01*
%TO.N,Net-(C5-Pad2)*%
X31201000Y33955000D02*
X31330638Y33825362D01*
X31330638Y33812862D02*
X32190500Y32953000D01*
X32190500Y32953000D02*
X32190500Y31983000D01*
X31330638Y33825362D02*
X31330638Y33812862D01*
X31139000Y33955000D02*
X31201000Y33955000D01*
%TO.N,Net-(D1-K)*%
X32321000Y31123898D02*
X32361402Y31123898D01*
X32690502Y31452998D02*
X32690502Y31983000D01*
X32361402Y31123898D02*
X32690502Y31452998D01*
%TO.N,Net-(D2-A)*%
X31465498Y30428000D02*
X31490499Y30453001D01*
X31490499Y30453001D02*
X31490499Y31113898D01*
X31490499Y31113898D02*
X31690501Y31313900D01*
X31690501Y31313900D02*
X31690501Y31983000D01*
X30599000Y30428000D02*
X31465498Y30428000D01*
%TO.N,Net-(Q2-D)*%
X35690501Y27238501D02*
X32271000Y23819000D01*
X32341000Y23819000D02*
X32434000Y23726000D01*
X35190502Y31983000D02*
X35690501Y31983000D01*
X35690501Y31983000D02*
X35690501Y27238501D01*
X32271000Y23819000D02*
X32341000Y23819000D01*
D16*
%TO.N,VBUS*%
X32278000Y5738000D02*
X32268000Y5728000D01*
X40318001Y7338000D02*
X39188001Y7338000D01*
X35798000Y5738000D02*
X32278000Y5738000D01*
X41058001Y8078000D02*
X40318001Y7338000D01*
X39188001Y7338000D02*
X38558001Y7968000D01*
D17*
%TO.N,/EN*%
X20427000Y12855000D02*
X19871000Y12855000D01*
X19871000Y12855000D02*
X14148000Y18578000D01*
X20428000Y12854000D02*
X20427000Y12855000D01*
D18*
%TO.N,+3.3V*%
X23838000Y15378000D02*
X24393000Y15933000D01*
X22278000Y28608000D02*
X25373000Y28608000D01*
X19538000Y39288000D02*
X19538000Y31348000D01*
X25373000Y28608000D02*
X30783000Y23198000D01*
X19538000Y31348000D02*
X22278000Y28608000D01*
X22598000Y15378000D02*
X23838000Y15378000D01*
X24393000Y15933000D02*
X25843000Y15933000D01*
D17*
%TO.N,Net-(U4-GPIO14)*%
X38690500Y31983000D02*
X38690500Y32703120D01*
X38690500Y32703120D02*
X38765501Y32778121D01*
%TO.N,Net-(U4-GPIO20)*%
X37690502Y35570910D02*
X37690502Y31983000D01*
X37622000Y35639412D02*
X37690502Y35570910D01*
X37695284Y36453000D02*
X37622000Y36379716D01*
X37622000Y36379716D02*
X37622000Y35639412D01*
%TO.N,Net-(U4-GPIO21)*%
X37189519Y37028000D02*
X37119284Y36957765D01*
X37119284Y32565418D02*
X37190501Y32494201D01*
X37190501Y32494201D02*
X37190501Y31983000D01*
X37119284Y36957765D02*
X37119284Y32565418D01*
%TO.N,Net-(Q1-S)*%
X40641000Y30185453D02*
X41128547Y30673000D01*
X40646000Y29905000D02*
X40641000Y29910000D01*
X41690502Y31220502D02*
X41690502Y31983000D01*
X40641000Y29910000D02*
X40641000Y30185453D01*
X41128547Y30673000D02*
X41143000Y30673000D01*
X41143000Y30673000D02*
X41690502Y31220502D01*
%TO.N,Net-(U4-GPIO19)*%
X38198000Y35878000D02*
X38190501Y35870501D01*
X38190501Y35870501D02*
X38190501Y31983000D01*
%TO.N,Net-(U4-GPIO22)*%
X36613519Y32729082D02*
X36690501Y32652100D01*
X36699062Y37603000D02*
X36613519Y37517457D01*
X36690501Y32652100D02*
X36690501Y31983000D01*
X36613519Y37517457D02*
X36613519Y32729082D01*
%TO.N,Net-(Q1-G)*%
X42246702Y31297900D02*
X43668900Y31297900D01*
X42190501Y31983000D02*
X42190501Y31354101D01*
X43668900Y31297900D02*
X43871000Y31500000D01*
X42190501Y31354101D02*
X42246702Y31297900D01*
%TO.N,Net-(U4-GPIO23)*%
X36122338Y37365136D02*
X36122338Y38178000D01*
X36190500Y31983000D02*
X36190500Y37296974D01*
X36190500Y37296974D02*
X36122338Y37365136D01*
%TO.N,Net-(J2-D--PadA7)*%
X39637915Y8068912D02*
X40408001Y8838998D01*
X39451414Y8068912D02*
X39637915Y8068912D01*
%TO.N,Net-(J2-D+-PadA6)*%
X38330694Y5779306D02*
X39166694Y5779306D01*
X39166694Y5779306D02*
X39170501Y5775499D01*
X39170501Y5775499D02*
X40010280Y5775499D01*
%TO.N,Net-(J3-Pin_4)*%
X16472000Y23660000D02*
X16310000Y23822000D01*
X16472000Y23638000D02*
X16472000Y23660000D01*
X16958000Y27225000D02*
X16958000Y41564000D01*
X17799000Y42405000D02*
X17799000Y42473000D01*
X16958000Y41564000D02*
X17799000Y42405000D01*
X16310000Y26577000D02*
X16958000Y27225000D01*
X16310000Y23822000D02*
X16310000Y26577000D01*
%TO.N,Net-(J3-Pin_3)*%
X19214000Y41504000D02*
X19214000Y42308000D01*
X18418000Y25737000D02*
X18418000Y40708000D01*
X17007000Y24326000D02*
X18418000Y25737000D01*
X18418000Y40708000D02*
X19214000Y41504000D01*
X19214000Y42308000D02*
X19402000Y42496000D01*
%TO.N,Net-(Q2-G)*%
X22918000Y20218000D02*
X20488000Y17788000D01*
%TO.N,/GPIO 9*%
X14891413Y33839587D02*
X15390000Y33341000D01*
X15390000Y33341000D02*
X15390000Y29898000D01*
%TO.N,/GPIO5*%
X18183000Y17883000D02*
X21438000Y14628000D01*
%TD*%
%TA.AperFunction,Conductor*%
%TO.N,GND*%
G36*
X47140826Y50637826D02*
G01*
X47162500Y50585500D01*
X47162500Y574500D01*
X47140826Y522174D01*
X47088500Y500500D01*
X574500Y500500D01*
X522174Y522174D01*
X500500Y574500D01*
X500500Y5793895D01*
X31767500Y5793895D01*
X31767500Y5662106D01*
X31801606Y5534819D01*
X31801607Y5534816D01*
X31801608Y5534814D01*
X31867500Y5420686D01*
X31960686Y5327500D01*
X32074814Y5261608D01*
X32202105Y5227501D01*
X32202106Y5227500D01*
X32202108Y5227500D01*
X32333894Y5227500D01*
X32333894Y5227501D01*
X32461186Y5261608D01*
X32575314Y5327500D01*
X32588640Y5340826D01*
X32640966Y5362500D01*
X35435034Y5362500D01*
X35487360Y5340826D01*
X35490686Y5337500D01*
X35604814Y5271608D01*
X35732105Y5237501D01*
X35732106Y5237500D01*
X35732108Y5237500D01*
X35863894Y5237500D01*
X35863894Y5237501D01*
X35991186Y5271608D01*
X36105314Y5337500D01*
X36198500Y5430686D01*
X36264392Y5544814D01*
X36298499Y5672106D01*
X36298500Y5672106D01*
X36298500Y5803894D01*
X36298499Y5803895D01*
X36291265Y5830892D01*
X36287431Y5845201D01*
X37830194Y5845201D01*
X37830194Y5713412D01*
X37864300Y5586125D01*
X37864304Y5586116D01*
X37893926Y5534810D01*
X37930194Y5471992D01*
X38023380Y5378806D01*
X38137508Y5312914D01*
X38264799Y5278807D01*
X38264800Y5278806D01*
X38264802Y5278806D01*
X38396588Y5278806D01*
X38396588Y5278807D01*
X38523880Y5312914D01*
X38638008Y5378806D01*
X38691334Y5432132D01*
X38743660Y5453806D01*
X39103696Y5453806D01*
X39122847Y5451285D01*
X39127647Y5449999D01*
X39127648Y5449999D01*
X39597314Y5449999D01*
X39649640Y5428325D01*
X39702966Y5374999D01*
X39817094Y5309107D01*
X39944385Y5275000D01*
X39944386Y5274999D01*
X39944388Y5274999D01*
X40076174Y5274999D01*
X40076174Y5275000D01*
X40203466Y5309107D01*
X40317594Y5374999D01*
X40410780Y5468185D01*
X40476672Y5582313D01*
X40510779Y5709605D01*
X40510780Y5709605D01*
X40510780Y5841393D01*
X40510779Y5841394D01*
X40476673Y5968681D01*
X40476672Y5968685D01*
X40410780Y6082813D01*
X40317594Y6175999D01*
X40285740Y6194390D01*
X40203470Y6241889D01*
X40203461Y6241893D01*
X40076174Y6275999D01*
X40076172Y6275999D01*
X39944388Y6275999D01*
X39944386Y6275999D01*
X39817098Y6241893D01*
X39817089Y6241889D01*
X39702965Y6175999D01*
X39649640Y6122673D01*
X39597314Y6100999D01*
X39233499Y6100999D01*
X39214348Y6103520D01*
X39209548Y6104806D01*
X39209547Y6104806D01*
X38743660Y6104806D01*
X38691334Y6126480D01*
X38638008Y6179806D01*
X38523884Y6245696D01*
X38523875Y6245700D01*
X38396588Y6279806D01*
X38396586Y6279806D01*
X38264802Y6279806D01*
X38264800Y6279806D01*
X38137512Y6245700D01*
X38137503Y6245696D01*
X38023379Y6179806D01*
X37930194Y6086621D01*
X37864304Y5972497D01*
X37864300Y5972488D01*
X37830194Y5845201D01*
X36287431Y5845201D01*
X36264392Y5931186D01*
X36198500Y6045314D01*
X36109471Y6134343D01*
X36087797Y6186669D01*
X36109471Y6238995D01*
X36147358Y6259246D01*
X36259412Y6281535D01*
X36385075Y6333586D01*
X36498169Y6409153D01*
X36594347Y6505331D01*
X36669914Y6618425D01*
X36721965Y6744088D01*
X36728218Y6775525D01*
X36739020Y6829826D01*
X36739020Y6829827D01*
X36748501Y6877492D01*
X36748501Y7013506D01*
X36721966Y7146905D01*
X36721965Y7146906D01*
X36721965Y7146910D01*
X36702696Y7193430D01*
X36669916Y7272569D01*
X36669915Y7272571D01*
X36669914Y7272573D01*
X36594347Y7385667D01*
X36498169Y7481845D01*
X36489939Y7487344D01*
X36421374Y7533158D01*
X36389908Y7580251D01*
X36400957Y7635799D01*
X36421373Y7656215D01*
X36503350Y7710989D01*
X36622511Y7830150D01*
X36716134Y7970268D01*
X36742490Y8033895D01*
X38057501Y8033895D01*
X38057501Y7902106D01*
X38091607Y7774819D01*
X38091611Y7774810D01*
X38099239Y7761598D01*
X38157501Y7660686D01*
X38250687Y7567500D01*
X38364815Y7501608D01*
X38492106Y7467501D01*
X38492107Y7467500D01*
X38492109Y7467500D01*
X38496812Y7467500D01*
X38549138Y7445826D01*
X38957439Y7037525D01*
X39043064Y6988089D01*
X39138565Y6962500D01*
X39138566Y6962500D01*
X39138567Y6962500D01*
X40367437Y6962500D01*
X40415187Y6975295D01*
X40462939Y6988090D01*
X40548563Y7037525D01*
X40606538Y7095500D01*
X42721185Y7095500D01*
X42721185Y7095499D01*
X43298193Y7095499D01*
X43278445Y7061295D01*
X43258001Y6984995D01*
X43258001Y6906003D01*
X43278445Y6829703D01*
X43298193Y6795499D01*
X42721185Y6795499D01*
X42740664Y6697569D01*
X42740666Y6697563D01*
X42804741Y6542873D01*
X42897762Y6403656D01*
X43016157Y6285261D01*
X43155374Y6192240D01*
X43310064Y6128165D01*
X43310070Y6128163D01*
X43474285Y6095499D01*
X43658001Y6095499D01*
X43658001Y6645499D01*
X43958001Y6645499D01*
X43958001Y6095499D01*
X44141717Y6095499D01*
X44305931Y6128163D01*
X44305937Y6128165D01*
X44460627Y6192240D01*
X44599844Y6285261D01*
X44599846Y6285262D01*
X44718238Y6403654D01*
X44718239Y6403656D01*
X44811260Y6542873D01*
X44875335Y6697563D01*
X44875337Y6697569D01*
X44894816Y6795499D01*
X44317809Y6795499D01*
X44337557Y6829703D01*
X44358001Y6906003D01*
X44358001Y6984995D01*
X44337557Y7061295D01*
X44317809Y7095499D01*
X44894817Y7095499D01*
X44894816Y7095500D01*
X44875337Y7193430D01*
X44875335Y7193436D01*
X44811260Y7348126D01*
X44718239Y7487343D01*
X44599844Y7605738D01*
X44460627Y7698759D01*
X44305937Y7762834D01*
X44305930Y7762836D01*
X44229617Y7778015D01*
X44182524Y7809481D01*
X44171475Y7865029D01*
X44191725Y7902917D01*
X44292522Y8003713D01*
X44372237Y8141785D01*
X44372803Y8143895D01*
X44406910Y8271186D01*
X44413500Y8295781D01*
X44413501Y8295781D01*
X44413501Y8455217D01*
X44413500Y8455218D01*
X44372238Y8609211D01*
X44363230Y8624813D01*
X44292522Y8747285D01*
X44179787Y8860020D01*
X44074434Y8920845D01*
X44041712Y8939737D01*
X43930555Y8969521D01*
X43885622Y9003999D01*
X43878230Y9060152D01*
X43912708Y9105085D01*
X43949708Y9114999D01*
X44126007Y9114999D01*
X44126009Y9114999D01*
X44259412Y9141535D01*
X44385075Y9193586D01*
X44498169Y9269153D01*
X44594347Y9365331D01*
X44669914Y9478425D01*
X44721965Y9604088D01*
X44748501Y9737491D01*
X44748501Y9873507D01*
X44721965Y10006910D01*
X44669914Y10132573D01*
X44594347Y10245667D01*
X44498169Y10341845D01*
X44385075Y10417412D01*
X44385071Y10417414D01*
X44385069Y10417415D01*
X44385070Y10417415D01*
X44259416Y10469462D01*
X44259406Y10469465D01*
X44170073Y10487234D01*
X44126009Y10495999D01*
X43489993Y10495999D01*
X43452175Y10488477D01*
X43356595Y10469465D01*
X43356585Y10469462D01*
X43230931Y10417415D01*
X43117833Y10341846D01*
X43117832Y10341844D01*
X43021656Y10245668D01*
X43021654Y10245667D01*
X42946085Y10132569D01*
X42894038Y10006915D01*
X42894035Y10006905D01*
X42867501Y9873506D01*
X42867501Y9737493D01*
X42894035Y9604094D01*
X42894038Y9604084D01*
X42946085Y9478430D01*
X42946087Y9478427D01*
X42946088Y9478425D01*
X43021655Y9365331D01*
X43117833Y9269153D01*
X43230927Y9193586D01*
X43230932Y9193584D01*
X43230931Y9193584D01*
X43345055Y9146313D01*
X43356590Y9141535D01*
X43489993Y9114999D01*
X43489995Y9114999D01*
X43666294Y9114999D01*
X43718620Y9093325D01*
X43740294Y9040999D01*
X43718620Y8988673D01*
X43685447Y8969521D01*
X43574289Y8939737D01*
X43436214Y8860020D01*
X43323480Y8747286D01*
X43243763Y8609211D01*
X43202501Y8455218D01*
X43202501Y8295781D01*
X43243763Y8141788D01*
X43323480Y8003713D01*
X43424274Y7902919D01*
X43445948Y7850593D01*
X43424274Y7798267D01*
X43386385Y7778015D01*
X43310070Y7762836D01*
X43310064Y7762834D01*
X43155374Y7698759D01*
X43016157Y7605738D01*
X43016156Y7605736D01*
X42897764Y7487344D01*
X42897762Y7487343D01*
X42804741Y7348126D01*
X42740666Y7193436D01*
X42740664Y7193430D01*
X42721185Y7095500D01*
X40606538Y7095500D01*
X40618476Y7107438D01*
X41066864Y7555826D01*
X41119190Y7577500D01*
X41123895Y7577500D01*
X41123895Y7577501D01*
X41251187Y7611608D01*
X41365315Y7677500D01*
X41458501Y7770686D01*
X41524393Y7884814D01*
X41558500Y8012106D01*
X41558501Y8012106D01*
X41558501Y8143894D01*
X41558500Y8143895D01*
X41524394Y8271182D01*
X41524393Y8271186D01*
X41458501Y8385314D01*
X41365315Y8478500D01*
X41273198Y8531684D01*
X41251191Y8544390D01*
X41251182Y8544394D01*
X41123895Y8578500D01*
X41123893Y8578500D01*
X40992109Y8578500D01*
X40992108Y8578500D01*
X40969658Y8572485D01*
X40913506Y8579879D01*
X40879028Y8624813D01*
X40879028Y8663114D01*
X40908500Y8773104D01*
X40908501Y8773104D01*
X40908501Y8904892D01*
X40908500Y8904893D01*
X40874394Y9032180D01*
X40874393Y9032184D01*
X40808501Y9146312D01*
X40715315Y9239498D01*
X40663951Y9269153D01*
X40601191Y9305388D01*
X40601182Y9305392D01*
X40473895Y9339498D01*
X40473893Y9339498D01*
X40342109Y9339498D01*
X40342107Y9339498D01*
X40214819Y9305392D01*
X40214810Y9305388D01*
X40100686Y9239498D01*
X40007501Y9146313D01*
X39941611Y9032189D01*
X39941607Y9032180D01*
X39907501Y8904893D01*
X39907501Y8829478D01*
X39885827Y8777152D01*
X39674321Y8565647D01*
X39621995Y8543973D01*
X39602844Y8546494D01*
X39517306Y8569412D01*
X39385522Y8569412D01*
X39385520Y8569412D01*
X39258232Y8535306D01*
X39258223Y8535302D01*
X39144099Y8469412D01*
X39050913Y8376226D01*
X39028370Y8337181D01*
X38983436Y8302703D01*
X38927284Y8310097D01*
X38911959Y8321856D01*
X38865315Y8368500D01*
X38751191Y8434390D01*
X38751182Y8434394D01*
X38623895Y8468500D01*
X38623893Y8468500D01*
X38492109Y8468500D01*
X38492107Y8468500D01*
X38364819Y8434394D01*
X38364810Y8434390D01*
X38250686Y8368500D01*
X38157501Y8275315D01*
X38091611Y8161191D01*
X38091607Y8161182D01*
X38057501Y8033895D01*
X36742490Y8033895D01*
X36780624Y8125958D01*
X36813500Y8291238D01*
X36813500Y8309603D01*
X36813501Y8309605D01*
X36813501Y8375498D01*
X36813501Y8441390D01*
X36813499Y8441398D01*
X36813499Y8459757D01*
X36780623Y8625037D01*
X36716134Y8780728D01*
X36622511Y8920847D01*
X36503350Y9040008D01*
X36503341Y9040014D01*
X36421374Y9094783D01*
X36389908Y9141876D01*
X36400957Y9197424D01*
X36421371Y9217839D01*
X36498169Y9269153D01*
X36594347Y9365331D01*
X36669914Y9478425D01*
X36721965Y9604088D01*
X36748501Y9737491D01*
X36748501Y9873507D01*
X36721965Y10006910D01*
X36669914Y10132573D01*
X36594347Y10245667D01*
X36498169Y10341845D01*
X36385075Y10417412D01*
X36385071Y10417414D01*
X36385069Y10417415D01*
X36385070Y10417415D01*
X36259416Y10469462D01*
X36259406Y10469465D01*
X36170073Y10487234D01*
X36126009Y10495999D01*
X35489993Y10495999D01*
X35452175Y10488477D01*
X35356595Y10469465D01*
X35356585Y10469462D01*
X35230931Y10417415D01*
X35117833Y10341846D01*
X35117832Y10341844D01*
X35021656Y10245668D01*
X35021654Y10245667D01*
X34946085Y10132569D01*
X34894038Y10006915D01*
X34894035Y10006905D01*
X34867501Y9873506D01*
X34867501Y9737493D01*
X34894035Y9604094D01*
X34894038Y9604084D01*
X34946085Y9478430D01*
X34946087Y9478427D01*
X34946088Y9478425D01*
X35021655Y9365331D01*
X35117833Y9269153D01*
X35194628Y9217840D01*
X35226093Y9170750D01*
X35215044Y9115201D01*
X35194628Y9094785D01*
X35112657Y9040014D01*
X34993488Y8920845D01*
X34899866Y8780730D01*
X34835377Y8625039D01*
X34835375Y8625032D01*
X34802501Y8459757D01*
X34802501Y8406152D01*
X34802499Y8406146D01*
X34802499Y8291239D01*
X34835375Y8125963D01*
X34835378Y8125953D01*
X34899864Y7970269D01*
X34899865Y7970268D01*
X34899866Y7970266D01*
X34993491Y7830148D01*
X35112650Y7710990D01*
X35112652Y7710988D01*
X35194626Y7656215D01*
X35226092Y7609123D01*
X35215043Y7553574D01*
X35194627Y7533157D01*
X35117830Y7481843D01*
X35021656Y7385668D01*
X35021654Y7385667D01*
X34946085Y7272569D01*
X34894038Y7146915D01*
X34894035Y7146905D01*
X34867501Y7013506D01*
X34867501Y6877493D01*
X34894035Y6744094D01*
X34894038Y6744084D01*
X34946085Y6618430D01*
X34946087Y6618427D01*
X34946088Y6618425D01*
X35021655Y6505331D01*
X35117833Y6409153D01*
X35230927Y6333586D01*
X35230932Y6333584D01*
X35230931Y6333584D01*
X35356585Y6281537D01*
X35356590Y6281535D01*
X35356594Y6281535D01*
X35356595Y6281534D01*
X35451957Y6262565D01*
X35469899Y6250576D01*
X35489835Y6242323D01*
X35492739Y6235315D01*
X35499049Y6231099D01*
X35503258Y6209935D01*
X35511520Y6190002D01*
X35508617Y6182992D01*
X35510098Y6175550D01*
X35489856Y6137672D01*
X35487370Y6135185D01*
X35435049Y6113500D01*
X32619982Y6113500D01*
X32580074Y6127047D01*
X32579514Y6126075D01*
X32557993Y6138500D01*
X32545921Y6145471D01*
X32461190Y6194390D01*
X32461181Y6194394D01*
X32333894Y6228500D01*
X32333892Y6228500D01*
X32202108Y6228500D01*
X32202106Y6228500D01*
X32074818Y6194394D01*
X32074809Y6194390D01*
X31960685Y6128500D01*
X31867500Y6035315D01*
X31801610Y5921191D01*
X31801606Y5921182D01*
X31767500Y5793895D01*
X500500Y5793895D01*
X500500Y18643895D01*
X13647500Y18643895D01*
X13647500Y18512106D01*
X13681606Y18384819D01*
X13681610Y18384810D01*
X13737215Y18288500D01*
X13747500Y18270686D01*
X13840686Y18177500D01*
X13954814Y18111608D01*
X14082105Y18077501D01*
X14082106Y18077500D01*
X14082108Y18077500D01*
X14157521Y18077500D01*
X14209847Y18055826D01*
X19671138Y12594535D01*
X19745361Y12551682D01*
X19828147Y12529500D01*
X19913853Y12529500D01*
X20014034Y12529500D01*
X20066360Y12507826D01*
X20120686Y12453500D01*
X20234814Y12387608D01*
X20362105Y12353501D01*
X20362106Y12353500D01*
X20362108Y12353500D01*
X20493894Y12353500D01*
X20493894Y12353501D01*
X20621186Y12387608D01*
X20735314Y12453500D01*
X20828500Y12546686D01*
X20894392Y12660814D01*
X20928499Y12788106D01*
X20928500Y12788106D01*
X20928500Y12919894D01*
X20928499Y12919895D01*
X20894393Y13047182D01*
X20894392Y13047186D01*
X20828500Y13161314D01*
X20735314Y13254500D01*
X20621190Y13320390D01*
X20621181Y13320394D01*
X20493894Y13354500D01*
X20493892Y13354500D01*
X20362108Y13354500D01*
X20362106Y13354500D01*
X20234818Y13320394D01*
X20234809Y13320390D01*
X20120683Y13254499D01*
X20078581Y13212397D01*
X20026255Y13190723D01*
X19973930Y13212397D01*
X15237432Y17948895D01*
X17682500Y17948895D01*
X17682500Y17817106D01*
X17716606Y17689819D01*
X17716610Y17689810D01*
X17771456Y17594814D01*
X17782500Y17575686D01*
X17875686Y17482500D01*
X17989814Y17416608D01*
X18117105Y17382501D01*
X18117106Y17382500D01*
X18117108Y17382500D01*
X18192521Y17382500D01*
X18244847Y17360826D01*
X20915826Y14689847D01*
X20937500Y14637521D01*
X20937500Y14562106D01*
X20971606Y14434819D01*
X20971607Y14434816D01*
X20971608Y14434814D01*
X21037500Y14320686D01*
X21130686Y14227500D01*
X21244814Y14161608D01*
X21372105Y14127501D01*
X21372106Y14127500D01*
X21372108Y14127500D01*
X21503894Y14127500D01*
X21503894Y14127501D01*
X21631186Y14161608D01*
X21745314Y14227500D01*
X21838500Y14320686D01*
X21904392Y14434814D01*
X21938499Y14562106D01*
X21938500Y14562106D01*
X21938500Y14693894D01*
X21938499Y14693895D01*
X21904393Y14821182D01*
X21904392Y14821186D01*
X21838500Y14935314D01*
X21745314Y15028500D01*
X21672246Y15070686D01*
X21631190Y15094390D01*
X21631181Y15094394D01*
X21503894Y15128500D01*
X21503892Y15128500D01*
X21428479Y15128500D01*
X21376153Y15150174D01*
X21082432Y15443895D01*
X22097500Y15443895D01*
X22097500Y15312106D01*
X22131606Y15184819D01*
X22131607Y15184816D01*
X22131608Y15184814D01*
X22197500Y15070686D01*
X22290686Y14977500D01*
X22404814Y14911608D01*
X22532105Y14877501D01*
X22532106Y14877500D01*
X22532108Y14877500D01*
X23903894Y14877500D01*
X23903894Y14877501D01*
X24031186Y14911608D01*
X24145314Y14977500D01*
X24578640Y15410826D01*
X24630966Y15432500D01*
X25908894Y15432500D01*
X25908894Y15432501D01*
X26036186Y15466608D01*
X26150314Y15532500D01*
X26243500Y15625686D01*
X26309392Y15739814D01*
X26343499Y15867106D01*
X26343500Y15867106D01*
X26343500Y15998894D01*
X26343499Y15998895D01*
X26309393Y16126182D01*
X26309392Y16126186D01*
X26243500Y16240314D01*
X26150314Y16333500D01*
X26036190Y16399390D01*
X26036181Y16399394D01*
X25908894Y16433500D01*
X25908892Y16433500D01*
X24327108Y16433500D01*
X24327106Y16433500D01*
X24199818Y16399394D01*
X24199809Y16399390D01*
X24085685Y16333500D01*
X23652360Y15900174D01*
X23600034Y15878500D01*
X22532106Y15878500D01*
X22404818Y15844394D01*
X22404809Y15844390D01*
X22290685Y15778500D01*
X22197500Y15685315D01*
X22131610Y15571191D01*
X22131606Y15571182D01*
X22097500Y15443895D01*
X21082432Y15443895D01*
X18705174Y17821153D01*
X18691612Y17853895D01*
X19987500Y17853895D01*
X19987500Y17722106D01*
X20021606Y17594819D01*
X20021610Y17594810D01*
X20086452Y17482501D01*
X20087500Y17480686D01*
X20180686Y17387500D01*
X20294814Y17321608D01*
X20422105Y17287501D01*
X20422106Y17287500D01*
X20422108Y17287500D01*
X20553894Y17287500D01*
X20553894Y17287501D01*
X20681186Y17321608D01*
X20795314Y17387500D01*
X20888500Y17480686D01*
X20954392Y17594814D01*
X20988499Y17722106D01*
X20988500Y17722106D01*
X20988500Y17797521D01*
X21010174Y17849847D01*
X22856153Y19695826D01*
X22908479Y19717500D01*
X22983894Y19717500D01*
X22983894Y19717501D01*
X23111186Y19751608D01*
X23225314Y19817500D01*
X23318500Y19910686D01*
X23384392Y20024814D01*
X23418499Y20152106D01*
X23418500Y20152106D01*
X23418500Y20283894D01*
X23418499Y20283895D01*
X23384393Y20411182D01*
X23384392Y20411186D01*
X23318500Y20525314D01*
X23225314Y20618500D01*
X23111190Y20684390D01*
X23111181Y20684394D01*
X22983894Y20718500D01*
X22983892Y20718500D01*
X22852108Y20718500D01*
X22852106Y20718500D01*
X22724818Y20684394D01*
X22724809Y20684390D01*
X22610685Y20618500D01*
X22517500Y20525315D01*
X22451610Y20411191D01*
X22451606Y20411182D01*
X22417500Y20283895D01*
X22417500Y20208479D01*
X22395826Y20156153D01*
X20549847Y18310174D01*
X20497521Y18288500D01*
X20422106Y18288500D01*
X20294818Y18254394D01*
X20294809Y18254390D01*
X20180685Y18188500D01*
X20087500Y18095315D01*
X20021610Y17981191D01*
X20021606Y17981182D01*
X19987500Y17853895D01*
X18691612Y17853895D01*
X18683500Y17873479D01*
X18683500Y17948894D01*
X18683499Y17948895D01*
X18674845Y17981191D01*
X18649392Y18076186D01*
X18583500Y18190314D01*
X18490314Y18283500D01*
X18481654Y18288500D01*
X18376190Y18349390D01*
X18376181Y18349394D01*
X18248894Y18383500D01*
X18248892Y18383500D01*
X18117108Y18383500D01*
X18117106Y18383500D01*
X17989818Y18349394D01*
X17989809Y18349390D01*
X17875685Y18283500D01*
X17782500Y18190315D01*
X17716610Y18076191D01*
X17716606Y18076182D01*
X17682500Y17948895D01*
X15237432Y17948895D01*
X14670174Y18516153D01*
X14648500Y18568479D01*
X14648500Y18643894D01*
X14648499Y18643895D01*
X14614393Y18771182D01*
X14614392Y18771186D01*
X14548500Y18885314D01*
X14455314Y18978500D01*
X14341190Y19044390D01*
X14341181Y19044394D01*
X14213894Y19078500D01*
X14213892Y19078500D01*
X14082108Y19078500D01*
X14082106Y19078500D01*
X13954818Y19044394D01*
X13954809Y19044390D01*
X13840685Y18978500D01*
X13747500Y18885315D01*
X13681610Y18771191D01*
X13681606Y18771182D01*
X13647500Y18643895D01*
X500500Y18643895D01*
X500500Y19141029D01*
X522174Y19193355D01*
X574243Y19215029D01*
X949799Y19216322D01*
X1618089Y19218621D01*
X7542000Y19239000D01*
X7536969Y23703892D01*
X15971500Y23703892D01*
X15971500Y23699804D01*
X15971500Y23572106D01*
X16005606Y23444819D01*
X16005610Y23444810D01*
X16058842Y23352611D01*
X16071500Y23330686D01*
X16164686Y23237500D01*
X16278814Y23171608D01*
X16406105Y23137501D01*
X16406106Y23137500D01*
X16406108Y23137500D01*
X16537894Y23137500D01*
X16537894Y23137501D01*
X16665186Y23171608D01*
X16779314Y23237500D01*
X16872500Y23330686D01*
X16938392Y23444814D01*
X16972499Y23572106D01*
X16972500Y23572106D01*
X16972500Y23702500D01*
X16994174Y23754826D01*
X17046500Y23776500D01*
X17115894Y23776500D01*
X17115894Y23776501D01*
X17243186Y23810608D01*
X17357314Y23876500D01*
X17450500Y23969686D01*
X17516392Y24083814D01*
X17550499Y24211106D01*
X17550500Y24211106D01*
X17550500Y24342894D01*
X17547551Y24353898D01*
X17554942Y24410051D01*
X17566699Y24425374D01*
X18678465Y25537138D01*
X18721317Y25611361D01*
X18721318Y25611362D01*
X18743499Y25694145D01*
X18743500Y25694145D01*
X18743500Y39353895D01*
X19037500Y39353895D01*
X19037500Y31282106D01*
X19071606Y31154819D01*
X19071607Y31154816D01*
X19071608Y31154814D01*
X19137500Y31040686D01*
X21970686Y28207500D01*
X22084814Y28141608D01*
X22084815Y28141608D01*
X22084817Y28141607D01*
X22148460Y28124554D01*
X22212104Y28107501D01*
X22212105Y28107500D01*
X22212107Y28107500D01*
X22212108Y28107500D01*
X25135034Y28107500D01*
X25187360Y28085826D01*
X30382500Y22890686D01*
X30475686Y22797500D01*
X30589814Y22731608D01*
X30589815Y22731608D01*
X30589817Y22731607D01*
X30653460Y22714554D01*
X30717104Y22697501D01*
X30717105Y22697500D01*
X30717107Y22697500D01*
X30848894Y22697500D01*
X30848894Y22697501D01*
X30976186Y22731608D01*
X31090314Y22797500D01*
X31183500Y22890686D01*
X31249392Y23004814D01*
X31283499Y23132106D01*
X31283500Y23132106D01*
X31283500Y23263894D01*
X31283499Y23263895D01*
X31259734Y23352587D01*
X31259734Y23352589D01*
X31249393Y23391182D01*
X31249392Y23391186D01*
X31218430Y23444814D01*
X31183500Y23505314D01*
X31090314Y23598500D01*
X25680314Y29008500D01*
X25661941Y29019108D01*
X29687303Y29019108D01*
X29690210Y28994032D01*
X29690212Y28994026D01*
X29735515Y28891422D01*
X29814823Y28812114D01*
X29917426Y28766811D01*
X29917425Y28766811D01*
X29942512Y28763901D01*
X30040502Y28763901D01*
X30340502Y28763901D01*
X30438494Y28763901D01*
X30463570Y28766809D01*
X30463576Y28766811D01*
X30566180Y28812114D01*
X30645488Y28891422D01*
X30690791Y28994025D01*
X30693702Y29019111D01*
X30693702Y29333000D01*
X30340502Y29333000D01*
X30340502Y28763901D01*
X30040502Y28763901D01*
X30040502Y29333000D01*
X29687303Y29333000D01*
X29687303Y29019108D01*
X25661941Y29019108D01*
X25566190Y29074390D01*
X25566181Y29074394D01*
X25438894Y29108500D01*
X25438892Y29108500D01*
X22515966Y29108500D01*
X22463640Y29130174D01*
X20060174Y31533640D01*
X20038500Y31585966D01*
X20038500Y32942395D01*
X28971500Y32942395D01*
X28971500Y32810606D01*
X29005606Y32683319D01*
X29005610Y32683310D01*
X29023192Y32652857D01*
X29071500Y32569186D01*
X29164686Y32476000D01*
X29278814Y32410108D01*
X29406105Y32376001D01*
X29406106Y32376000D01*
X29406108Y32376000D01*
X29537894Y32376000D01*
X29537894Y32376001D01*
X29665186Y32410108D01*
X29779314Y32476000D01*
X29832640Y32529326D01*
X29884966Y32551000D01*
X30601521Y32551000D01*
X30653847Y32529326D01*
X30843328Y32339845D01*
X30865002Y32287519D01*
X30865002Y31940147D01*
X30869681Y31922685D01*
X30872202Y31903533D01*
X30872202Y31550061D01*
X30880353Y31509079D01*
X30911406Y31462606D01*
X30911408Y31462604D01*
X30957879Y31431552D01*
X30957881Y31431551D01*
X30998861Y31423400D01*
X31165163Y31423401D01*
X31217488Y31401727D01*
X31239162Y31349401D01*
X31229248Y31312402D01*
X31187184Y31239546D01*
X31187179Y31239533D01*
X31170323Y31176627D01*
X31170324Y31176626D01*
X31164999Y31156752D01*
X31164999Y30827500D01*
X31143325Y30775174D01*
X31090999Y30753500D01*
X31011966Y30753500D01*
X30959640Y30775174D01*
X30906314Y30828500D01*
X30792190Y30894390D01*
X30792181Y30894394D01*
X30664894Y30928500D01*
X30664892Y30928500D01*
X30533108Y30928500D01*
X30533106Y30928500D01*
X30405818Y30894394D01*
X30405809Y30894390D01*
X30291685Y30828500D01*
X30198500Y30735315D01*
X30132610Y30621191D01*
X30132606Y30621182D01*
X30098500Y30493895D01*
X30098500Y30493892D01*
X30098500Y30362108D01*
X30116414Y30295253D01*
X30109021Y30239100D01*
X30064088Y30204621D01*
X30044936Y30202100D01*
X29942509Y30202100D01*
X29917433Y30199192D01*
X29917427Y30199190D01*
X29814823Y30153887D01*
X29735515Y30074579D01*
X29690212Y29971976D01*
X29687302Y29946890D01*
X29687302Y29633000D01*
X30693701Y29633000D01*
X30693701Y29878438D01*
X30715375Y29930764D01*
X30748546Y29949915D01*
X30792186Y29961608D01*
X30906314Y30027500D01*
X30959640Y30080826D01*
X31011966Y30102500D01*
X31508349Y30102500D01*
X31508351Y30102500D01*
X31591137Y30124682D01*
X31665360Y30167535D01*
X31703139Y30205314D01*
X31725963Y30228138D01*
X31750964Y30253139D01*
X31779383Y30302362D01*
X31793817Y30327362D01*
X31815999Y30410146D01*
X31816000Y30410146D01*
X31816000Y30500383D01*
X31815999Y30500401D01*
X31815999Y30742433D01*
X31837673Y30794759D01*
X31889999Y30816433D01*
X31942325Y30794759D01*
X32013686Y30723398D01*
X32127814Y30657506D01*
X32255105Y30623399D01*
X32255106Y30623398D01*
X32255108Y30623398D01*
X32386894Y30623398D01*
X32386894Y30623399D01*
X32514186Y30657506D01*
X32628314Y30723398D01*
X32721500Y30816584D01*
X32787392Y30930712D01*
X32821499Y31058004D01*
X32821500Y31058004D01*
X32821500Y31093018D01*
X32843173Y31145343D01*
X32854582Y31156752D01*
X32890362Y31192532D01*
X32890364Y31192533D01*
X32950967Y31253136D01*
X32986577Y31314814D01*
X32993820Y31327359D01*
X33005647Y31371499D01*
X33006682Y31374383D01*
X33023819Y31393263D01*
X33039338Y31413487D01*
X33043088Y31414493D01*
X33044748Y31416320D01*
X33051047Y31416625D01*
X33076337Y31423401D01*
X33382141Y31423401D01*
X33423122Y31431551D01*
X33423122Y31431552D01*
X33426068Y31432137D01*
X33454938Y31432136D01*
X33457878Y31431552D01*
X33457879Y31431551D01*
X33498859Y31423400D01*
X33882140Y31423401D01*
X33882143Y31423401D01*
X33926067Y31432137D01*
X33954939Y31432137D01*
X33957877Y31431553D01*
X33957880Y31431551D01*
X33998860Y31423400D01*
X34200001Y31423401D01*
X34252326Y31401727D01*
X34260738Y31391597D01*
X34340221Y31312114D01*
X34442824Y31266811D01*
X34442823Y31266811D01*
X34467910Y31263901D01*
X34540500Y31263901D01*
X34540500Y31909000D01*
X34562174Y31961326D01*
X34614500Y31983000D01*
X34766500Y31983000D01*
X34818826Y31961326D01*
X34840500Y31909000D01*
X34840500Y31263901D01*
X34913092Y31263901D01*
X34938168Y31266809D01*
X34938174Y31266811D01*
X35040778Y31312114D01*
X35124936Y31396271D01*
X35125980Y31395227D01*
X35128673Y31401727D01*
X35148981Y31410139D01*
X35167397Y31422140D01*
X35180993Y31423401D01*
X35291001Y31423401D01*
X35343327Y31401727D01*
X35365001Y31349401D01*
X35365001Y27403980D01*
X35343327Y27351654D01*
X32332847Y24341174D01*
X32280521Y24319500D01*
X32205106Y24319500D01*
X32077818Y24285394D01*
X32077809Y24285390D01*
X31963685Y24219500D01*
X31870500Y24126315D01*
X31804610Y24012191D01*
X31804606Y24012182D01*
X31770500Y23884895D01*
X31770500Y23753106D01*
X31804606Y23625819D01*
X31804610Y23625810D01*
X31820378Y23598500D01*
X31870500Y23511686D01*
X31963686Y23418500D01*
X32077814Y23352608D01*
X32205105Y23318501D01*
X32205106Y23318500D01*
X32205108Y23318500D01*
X32336894Y23318500D01*
X32336894Y23318501D01*
X32464186Y23352608D01*
X32578314Y23418500D01*
X32606829Y23447017D01*
X32622155Y23458776D01*
X32624784Y23460295D01*
X32633862Y23465535D01*
X32694465Y23526138D01*
X32737318Y23600361D01*
X32759500Y23683147D01*
X32759500Y23698580D01*
X32759814Y23705385D01*
X32760393Y23711657D01*
X32771500Y23753108D01*
X32771500Y23831928D01*
X32771814Y23835328D01*
X32783540Y23857593D01*
X32793173Y23880848D01*
X35890360Y26978035D01*
X35890363Y26978036D01*
X35950966Y27038639D01*
X35986024Y27099361D01*
X35993819Y27112862D01*
X36016001Y27195646D01*
X36016002Y27195646D01*
X36016002Y27285883D01*
X36016001Y27285901D01*
X36016001Y29019108D01*
X43187301Y29019108D01*
X43190208Y28994032D01*
X43190210Y28994026D01*
X43235513Y28891422D01*
X43314821Y28812114D01*
X43417424Y28766811D01*
X43417423Y28766811D01*
X43442510Y28763901D01*
X43540500Y28763901D01*
X43840500Y28763901D01*
X43938492Y28763901D01*
X43963568Y28766809D01*
X43963574Y28766811D01*
X44066178Y28812114D01*
X44145486Y28891422D01*
X44190789Y28994025D01*
X44193700Y29019111D01*
X44193700Y29333000D01*
X43840500Y29333000D01*
X43840500Y28763901D01*
X43540500Y28763901D01*
X43540500Y29333000D01*
X43187301Y29333000D01*
X43187301Y29019108D01*
X36016001Y29019108D01*
X36016001Y31349401D01*
X36037675Y31401727D01*
X36090001Y31423401D01*
X36382143Y31423401D01*
X36426067Y31432137D01*
X36454939Y31432137D01*
X36457877Y31431553D01*
X36457880Y31431551D01*
X36498860Y31423400D01*
X36882141Y31423401D01*
X36882143Y31423401D01*
X36901201Y31427192D01*
X36923122Y31431551D01*
X36923122Y31431552D01*
X36926066Y31432137D01*
X36954939Y31432137D01*
X36957877Y31431553D01*
X36957880Y31431551D01*
X36998860Y31423400D01*
X37382141Y31423401D01*
X37382144Y31423401D01*
X37426068Y31432137D01*
X37454940Y31432137D01*
X37457878Y31431553D01*
X37457881Y31431551D01*
X37498861Y31423400D01*
X37882142Y31423401D01*
X37923123Y31431551D01*
X37923123Y31431552D01*
X37926069Y31432137D01*
X37954939Y31432136D01*
X37957879Y31431552D01*
X37957880Y31431551D01*
X37998860Y31423400D01*
X38382141Y31423401D01*
X38423122Y31431551D01*
X38423122Y31431552D01*
X38426068Y31432137D01*
X38454938Y31432136D01*
X38457878Y31431552D01*
X38457879Y31431551D01*
X38498859Y31423400D01*
X38700003Y31423401D01*
X38752328Y31401727D01*
X38760740Y31391597D01*
X38840223Y31312114D01*
X38942826Y31266811D01*
X38942825Y31266811D01*
X38967912Y31263901D01*
X39040502Y31263901D01*
X39040502Y31909000D01*
X39062176Y31961326D01*
X39114502Y31983000D01*
X39266502Y31983000D01*
X39318828Y31961326D01*
X39340502Y31909000D01*
X39340502Y31263901D01*
X39413094Y31263901D01*
X39438170Y31266809D01*
X39438176Y31266811D01*
X39540780Y31312114D01*
X39624938Y31396271D01*
X39626028Y31395181D01*
X39667399Y31422140D01*
X39680995Y31423401D01*
X39882141Y31423401D01*
X39882144Y31423401D01*
X39926068Y31432137D01*
X39954940Y31432137D01*
X39957878Y31431553D01*
X39957881Y31431551D01*
X39998861Y31423400D01*
X40382142Y31423401D01*
X40423123Y31431551D01*
X40423123Y31431552D01*
X40426069Y31432137D01*
X40454939Y31432136D01*
X40457879Y31431552D01*
X40457880Y31431551D01*
X40498860Y31423400D01*
X40882141Y31423401D01*
X40923122Y31431551D01*
X40923122Y31431552D01*
X40926068Y31432137D01*
X40954938Y31432136D01*
X40957878Y31431552D01*
X40957879Y31431551D01*
X40998859Y31423400D01*
X41254421Y31423401D01*
X41306747Y31401727D01*
X41328421Y31349401D01*
X41306747Y31297075D01*
X40969768Y30960097D01*
X40954445Y30948339D01*
X40928684Y30933465D01*
X40868080Y30872860D01*
X40380532Y30385312D01*
X40333544Y30303926D01*
X40321785Y30288601D01*
X40245500Y30212315D01*
X40179610Y30098191D01*
X40179606Y30098182D01*
X40145500Y29970895D01*
X40145500Y29839106D01*
X40179606Y29711819D01*
X40179610Y29711810D01*
X40225111Y29633000D01*
X40245500Y29597686D01*
X40338686Y29504500D01*
X40452814Y29438608D01*
X40580105Y29404501D01*
X40580106Y29404500D01*
X40580108Y29404500D01*
X40711894Y29404500D01*
X40711894Y29404501D01*
X40839186Y29438608D01*
X40953314Y29504500D01*
X41046500Y29597686D01*
X41112392Y29711814D01*
X41146499Y29839106D01*
X41146500Y29839106D01*
X41146500Y29946890D01*
X43187300Y29946890D01*
X43187300Y29633000D01*
X43540500Y29633000D01*
X43840500Y29633000D01*
X44193699Y29633000D01*
X44193699Y29946893D01*
X44190791Y29971969D01*
X44190789Y29971975D01*
X44145486Y30074579D01*
X44066178Y30153887D01*
X43963575Y30199190D01*
X43963576Y30199190D01*
X43938489Y30202100D01*
X43840500Y30202100D01*
X43840500Y29633000D01*
X43540500Y29633000D01*
X43540500Y30202100D01*
X43442507Y30202100D01*
X43417431Y30199192D01*
X43417425Y30199190D01*
X43314821Y30153887D01*
X43235513Y30074579D01*
X43190210Y29971976D01*
X43187300Y29946890D01*
X41146500Y29946890D01*
X41146500Y29970891D01*
X41146210Y29971975D01*
X41112392Y30098186D01*
X41104790Y30111353D01*
X41097397Y30167505D01*
X41116548Y30200677D01*
X41301777Y30385906D01*
X41317098Y30397661D01*
X41342862Y30412535D01*
X41890361Y30960036D01*
X41890364Y30960037D01*
X41950967Y31020640D01*
X41951673Y31021864D01*
X41956008Y31026231D01*
X41978107Y31035484D01*
X41998856Y31047469D01*
X42004199Y31046407D01*
X42008251Y31048103D01*
X42020109Y31043244D01*
X42045532Y31038190D01*
X42091892Y31011424D01*
X42121063Y30994582D01*
X42203849Y30972400D01*
X42203851Y30972400D01*
X43711752Y30972400D01*
X43711753Y30972400D01*
X43794539Y30994582D01*
X43796452Y30995688D01*
X43799741Y30997585D01*
X43836742Y31007500D01*
X43934894Y31007500D01*
X43934894Y31007501D01*
X44062186Y31041608D01*
X44176314Y31107500D01*
X44269500Y31200686D01*
X44333833Y31312114D01*
X44335391Y31314812D01*
X44335393Y31314819D01*
X44344659Y31349401D01*
X44369499Y31442106D01*
X44369500Y31442106D01*
X44369500Y31573894D01*
X44369499Y31573895D01*
X44335393Y31701182D01*
X44335392Y31701186D01*
X44269500Y31815314D01*
X44176314Y31908500D01*
X44168045Y31913274D01*
X44062190Y31974390D01*
X44062181Y31974394D01*
X43934894Y32008500D01*
X43934892Y32008500D01*
X43803108Y32008500D01*
X43803106Y32008500D01*
X43675818Y31974394D01*
X43675809Y31974390D01*
X43561685Y31908500D01*
X43468500Y31815315D01*
X43402610Y31701191D01*
X43402607Y31701184D01*
X43396461Y31678246D01*
X43361982Y31633314D01*
X43324983Y31623400D01*
X43082802Y31623400D01*
X43030476Y31645074D01*
X43008802Y31697400D01*
X43008801Y32415940D01*
X43008801Y32415941D01*
X43000651Y32456921D01*
X42969597Y32503395D01*
X42969595Y32503397D01*
X42923124Y32534449D01*
X42902633Y32538525D01*
X42882143Y32542600D01*
X42882142Y32542600D01*
X42498861Y32542600D01*
X42454934Y32533863D01*
X42426064Y32533864D01*
X42382142Y32542600D01*
X42123724Y32542600D01*
X42071398Y32564274D01*
X42049724Y32616600D01*
X42059639Y32653601D01*
X42063826Y32660853D01*
X42079392Y32687814D01*
X42113499Y32815106D01*
X42113500Y32815106D01*
X42113500Y32946894D01*
X42113499Y32946895D01*
X42103329Y32984849D01*
X42079392Y33074186D01*
X42013500Y33188314D01*
X41920314Y33281500D01*
X41891973Y33297863D01*
X41806190Y33347390D01*
X41806181Y33347394D01*
X41678894Y33381500D01*
X41678892Y33381500D01*
X41547108Y33381500D01*
X41547106Y33381500D01*
X41419818Y33347394D01*
X41419809Y33347390D01*
X41305685Y33281500D01*
X41252360Y33228174D01*
X41200034Y33206500D01*
X40675647Y33206500D01*
X40592868Y33184320D01*
X40592859Y33184316D01*
X40544365Y33156317D01*
X40518639Y33141465D01*
X40430033Y33052858D01*
X40387185Y32978643D01*
X40387181Y32978634D01*
X40378676Y32946893D01*
X40378677Y32946892D01*
X40365001Y32895852D01*
X40365001Y32616600D01*
X40343327Y32564274D01*
X40291001Y32542600D01*
X39998861Y32542600D01*
X39954934Y32533863D01*
X39926064Y32533864D01*
X39882142Y32542600D01*
X39681001Y32542600D01*
X39628675Y32564274D01*
X39620260Y32574407D01*
X39540780Y32653887D01*
X39438177Y32699190D01*
X39438178Y32699190D01*
X39413091Y32702100D01*
X39340001Y32702100D01*
X39287675Y32723774D01*
X39266001Y32776100D01*
X39266001Y32844015D01*
X39266000Y32844016D01*
X39249880Y32904176D01*
X39231893Y32971307D01*
X39166001Y33085435D01*
X39072815Y33178621D01*
X39070742Y33179818D01*
X38958691Y33244511D01*
X38958682Y33244515D01*
X38831395Y33278621D01*
X38831393Y33278621D01*
X38699609Y33278621D01*
X38609153Y33254384D01*
X38553001Y33261777D01*
X38518522Y33306711D01*
X38516001Y33325863D01*
X38516001Y35457535D01*
X38537675Y35509861D01*
X38598500Y35570686D01*
X38664392Y35684814D01*
X38698499Y35812106D01*
X38698500Y35812106D01*
X38698500Y35943894D01*
X38698499Y35943895D01*
X38664393Y36071182D01*
X38664392Y36071186D01*
X38598500Y36185314D01*
X38505314Y36278500D01*
X38391190Y36344390D01*
X38391181Y36344394D01*
X38263896Y36378500D01*
X38260125Y36378996D01*
X38211076Y36407314D01*
X38195784Y36452363D01*
X38195784Y36518894D01*
X38195783Y36518895D01*
X38161677Y36646182D01*
X38161676Y36646186D01*
X38095784Y36760314D01*
X38002598Y36853500D01*
X37888474Y36919390D01*
X37888465Y36919394D01*
X37761178Y36953500D01*
X37756369Y36954133D01*
X37756685Y36956538D01*
X37711693Y36975174D01*
X37690019Y37027500D01*
X37690019Y37093894D01*
X37690018Y37093895D01*
X37655912Y37221182D01*
X37655911Y37221186D01*
X37590019Y37335314D01*
X37496833Y37428500D01*
X37382709Y37494390D01*
X37382700Y37494394D01*
X37254409Y37528770D01*
X37209476Y37563249D01*
X37199562Y37600248D01*
X37199562Y37668894D01*
X37199561Y37668895D01*
X37165455Y37796182D01*
X37165454Y37796186D01*
X37099562Y37910314D01*
X37006376Y38003500D01*
X36892252Y38069390D01*
X36892243Y38069394D01*
X36764956Y38103500D01*
X36764954Y38103500D01*
X36696838Y38103500D01*
X36644512Y38125174D01*
X36622838Y38177500D01*
X36622838Y38243894D01*
X36622837Y38243895D01*
X36588731Y38371182D01*
X36588730Y38371186D01*
X36522838Y38485314D01*
X36429652Y38578500D01*
X36315528Y38644390D01*
X36315519Y38644394D01*
X36188232Y38678500D01*
X36188230Y38678500D01*
X36056446Y38678500D01*
X36056444Y38678500D01*
X35929156Y38644394D01*
X35929147Y38644390D01*
X35815023Y38578500D01*
X35721838Y38485315D01*
X35655948Y38371191D01*
X35655944Y38371182D01*
X35621838Y38243895D01*
X35621838Y38112106D01*
X35655944Y37984819D01*
X35655948Y37984810D01*
X35721838Y37870686D01*
X35775164Y37817360D01*
X35796838Y37765034D01*
X35796838Y37407989D01*
X35796838Y37322283D01*
X35819020Y37239497D01*
X35855086Y37177028D01*
X35865000Y37140030D01*
X35865000Y34478588D01*
X35843326Y34426262D01*
X35791000Y34404588D01*
X35771847Y34407110D01*
X35665894Y34435500D01*
X35665892Y34435500D01*
X35534108Y34435500D01*
X35534106Y34435500D01*
X35406818Y34401394D01*
X35406809Y34401390D01*
X35292685Y34335500D01*
X35199500Y34242315D01*
X35133610Y34128191D01*
X35133606Y34128182D01*
X35099500Y34000895D01*
X35099500Y33942480D01*
X35077826Y33890154D01*
X34762163Y33574492D01*
X34728991Y33555340D01*
X34687863Y33544319D01*
X34613637Y33501465D01*
X34553033Y33440860D01*
X33930033Y32817860D01*
X33887183Y32743642D01*
X33887182Y32743638D01*
X33879096Y32713464D01*
X33879097Y32713463D01*
X33876338Y32703164D01*
X33865001Y32660853D01*
X33865001Y32616600D01*
X33843327Y32564274D01*
X33791001Y32542600D01*
X33590001Y32542600D01*
X33537675Y32564274D01*
X33516001Y32616600D01*
X33516001Y32932523D01*
X33537674Y32984848D01*
X33994652Y33441827D01*
X34046978Y33463500D01*
X34157894Y33463500D01*
X34157894Y33463501D01*
X34285186Y33497608D01*
X34399314Y33563500D01*
X34492500Y33656686D01*
X34558392Y33770814D01*
X34592499Y33898106D01*
X34592500Y33898106D01*
X34592500Y34029894D01*
X34592499Y34029895D01*
X34566163Y34128182D01*
X34558392Y34157186D01*
X34492500Y34271314D01*
X34399314Y34364500D01*
X34335419Y34401390D01*
X34285190Y34430390D01*
X34285181Y34430394D01*
X34157894Y34464500D01*
X34157892Y34464500D01*
X34026108Y34464500D01*
X34026106Y34464500D01*
X33898818Y34430394D01*
X33898809Y34430390D01*
X33784685Y34364500D01*
X33691500Y34271315D01*
X33625610Y34157191D01*
X33625606Y34157182D01*
X33591500Y34029895D01*
X33591500Y33989979D01*
X33569826Y33937653D01*
X32930033Y33297860D01*
X32887185Y33223645D01*
X32887181Y33223636D01*
X32868217Y33152864D01*
X32868218Y33152863D01*
X32865001Y33140857D01*
X32865001Y32616600D01*
X32843327Y32564274D01*
X32791001Y32542600D01*
X32590000Y32542600D01*
X32537674Y32564274D01*
X32516000Y32616600D01*
X32516000Y32904176D01*
X32516001Y32904189D01*
X32516001Y32995854D01*
X32516000Y32995855D01*
X32493819Y33078635D01*
X32493817Y33078640D01*
X32472616Y33115361D01*
X32460141Y33136968D01*
X32450965Y33152862D01*
X32390362Y33213465D01*
X32387783Y33216044D01*
X32387772Y33216054D01*
X31661174Y33942653D01*
X31639500Y33994979D01*
X31639500Y34020894D01*
X31639499Y34020895D01*
X31637087Y34029895D01*
X31605392Y34148186D01*
X31539500Y34262314D01*
X31446314Y34355500D01*
X31430726Y34364500D01*
X31332190Y34421390D01*
X31332181Y34421394D01*
X31204894Y34455500D01*
X31204892Y34455500D01*
X31073108Y34455500D01*
X31073106Y34455500D01*
X30945818Y34421394D01*
X30945809Y34421390D01*
X30831685Y34355500D01*
X30738500Y34262315D01*
X30672610Y34148191D01*
X30672606Y34148182D01*
X30638500Y34020895D01*
X30638500Y33889106D01*
X30672606Y33761819D01*
X30672607Y33761816D01*
X30672608Y33761814D01*
X30738500Y33647686D01*
X30831686Y33554500D01*
X30945814Y33488608D01*
X31073105Y33454501D01*
X31073106Y33454500D01*
X31198021Y33454500D01*
X31250347Y33432826D01*
X31843326Y32839848D01*
X31865000Y32787522D01*
X31865000Y32616600D01*
X31843326Y32564274D01*
X31791000Y32542600D01*
X31557350Y32542600D01*
X31505024Y32564274D01*
X31493264Y32579600D01*
X31450969Y32652857D01*
X31450968Y32652858D01*
X31450967Y32652860D01*
X30966862Y33136965D01*
X30966859Y33136967D01*
X30966858Y33136968D01*
X30892643Y33179816D01*
X30892641Y33179817D01*
X30892640Y33179818D01*
X30892639Y33179818D01*
X30809853Y33202000D01*
X30809851Y33202000D01*
X29884966Y33202000D01*
X29832640Y33223674D01*
X29779314Y33277000D01*
X29665190Y33342890D01*
X29665181Y33342894D01*
X29537894Y33377000D01*
X29537892Y33377000D01*
X29406108Y33377000D01*
X29406106Y33377000D01*
X29278818Y33342894D01*
X29278809Y33342890D01*
X29164685Y33277000D01*
X29071500Y33183815D01*
X29005610Y33069691D01*
X29005606Y33069682D01*
X28971500Y32942395D01*
X20038500Y32942395D01*
X20038500Y39353894D01*
X20038499Y39353895D01*
X20004393Y39481182D01*
X20004392Y39481186D01*
X19938500Y39595314D01*
X19845314Y39688500D01*
X19731190Y39754390D01*
X19731181Y39754394D01*
X19603894Y39788500D01*
X19603892Y39788500D01*
X19472108Y39788500D01*
X19472106Y39788500D01*
X19344818Y39754394D01*
X19344809Y39754390D01*
X19230685Y39688500D01*
X19137500Y39595315D01*
X19071610Y39481191D01*
X19071606Y39481182D01*
X19037500Y39353895D01*
X18743500Y39353895D01*
X18743500Y40542522D01*
X18765173Y40594847D01*
X19474465Y41304138D01*
X19517318Y41378361D01*
X19539500Y41461147D01*
X19539500Y41546853D01*
X19539500Y42001613D01*
X19561174Y42053939D01*
X19576500Y42065699D01*
X19588280Y42072500D01*
X19633314Y42098500D01*
X19726500Y42191686D01*
X19792392Y42305814D01*
X19826499Y42433106D01*
X19826500Y42433106D01*
X19826500Y42564894D01*
X19826499Y42564895D01*
X19792393Y42692182D01*
X19792392Y42692186D01*
X19726500Y42806314D01*
X19633314Y42899500D01*
X19564223Y42939390D01*
X19519190Y42965390D01*
X19519181Y42965394D01*
X19391894Y42999500D01*
X19391892Y42999500D01*
X19260108Y42999500D01*
X19260106Y42999500D01*
X19132818Y42965394D01*
X19132809Y42965390D01*
X19018685Y42899500D01*
X18925500Y42806315D01*
X18859610Y42692191D01*
X18859606Y42692182D01*
X18825500Y42564895D01*
X18825500Y42433106D01*
X18859606Y42305819D01*
X18859611Y42305808D01*
X18878585Y42272945D01*
X18888500Y42235944D01*
X18888500Y41669479D01*
X18866826Y41617153D01*
X18157532Y40907859D01*
X18114681Y40833639D01*
X18114682Y40833638D01*
X18092500Y40750853D01*
X18092500Y25902479D01*
X18070826Y25850153D01*
X17017341Y24796669D01*
X16984168Y24777517D01*
X16856818Y24743394D01*
X16856809Y24743390D01*
X16746500Y24679702D01*
X16690348Y24672309D01*
X16645414Y24706788D01*
X16635500Y24743788D01*
X16635500Y26411521D01*
X16657174Y26463847D01*
X16895966Y26702639D01*
X17218465Y27025138D01*
X17245631Y27072194D01*
X17261317Y27099360D01*
X17261317Y27099362D01*
X17261318Y27099362D01*
X17283499Y27182145D01*
X17283500Y27182145D01*
X17283500Y41398522D01*
X17305174Y41450848D01*
X17805152Y41950826D01*
X17857478Y41972500D01*
X17913894Y41972500D01*
X17913894Y41972501D01*
X18041186Y42006608D01*
X18155314Y42072500D01*
X18248500Y42165686D01*
X18314392Y42279814D01*
X18348499Y42407106D01*
X18348500Y42407106D01*
X18348500Y42538894D01*
X18348499Y42538895D01*
X18341532Y42564895D01*
X18314392Y42666186D01*
X18248500Y42780314D01*
X18155314Y42873500D01*
X18110281Y42899500D01*
X18041190Y42939390D01*
X18041181Y42939394D01*
X17913894Y42973500D01*
X17913892Y42973500D01*
X17782108Y42973500D01*
X17782106Y42973500D01*
X17654818Y42939394D01*
X17654809Y42939390D01*
X17540685Y42873500D01*
X17447500Y42780315D01*
X17381610Y42666191D01*
X17381606Y42666182D01*
X17347500Y42538895D01*
X17347500Y42444479D01*
X17325826Y42392153D01*
X16697532Y41763859D01*
X16654681Y41689639D01*
X16654682Y41689638D01*
X16632500Y41606853D01*
X16632500Y27390479D01*
X16610826Y27338153D01*
X16049532Y26776859D01*
X16006681Y26702639D01*
X16006682Y26702638D01*
X15984500Y26619853D01*
X15984500Y23779148D01*
X15984939Y23775813D01*
X15983239Y23749878D01*
X15983445Y23748538D01*
X15983255Y23747766D01*
X15971500Y23703892D01*
X7536969Y23703892D01*
X7527000Y32551000D01*
X7526999Y32551001D01*
X574451Y32555646D01*
X522139Y32577355D01*
X500500Y32629646D01*
X500500Y33905482D01*
X14390913Y33905482D01*
X14390913Y33773693D01*
X14425019Y33646406D01*
X14425020Y33646403D01*
X14425021Y33646401D01*
X14490913Y33532273D01*
X14584099Y33439087D01*
X14698227Y33373195D01*
X14825518Y33339088D01*
X14825519Y33339087D01*
X14825521Y33339087D01*
X14900934Y33339087D01*
X14953260Y33317413D01*
X15042826Y33227847D01*
X15064500Y33175521D01*
X15064500Y30310966D01*
X15042826Y30258640D01*
X14989500Y30205315D01*
X14923610Y30091191D01*
X14923606Y30091182D01*
X14889500Y29963895D01*
X14889500Y29832106D01*
X14923606Y29704819D01*
X14923607Y29704816D01*
X14923608Y29704814D01*
X14989500Y29590686D01*
X15082686Y29497500D01*
X15196814Y29431608D01*
X15324105Y29397501D01*
X15324106Y29397500D01*
X15324108Y29397500D01*
X15455894Y29397500D01*
X15455894Y29397501D01*
X15583186Y29431608D01*
X15697314Y29497500D01*
X15790500Y29590686D01*
X15856392Y29704814D01*
X15890499Y29832106D01*
X15890500Y29832106D01*
X15890500Y29963894D01*
X15890499Y29963895D01*
X15888624Y29970891D01*
X15856392Y30091186D01*
X15790500Y30205314D01*
X15737174Y30258640D01*
X15715500Y30310966D01*
X15715500Y33383855D01*
X15715499Y33383856D01*
X15700224Y33440862D01*
X15693318Y33466638D01*
X15650465Y33540862D01*
X15589862Y33601465D01*
X15413587Y33777740D01*
X15391913Y33830066D01*
X15391913Y33905481D01*
X15391912Y33905482D01*
X15377484Y33959327D01*
X15357805Y34032773D01*
X15291913Y34146901D01*
X15198727Y34240087D01*
X15160227Y34262315D01*
X15084603Y34305977D01*
X15084594Y34305981D01*
X14957307Y34340087D01*
X14957305Y34340087D01*
X14825521Y34340087D01*
X14825519Y34340087D01*
X14698231Y34305981D01*
X14698222Y34305977D01*
X14584098Y34240087D01*
X14490913Y34146902D01*
X14425023Y34032778D01*
X14425019Y34032769D01*
X14390913Y33905482D01*
X500500Y33905482D01*
X500500Y50585500D01*
X522174Y50637826D01*
X574500Y50659500D01*
X47088500Y50659500D01*
X47140826Y50637826D01*
G37*
%TD.AperFunction*%
%TD*%
M02*
