%TF.GenerationSoftware,KiCad,Pcbnew,9.0.6*%
%TF.CreationDate,2025-12-10T11:17:10+01:00*%
%TF.ProjectId,CO2Monitor,434f324d-6f6e-4697-946f-722e6b696361,rev?*%
%TF.SameCoordinates,PX83b1de0PY8351ad0*%
%TF.FileFunction,Drillmap*%
%TF.FilePolarity,Positive*%
%FSLAX45Y45*%
G04 Gerber Fmt 4.5, Leading zero omitted, Abs format (unit mm)*
G04 Created by KiCad (PCBNEW 9.0.6) date 2025-12-10 11:17:10*
%MOMM*%
%LPD*%
G01*
G04 APERTURE LIST*
%ADD10C,0.050000*%
%ADD11C,0.010000*%
%ADD12C,0.200000*%
%ADD13C,0.100000*%
%ADD14C,0.320000*%
G04 APERTURE END LIST*
D10*
X0Y5116000D02*
X4766300Y5116000D01*
X4766300Y0D01*
X0Y0D01*
X0Y5116000D01*
D11*
X3565800Y873050D02*
X3595800Y873050D01*
X3595800Y802050D02*
X3565800Y802050D01*
X3530300Y837550D02*
G75*
G02*
X3565800Y873050I35500J0D01*
G01*
X3565800Y802050D02*
G75*
G02*
X3530300Y837550I0J35500D01*
G01*
X3595800Y873050D02*
G75*
G02*
X3631300Y837550I0J-35500D01*
G01*
X3631300Y837550D02*
G75*
G02*
X3595800Y802050I-35500J0D01*
G01*
D12*
D13*
X65000Y5051000D02*
X95000Y5021000D01*
X95000Y5051000D02*
X65000Y5021000D01*
X65000Y95000D02*
X95000Y65000D01*
X95000Y95000D02*
X65000Y65000D01*
X65100Y4059000D02*
X95100Y4029000D01*
X95100Y4059000D02*
X65100Y4029000D01*
X65100Y1085400D02*
X95100Y1055400D01*
X95100Y1085400D02*
X65100Y1055400D01*
X795900Y1878600D02*
X825900Y1848600D01*
X825900Y1878600D02*
X795900Y1848600D01*
X1056800Y1659800D02*
X1086800Y1629800D01*
X1086800Y1659800D02*
X1056800Y1629800D01*
X1192300Y2504800D02*
X1222300Y2474800D01*
X1222300Y2504800D02*
X1192300Y2474800D01*
X1192700Y2311800D02*
X1222700Y2281800D01*
X1222700Y2311800D02*
X1192700Y2281800D01*
X1193300Y2903200D02*
X1223300Y2873200D01*
X1223300Y2903200D02*
X1193300Y2873200D01*
X1193300Y2702900D02*
X1223300Y2672900D01*
X1223300Y2702900D02*
X1193300Y2672900D01*
X1216275Y95200D02*
X1246275Y65200D01*
X1246275Y95200D02*
X1216275Y65200D01*
X1216575Y5051000D02*
X1246575Y5021000D01*
X1246575Y5051000D02*
X1216575Y5021000D01*
X1354800Y3894800D02*
X1384800Y3864800D01*
X1384800Y3894800D02*
X1354800Y3864800D01*
X1388900Y2900900D02*
X1418900Y2870900D01*
X1418900Y2900900D02*
X1388900Y2870900D01*
X1389100Y2311800D02*
X1419100Y2281800D01*
X1419100Y2311800D02*
X1389100Y2281800D01*
X1389900Y2703500D02*
X1419900Y2673500D01*
X1419900Y2703500D02*
X1389900Y2673500D01*
X1390600Y2505200D02*
X1420600Y2475200D01*
X1420600Y2505200D02*
X1390600Y2475200D01*
X1399800Y1872800D02*
X1429800Y1842800D01*
X1429800Y1872800D02*
X1399800Y1842800D01*
X1474141Y3398959D02*
X1504141Y3368959D01*
X1504141Y3398959D02*
X1474141Y3368959D01*
X1524000Y3004800D02*
X1554000Y2974800D01*
X1554000Y3004800D02*
X1524000Y2974800D01*
X1632200Y2378800D02*
X1662200Y2348800D01*
X1662200Y2378800D02*
X1632200Y2348800D01*
X1690000Y2442700D02*
X1720000Y2412700D01*
X1720000Y2442700D02*
X1690000Y2412700D01*
X1744800Y1059800D02*
X1774800Y1029800D01*
X1774800Y1059800D02*
X1744800Y1029800D01*
X1769800Y4262300D02*
X1799800Y4232300D01*
X1799800Y4262300D02*
X1769800Y4232300D01*
X1803300Y1803300D02*
X1833300Y1773300D01*
X1833300Y1803300D02*
X1803300Y1773300D01*
X1844800Y4685800D02*
X1874800Y4655800D01*
X1874800Y4685800D02*
X1844800Y4655800D01*
X1916800Y2009800D02*
X1946800Y1979800D01*
X1946800Y2009800D02*
X1916800Y1979800D01*
X1917600Y4264900D02*
X1947600Y4234900D01*
X1947600Y4264900D02*
X1917600Y4234900D01*
X1938800Y3943800D02*
X1968800Y3913800D01*
X1968800Y3943800D02*
X1938800Y3913800D01*
X2027800Y1300400D02*
X2057800Y1270400D01*
X2057800Y1300400D02*
X2027800Y1270400D01*
X2033800Y1793800D02*
X2063800Y1763800D01*
X2063800Y1793800D02*
X2033800Y1763800D01*
X2128800Y1477800D02*
X2158800Y1447800D01*
X2158800Y1477800D02*
X2128800Y1447800D01*
X2212800Y2875800D02*
X2242800Y2845800D01*
X2242800Y2875800D02*
X2212800Y2845800D01*
X2239800Y3299800D02*
X2269800Y3269800D01*
X2269800Y3299800D02*
X2239800Y3269800D01*
X2244800Y1552800D02*
X2274800Y1522800D01*
X2274800Y1552800D02*
X2244800Y1522800D01*
X2256800Y249800D02*
X2286800Y219800D01*
X2286800Y249800D02*
X2256800Y219800D01*
X2276800Y2036800D02*
X2306800Y2006800D01*
X2306800Y2036800D02*
X2276800Y2006800D01*
X2363800Y996800D02*
X2393800Y966800D01*
X2393800Y996800D02*
X2363800Y966800D01*
X2367900Y95000D02*
X2397900Y65000D01*
X2397900Y95000D02*
X2367900Y65000D01*
X2368150Y5051000D02*
X2398150Y5021000D01*
X2398150Y5051000D02*
X2368150Y5021000D01*
X2569300Y1608300D02*
X2599300Y1578300D01*
X2599300Y1608300D02*
X2569300Y1578300D01*
X2832800Y911800D02*
X2862800Y881800D01*
X2862800Y911800D02*
X2832800Y881800D01*
X2889800Y3496800D02*
X2919800Y3466800D01*
X2919800Y3496800D02*
X2889800Y3466800D01*
X2932200Y3302650D02*
X2962200Y3272650D01*
X2962200Y3302650D02*
X2932200Y3272650D01*
X3004050Y2963300D02*
X3034050Y2933300D01*
X3034050Y2963300D02*
X3004050Y2933300D01*
X3044900Y3057800D02*
X3074900Y3027800D01*
X3074900Y3057800D02*
X3044900Y3027800D01*
X3063300Y2334800D02*
X3093300Y2304800D01*
X3093300Y2334800D02*
X3063300Y2304800D01*
X3098900Y3410500D02*
X3128900Y3380500D01*
X3128900Y3410500D02*
X3098900Y3380500D01*
X3211800Y587800D02*
X3241800Y557800D01*
X3241800Y587800D02*
X3211800Y557800D01*
X3212100Y2396900D02*
X3242100Y2366900D01*
X3242100Y2396900D02*
X3212100Y2366900D01*
X3217100Y3127390D02*
X3247100Y3097390D01*
X3247100Y3127390D02*
X3217100Y3097390D01*
X3378800Y1864800D02*
X3408800Y1834800D01*
X3408800Y1864800D02*
X3378800Y1834800D01*
X3394200Y3411400D02*
X3424200Y3381400D01*
X3424200Y3411400D02*
X3394200Y3381400D01*
X3519725Y5051000D02*
X3549725Y5021000D01*
X3549725Y5051000D02*
X3519725Y5021000D01*
X3520100Y95000D02*
X3550100Y65000D01*
X3550100Y95000D02*
X3520100Y65000D01*
X3529800Y1153800D02*
X3559800Y1123800D01*
X3559800Y1153800D02*
X3529800Y1123800D01*
X3545000Y3408500D02*
X3575000Y3378500D01*
X3575000Y3408500D02*
X3545000Y3378500D01*
X3564800Y588800D02*
X3594800Y558800D01*
X3594800Y588800D02*
X3564800Y558800D01*
X3597234Y3832800D02*
X3627234Y3802800D01*
X3627234Y3832800D02*
X3597234Y3802800D01*
X3654906Y3775300D02*
X3684906Y3745300D01*
X3684906Y3775300D02*
X3654906Y3745300D01*
X3703952Y3717800D02*
X3733952Y3687800D01*
X3733952Y3717800D02*
X3703952Y3687800D01*
X3754528Y3660300D02*
X3784528Y3630300D01*
X3784528Y3660300D02*
X3754528Y3630300D01*
X3804800Y3602800D02*
X3834800Y3572800D01*
X3834800Y3602800D02*
X3804800Y3572800D01*
X3818069Y592931D02*
X3848069Y562931D01*
X3848069Y592931D02*
X3818069Y562931D01*
X3840800Y811800D02*
X3870800Y781800D01*
X3870800Y811800D02*
X3840800Y781800D01*
X3861550Y3292812D02*
X3891550Y3262812D01*
X3891550Y3292812D02*
X3861550Y3262812D01*
X3930141Y821891D02*
X3960141Y791891D01*
X3960141Y821891D02*
X3930141Y791891D01*
X3933300Y2661300D02*
X3963300Y2631300D01*
X3963300Y2661300D02*
X3933300Y2631300D01*
X3947800Y3325800D02*
X3977800Y3295800D01*
X3977800Y3325800D02*
X3947800Y3295800D01*
X3986028Y592550D02*
X4016028Y562550D01*
X4016028Y592550D02*
X3986028Y562550D01*
X4025800Y898900D02*
X4055800Y868900D01*
X4055800Y898900D02*
X4025800Y868900D01*
X4049600Y3005500D02*
X4079600Y2975500D01*
X4079600Y3005500D02*
X4049600Y2975500D01*
X4052800Y3550800D02*
X4082800Y3520800D01*
X4082800Y3550800D02*
X4052800Y3520800D01*
X4090800Y822800D02*
X4120800Y792800D01*
X4120800Y822800D02*
X4090800Y792800D01*
X4093800Y367800D02*
X4123800Y337800D01*
X4123800Y367800D02*
X4093800Y337800D01*
X4146300Y3303100D02*
X4176300Y3273100D01*
X4176300Y3303100D02*
X4146300Y3273100D01*
X4265800Y1602800D02*
X4295800Y1572800D01*
X4295800Y1602800D02*
X4265800Y1572800D01*
X4371900Y3165800D02*
X4401900Y3135800D01*
X4401900Y3165800D02*
X4371900Y3135800D01*
X4395800Y1187800D02*
X4425800Y1157800D01*
X4425800Y1187800D02*
X4395800Y1157800D01*
X4483800Y3176800D02*
X4513800Y3146800D01*
X4513800Y3176800D02*
X4483800Y3146800D01*
X4669600Y95800D02*
X4699600Y65800D01*
X4699600Y95800D02*
X4669600Y65800D01*
X4671100Y4059175D02*
X4701100Y4029175D01*
X4701100Y4059175D02*
X4671100Y4029175D01*
X4671100Y3067975D02*
X4701100Y3037975D01*
X4701100Y3067975D02*
X4671100Y3037975D01*
X4671100Y2076775D02*
X4701100Y2046775D01*
X4701100Y2076775D02*
X4671100Y2046775D01*
X4671100Y1085575D02*
X4701100Y1055575D01*
X4701100Y1085575D02*
X4671100Y1055575D01*
X4671300Y5051000D02*
X4701300Y5021000D01*
X4701300Y5051000D02*
X4671300Y5021000D01*
X3610800Y980550D02*
G75*
G02*
X3550800Y980550I-30000J0D01*
G01*
X3550800Y980550D02*
G75*
G02*
X3610800Y980550I30000J0D01*
G01*
X3605800Y1010550D02*
X3555800Y1010550D01*
X3555800Y950550D02*
G75*
G02*
X3555800Y1010550I0J30000D01*
G01*
X3555800Y950550D02*
X3605800Y950550D01*
X3605800Y950550D02*
G75*
G03*
X3605800Y1010550I0J30000D01*
G01*
X3610800Y694550D02*
G75*
G02*
X3550800Y694550I-30000J0D01*
G01*
X3550800Y694550D02*
G75*
G02*
X3610800Y694550I30000J0D01*
G01*
X3605800Y724550D02*
X3555800Y724550D01*
X3555800Y664550D02*
G75*
G02*
X3555800Y724550I0J30000D01*
G01*
X3555800Y664550D02*
X3605800Y664550D01*
X3605800Y664550D02*
G75*
G03*
X3605800Y724550I0J30000D01*
G01*
X4410800Y980550D02*
G75*
G02*
X4350800Y980550I-30000J0D01*
G01*
X4350800Y980550D02*
G75*
G02*
X4410800Y980550I30000J0D01*
G01*
X4405800Y1010550D02*
X4355800Y1010550D01*
X4355800Y950550D02*
G75*
G02*
X4355800Y1010550I0J30000D01*
G01*
X4355800Y950550D02*
X4405800Y950550D01*
X4405800Y950550D02*
G75*
G03*
X4405800Y1010550I0J30000D01*
G01*
X4410800Y694550D02*
G75*
G02*
X4350800Y694550I-30000J0D01*
G01*
X4350800Y694550D02*
G75*
G02*
X4410800Y694550I30000J0D01*
G01*
X4405800Y724550D02*
X4355800Y724550D01*
X4355800Y664550D02*
G75*
G02*
X4355800Y724550I0J30000D01*
G01*
X4355800Y664550D02*
X4405800Y664550D01*
X4405800Y664550D02*
G75*
G03*
X4405800Y724550I0J30000D01*
G01*
D14*
X497500Y4778500D02*
X497500Y4458500D01*
X337500Y4618500D02*
X657500Y4618500D01*
X497500Y657500D02*
X497500Y337500D01*
X337500Y497500D02*
X657500Y497500D01*
X4268800Y4778500D02*
X4268800Y4458500D01*
X4108800Y4618500D02*
X4428800Y4618500D01*
D12*
X258277Y-313984D02*
X258277Y-113984D01*
X258277Y-113984D02*
X305896Y-113984D01*
X305896Y-113984D02*
X334467Y-123508D01*
X334467Y-123508D02*
X353515Y-142555D01*
X353515Y-142555D02*
X363039Y-161603D01*
X363039Y-161603D02*
X372562Y-199698D01*
X372562Y-199698D02*
X372562Y-228269D01*
X372562Y-228269D02*
X363039Y-266365D01*
X363039Y-266365D02*
X353515Y-285412D01*
X353515Y-285412D02*
X334467Y-304460D01*
X334467Y-304460D02*
X305896Y-313984D01*
X305896Y-313984D02*
X258277Y-313984D01*
X458277Y-313984D02*
X458277Y-180650D01*
X458277Y-218746D02*
X467801Y-199698D01*
X467801Y-199698D02*
X477324Y-190174D01*
X477324Y-190174D02*
X496372Y-180650D01*
X496372Y-180650D02*
X515420Y-180650D01*
X582086Y-313984D02*
X582086Y-180650D01*
X582086Y-113984D02*
X572563Y-123508D01*
X572563Y-123508D02*
X582086Y-133031D01*
X582086Y-133031D02*
X591610Y-123508D01*
X591610Y-123508D02*
X582086Y-113984D01*
X582086Y-113984D02*
X582086Y-133031D01*
X705896Y-313984D02*
X686848Y-304460D01*
X686848Y-304460D02*
X677324Y-285412D01*
X677324Y-285412D02*
X677324Y-113984D01*
X810658Y-313984D02*
X791610Y-304460D01*
X791610Y-304460D02*
X782086Y-285412D01*
X782086Y-285412D02*
X782086Y-113984D01*
X1039229Y-313984D02*
X1039229Y-113984D01*
X1039229Y-113984D02*
X1105896Y-256841D01*
X1105896Y-256841D02*
X1172563Y-113984D01*
X1172563Y-113984D02*
X1172563Y-313984D01*
X1353515Y-313984D02*
X1353515Y-209222D01*
X1353515Y-209222D02*
X1343991Y-190174D01*
X1343991Y-190174D02*
X1324944Y-180650D01*
X1324944Y-180650D02*
X1286848Y-180650D01*
X1286848Y-180650D02*
X1267801Y-190174D01*
X1353515Y-304460D02*
X1334467Y-313984D01*
X1334467Y-313984D02*
X1286848Y-313984D01*
X1286848Y-313984D02*
X1267801Y-304460D01*
X1267801Y-304460D02*
X1258277Y-285412D01*
X1258277Y-285412D02*
X1258277Y-266365D01*
X1258277Y-266365D02*
X1267801Y-247317D01*
X1267801Y-247317D02*
X1286848Y-237793D01*
X1286848Y-237793D02*
X1334467Y-237793D01*
X1334467Y-237793D02*
X1353515Y-228269D01*
X1448753Y-180650D02*
X1448753Y-380650D01*
X1448753Y-190174D02*
X1467801Y-180650D01*
X1467801Y-180650D02*
X1505896Y-180650D01*
X1505896Y-180650D02*
X1524943Y-190174D01*
X1524943Y-190174D02*
X1534467Y-199698D01*
X1534467Y-199698D02*
X1543991Y-218746D01*
X1543991Y-218746D02*
X1543991Y-275889D01*
X1543991Y-275889D02*
X1534467Y-294936D01*
X1534467Y-294936D02*
X1524943Y-304460D01*
X1524943Y-304460D02*
X1505896Y-313984D01*
X1505896Y-313984D02*
X1467801Y-313984D01*
X1467801Y-313984D02*
X1448753Y-304460D01*
X1629705Y-294936D02*
X1639229Y-304460D01*
X1639229Y-304460D02*
X1629705Y-313984D01*
X1629705Y-313984D02*
X1620182Y-304460D01*
X1620182Y-304460D02*
X1629705Y-294936D01*
X1629705Y-294936D02*
X1629705Y-313984D01*
X1629705Y-190174D02*
X1639229Y-199698D01*
X1639229Y-199698D02*
X1629705Y-209222D01*
X1629705Y-209222D02*
X1620182Y-199698D01*
X1620182Y-199698D02*
X1629705Y-190174D01*
X1629705Y-190174D02*
X1629705Y-209222D01*
D13*
X-32500Y-627500D02*
X-2500Y-657500D01*
X-2500Y-627500D02*
X-32500Y-657500D01*
D12*
X296372Y-533984D02*
X315420Y-533984D01*
X315420Y-533984D02*
X334467Y-543508D01*
X334467Y-543508D02*
X343991Y-553031D01*
X343991Y-553031D02*
X353515Y-572079D01*
X353515Y-572079D02*
X363039Y-610174D01*
X363039Y-610174D02*
X363039Y-657793D01*
X363039Y-657793D02*
X353515Y-695889D01*
X353515Y-695889D02*
X343991Y-714936D01*
X343991Y-714936D02*
X334467Y-724460D01*
X334467Y-724460D02*
X315420Y-733984D01*
X315420Y-733984D02*
X296372Y-733984D01*
X296372Y-733984D02*
X277324Y-724460D01*
X277324Y-724460D02*
X267801Y-714936D01*
X267801Y-714936D02*
X258277Y-695889D01*
X258277Y-695889D02*
X248753Y-657793D01*
X248753Y-657793D02*
X248753Y-610174D01*
X248753Y-610174D02*
X258277Y-572079D01*
X258277Y-572079D02*
X267801Y-553031D01*
X267801Y-553031D02*
X277324Y-543508D01*
X277324Y-543508D02*
X296372Y-533984D01*
X448753Y-714936D02*
X458277Y-724460D01*
X458277Y-724460D02*
X448753Y-733984D01*
X448753Y-733984D02*
X439229Y-724460D01*
X439229Y-724460D02*
X448753Y-714936D01*
X448753Y-714936D02*
X448753Y-733984D01*
X524944Y-533984D02*
X648753Y-533984D01*
X648753Y-533984D02*
X582086Y-610174D01*
X582086Y-610174D02*
X610658Y-610174D01*
X610658Y-610174D02*
X629705Y-619698D01*
X629705Y-619698D02*
X639229Y-629222D01*
X639229Y-629222D02*
X648753Y-648270D01*
X648753Y-648270D02*
X648753Y-695889D01*
X648753Y-695889D02*
X639229Y-714936D01*
X639229Y-714936D02*
X629705Y-724460D01*
X629705Y-724460D02*
X610658Y-733984D01*
X610658Y-733984D02*
X553515Y-733984D01*
X553515Y-733984D02*
X534467Y-724460D01*
X534467Y-724460D02*
X524944Y-714936D01*
X772562Y-533984D02*
X791610Y-533984D01*
X791610Y-533984D02*
X810658Y-543508D01*
X810658Y-543508D02*
X820182Y-553031D01*
X820182Y-553031D02*
X829705Y-572079D01*
X829705Y-572079D02*
X839229Y-610174D01*
X839229Y-610174D02*
X839229Y-657793D01*
X839229Y-657793D02*
X829705Y-695889D01*
X829705Y-695889D02*
X820182Y-714936D01*
X820182Y-714936D02*
X810658Y-724460D01*
X810658Y-724460D02*
X791610Y-733984D01*
X791610Y-733984D02*
X772562Y-733984D01*
X772562Y-733984D02*
X753515Y-724460D01*
X753515Y-724460D02*
X743991Y-714936D01*
X743991Y-714936D02*
X734467Y-695889D01*
X734467Y-695889D02*
X724943Y-657793D01*
X724943Y-657793D02*
X724943Y-610174D01*
X724943Y-610174D02*
X734467Y-572079D01*
X734467Y-572079D02*
X743991Y-553031D01*
X743991Y-553031D02*
X753515Y-543508D01*
X753515Y-543508D02*
X772562Y-533984D01*
X963039Y-533984D02*
X982086Y-533984D01*
X982086Y-533984D02*
X1001134Y-543508D01*
X1001134Y-543508D02*
X1010658Y-553031D01*
X1010658Y-553031D02*
X1020182Y-572079D01*
X1020182Y-572079D02*
X1029705Y-610174D01*
X1029705Y-610174D02*
X1029705Y-657793D01*
X1029705Y-657793D02*
X1020182Y-695889D01*
X1020182Y-695889D02*
X1010658Y-714936D01*
X1010658Y-714936D02*
X1001134Y-724460D01*
X1001134Y-724460D02*
X982086Y-733984D01*
X982086Y-733984D02*
X963039Y-733984D01*
X963039Y-733984D02*
X943991Y-724460D01*
X943991Y-724460D02*
X934467Y-714936D01*
X934467Y-714936D02*
X924943Y-695889D01*
X924943Y-695889D02*
X915420Y-657793D01*
X915420Y-657793D02*
X915420Y-610174D01*
X915420Y-610174D02*
X924943Y-572079D01*
X924943Y-572079D02*
X934467Y-553031D01*
X934467Y-553031D02*
X943991Y-543508D01*
X943991Y-543508D02*
X963039Y-533984D01*
X1115420Y-733984D02*
X1115420Y-600650D01*
X1115420Y-619698D02*
X1124944Y-610174D01*
X1124944Y-610174D02*
X1143991Y-600650D01*
X1143991Y-600650D02*
X1172563Y-600650D01*
X1172563Y-600650D02*
X1191610Y-610174D01*
X1191610Y-610174D02*
X1201134Y-629222D01*
X1201134Y-629222D02*
X1201134Y-733984D01*
X1201134Y-629222D02*
X1210658Y-610174D01*
X1210658Y-610174D02*
X1229705Y-600650D01*
X1229705Y-600650D02*
X1258277Y-600650D01*
X1258277Y-600650D02*
X1277325Y-610174D01*
X1277325Y-610174D02*
X1286848Y-629222D01*
X1286848Y-629222D02*
X1286848Y-733984D01*
X1382086Y-733984D02*
X1382086Y-600650D01*
X1382086Y-619698D02*
X1391610Y-610174D01*
X1391610Y-610174D02*
X1410658Y-600650D01*
X1410658Y-600650D02*
X1439229Y-600650D01*
X1439229Y-600650D02*
X1458277Y-610174D01*
X1458277Y-610174D02*
X1467801Y-629222D01*
X1467801Y-629222D02*
X1467801Y-733984D01*
X1467801Y-629222D02*
X1477324Y-610174D01*
X1477324Y-610174D02*
X1496372Y-600650D01*
X1496372Y-600650D02*
X1524943Y-600650D01*
X1524943Y-600650D02*
X1543991Y-610174D01*
X1543991Y-610174D02*
X1553515Y-629222D01*
X1553515Y-629222D02*
X1553515Y-733984D01*
X1943991Y-524460D02*
X1772563Y-781603D01*
X2201134Y-533984D02*
X2220182Y-533984D01*
X2220182Y-533984D02*
X2239229Y-543508D01*
X2239229Y-543508D02*
X2248753Y-553031D01*
X2248753Y-553031D02*
X2258277Y-572079D01*
X2258277Y-572079D02*
X2267801Y-610174D01*
X2267801Y-610174D02*
X2267801Y-657793D01*
X2267801Y-657793D02*
X2258277Y-695889D01*
X2258277Y-695889D02*
X2248753Y-714936D01*
X2248753Y-714936D02*
X2239229Y-724460D01*
X2239229Y-724460D02*
X2220182Y-733984D01*
X2220182Y-733984D02*
X2201134Y-733984D01*
X2201134Y-733984D02*
X2182087Y-724460D01*
X2182087Y-724460D02*
X2172563Y-714936D01*
X2172563Y-714936D02*
X2163039Y-695889D01*
X2163039Y-695889D02*
X2153515Y-657793D01*
X2153515Y-657793D02*
X2153515Y-610174D01*
X2153515Y-610174D02*
X2163039Y-572079D01*
X2163039Y-572079D02*
X2172563Y-553031D01*
X2172563Y-553031D02*
X2182087Y-543508D01*
X2182087Y-543508D02*
X2201134Y-533984D01*
X2353515Y-714936D02*
X2363039Y-724460D01*
X2363039Y-724460D02*
X2353515Y-733984D01*
X2353515Y-733984D02*
X2343991Y-724460D01*
X2343991Y-724460D02*
X2353515Y-714936D01*
X2353515Y-714936D02*
X2353515Y-733984D01*
X2486848Y-533984D02*
X2505896Y-533984D01*
X2505896Y-533984D02*
X2524944Y-543508D01*
X2524944Y-543508D02*
X2534468Y-553031D01*
X2534468Y-553031D02*
X2543991Y-572079D01*
X2543991Y-572079D02*
X2553515Y-610174D01*
X2553515Y-610174D02*
X2553515Y-657793D01*
X2553515Y-657793D02*
X2543991Y-695889D01*
X2543991Y-695889D02*
X2534468Y-714936D01*
X2534468Y-714936D02*
X2524944Y-724460D01*
X2524944Y-724460D02*
X2505896Y-733984D01*
X2505896Y-733984D02*
X2486848Y-733984D01*
X2486848Y-733984D02*
X2467801Y-724460D01*
X2467801Y-724460D02*
X2458277Y-714936D01*
X2458277Y-714936D02*
X2448753Y-695889D01*
X2448753Y-695889D02*
X2439229Y-657793D01*
X2439229Y-657793D02*
X2439229Y-610174D01*
X2439229Y-610174D02*
X2448753Y-572079D01*
X2448753Y-572079D02*
X2458277Y-553031D01*
X2458277Y-553031D02*
X2467801Y-543508D01*
X2467801Y-543508D02*
X2486848Y-533984D01*
X2743991Y-733984D02*
X2629706Y-733984D01*
X2686848Y-733984D02*
X2686848Y-533984D01*
X2686848Y-533984D02*
X2667801Y-562555D01*
X2667801Y-562555D02*
X2648753Y-581603D01*
X2648753Y-581603D02*
X2629706Y-591127D01*
X2934467Y-733984D02*
X2820182Y-733984D01*
X2877325Y-733984D02*
X2877325Y-533984D01*
X2877325Y-533984D02*
X2858277Y-562555D01*
X2858277Y-562555D02*
X2839229Y-581603D01*
X2839229Y-581603D02*
X2820182Y-591127D01*
X3048753Y-619698D02*
X3029706Y-610174D01*
X3029706Y-610174D02*
X3020182Y-600650D01*
X3020182Y-600650D02*
X3010658Y-581603D01*
X3010658Y-581603D02*
X3010658Y-572079D01*
X3010658Y-572079D02*
X3020182Y-553031D01*
X3020182Y-553031D02*
X3029706Y-543508D01*
X3029706Y-543508D02*
X3048753Y-533984D01*
X3048753Y-533984D02*
X3086848Y-533984D01*
X3086848Y-533984D02*
X3105896Y-543508D01*
X3105896Y-543508D02*
X3115420Y-553031D01*
X3115420Y-553031D02*
X3124944Y-572079D01*
X3124944Y-572079D02*
X3124944Y-581603D01*
X3124944Y-581603D02*
X3115420Y-600650D01*
X3115420Y-600650D02*
X3105896Y-610174D01*
X3105896Y-610174D02*
X3086848Y-619698D01*
X3086848Y-619698D02*
X3048753Y-619698D01*
X3048753Y-619698D02*
X3029706Y-629222D01*
X3029706Y-629222D02*
X3020182Y-638746D01*
X3020182Y-638746D02*
X3010658Y-657793D01*
X3010658Y-657793D02*
X3010658Y-695889D01*
X3010658Y-695889D02*
X3020182Y-714936D01*
X3020182Y-714936D02*
X3029706Y-724460D01*
X3029706Y-724460D02*
X3048753Y-733984D01*
X3048753Y-733984D02*
X3086848Y-733984D01*
X3086848Y-733984D02*
X3105896Y-724460D01*
X3105896Y-724460D02*
X3115420Y-714936D01*
X3115420Y-714936D02*
X3124944Y-695889D01*
X3124944Y-695889D02*
X3124944Y-657793D01*
X3124944Y-657793D02*
X3115420Y-638746D01*
X3115420Y-638746D02*
X3105896Y-629222D01*
X3105896Y-629222D02*
X3086848Y-619698D01*
X3201134Y-533984D02*
X3201134Y-572079D01*
X3277325Y-533984D02*
X3277325Y-572079D01*
X3572563Y-810174D02*
X3563039Y-800650D01*
X3563039Y-800650D02*
X3543991Y-772079D01*
X3543991Y-772079D02*
X3534468Y-753031D01*
X3534468Y-753031D02*
X3524944Y-724460D01*
X3524944Y-724460D02*
X3515420Y-676841D01*
X3515420Y-676841D02*
X3515420Y-638746D01*
X3515420Y-638746D02*
X3524944Y-591127D01*
X3524944Y-591127D02*
X3534468Y-562555D01*
X3534468Y-562555D02*
X3543991Y-543508D01*
X3543991Y-543508D02*
X3563039Y-514936D01*
X3563039Y-514936D02*
X3572563Y-505412D01*
X3677325Y-619698D02*
X3658277Y-610174D01*
X3658277Y-610174D02*
X3648753Y-600650D01*
X3648753Y-600650D02*
X3639229Y-581603D01*
X3639229Y-581603D02*
X3639229Y-572079D01*
X3639229Y-572079D02*
X3648753Y-553031D01*
X3648753Y-553031D02*
X3658277Y-543508D01*
X3658277Y-543508D02*
X3677325Y-533984D01*
X3677325Y-533984D02*
X3715420Y-533984D01*
X3715420Y-533984D02*
X3734468Y-543508D01*
X3734468Y-543508D02*
X3743991Y-553031D01*
X3743991Y-553031D02*
X3753515Y-572079D01*
X3753515Y-572079D02*
X3753515Y-581603D01*
X3753515Y-581603D02*
X3743991Y-600650D01*
X3743991Y-600650D02*
X3734468Y-610174D01*
X3734468Y-610174D02*
X3715420Y-619698D01*
X3715420Y-619698D02*
X3677325Y-619698D01*
X3677325Y-619698D02*
X3658277Y-629222D01*
X3658277Y-629222D02*
X3648753Y-638746D01*
X3648753Y-638746D02*
X3639229Y-657793D01*
X3639229Y-657793D02*
X3639229Y-695889D01*
X3639229Y-695889D02*
X3648753Y-714936D01*
X3648753Y-714936D02*
X3658277Y-724460D01*
X3658277Y-724460D02*
X3677325Y-733984D01*
X3677325Y-733984D02*
X3715420Y-733984D01*
X3715420Y-733984D02*
X3734468Y-724460D01*
X3734468Y-724460D02*
X3743991Y-714936D01*
X3743991Y-714936D02*
X3753515Y-695889D01*
X3753515Y-695889D02*
X3753515Y-657793D01*
X3753515Y-657793D02*
X3743991Y-638746D01*
X3743991Y-638746D02*
X3734468Y-629222D01*
X3734468Y-629222D02*
X3715420Y-619698D01*
X3924944Y-533984D02*
X3886848Y-533984D01*
X3886848Y-533984D02*
X3867801Y-543508D01*
X3867801Y-543508D02*
X3858277Y-553031D01*
X3858277Y-553031D02*
X3839229Y-581603D01*
X3839229Y-581603D02*
X3829706Y-619698D01*
X3829706Y-619698D02*
X3829706Y-695889D01*
X3829706Y-695889D02*
X3839229Y-714936D01*
X3839229Y-714936D02*
X3848753Y-724460D01*
X3848753Y-724460D02*
X3867801Y-733984D01*
X3867801Y-733984D02*
X3905896Y-733984D01*
X3905896Y-733984D02*
X3924944Y-724460D01*
X3924944Y-724460D02*
X3934468Y-714936D01*
X3934468Y-714936D02*
X3943991Y-695889D01*
X3943991Y-695889D02*
X3943991Y-648270D01*
X3943991Y-648270D02*
X3934468Y-629222D01*
X3934468Y-629222D02*
X3924944Y-619698D01*
X3924944Y-619698D02*
X3905896Y-610174D01*
X3905896Y-610174D02*
X3867801Y-610174D01*
X3867801Y-610174D02*
X3848753Y-619698D01*
X3848753Y-619698D02*
X3839229Y-629222D01*
X3839229Y-629222D02*
X3829706Y-648270D01*
X4182087Y-733984D02*
X4182087Y-533984D01*
X4267801Y-733984D02*
X4267801Y-629222D01*
X4267801Y-629222D02*
X4258277Y-610174D01*
X4258277Y-610174D02*
X4239230Y-600650D01*
X4239230Y-600650D02*
X4210658Y-600650D01*
X4210658Y-600650D02*
X4191610Y-610174D01*
X4191610Y-610174D02*
X4182087Y-619698D01*
X4391611Y-733984D02*
X4372563Y-724460D01*
X4372563Y-724460D02*
X4363039Y-714936D01*
X4363039Y-714936D02*
X4353515Y-695889D01*
X4353515Y-695889D02*
X4353515Y-638746D01*
X4353515Y-638746D02*
X4363039Y-619698D01*
X4363039Y-619698D02*
X4372563Y-610174D01*
X4372563Y-610174D02*
X4391611Y-600650D01*
X4391611Y-600650D02*
X4420182Y-600650D01*
X4420182Y-600650D02*
X4439230Y-610174D01*
X4439230Y-610174D02*
X4448753Y-619698D01*
X4448753Y-619698D02*
X4458277Y-638746D01*
X4458277Y-638746D02*
X4458277Y-695889D01*
X4458277Y-695889D02*
X4448753Y-714936D01*
X4448753Y-714936D02*
X4439230Y-724460D01*
X4439230Y-724460D02*
X4420182Y-733984D01*
X4420182Y-733984D02*
X4391611Y-733984D01*
X4572563Y-733984D02*
X4553515Y-724460D01*
X4553515Y-724460D02*
X4543992Y-705412D01*
X4543992Y-705412D02*
X4543992Y-533984D01*
X4724944Y-724460D02*
X4705896Y-733984D01*
X4705896Y-733984D02*
X4667801Y-733984D01*
X4667801Y-733984D02*
X4648753Y-724460D01*
X4648753Y-724460D02*
X4639230Y-705412D01*
X4639230Y-705412D02*
X4639230Y-629222D01*
X4639230Y-629222D02*
X4648753Y-610174D01*
X4648753Y-610174D02*
X4667801Y-600650D01*
X4667801Y-600650D02*
X4705896Y-600650D01*
X4705896Y-600650D02*
X4724944Y-610174D01*
X4724944Y-610174D02*
X4734468Y-629222D01*
X4734468Y-629222D02*
X4734468Y-648270D01*
X4734468Y-648270D02*
X4639230Y-667317D01*
X4810658Y-724460D02*
X4829706Y-733984D01*
X4829706Y-733984D02*
X4867801Y-733984D01*
X4867801Y-733984D02*
X4886849Y-724460D01*
X4886849Y-724460D02*
X4896373Y-705412D01*
X4896373Y-705412D02*
X4896373Y-695889D01*
X4896373Y-695889D02*
X4886849Y-676841D01*
X4886849Y-676841D02*
X4867801Y-667317D01*
X4867801Y-667317D02*
X4839230Y-667317D01*
X4839230Y-667317D02*
X4820182Y-657793D01*
X4820182Y-657793D02*
X4810658Y-638746D01*
X4810658Y-638746D02*
X4810658Y-629222D01*
X4810658Y-629222D02*
X4820182Y-610174D01*
X4820182Y-610174D02*
X4839230Y-600650D01*
X4839230Y-600650D02*
X4867801Y-600650D01*
X4867801Y-600650D02*
X4886849Y-610174D01*
X4963039Y-810174D02*
X4972563Y-800650D01*
X4972563Y-800650D02*
X4991611Y-772079D01*
X4991611Y-772079D02*
X5001134Y-753031D01*
X5001134Y-753031D02*
X5010658Y-724460D01*
X5010658Y-724460D02*
X5020182Y-676841D01*
X5020182Y-676841D02*
X5020182Y-638746D01*
X5020182Y-638746D02*
X5010658Y-591127D01*
X5010658Y-591127D02*
X5001134Y-562555D01*
X5001134Y-562555D02*
X4991611Y-543508D01*
X4991611Y-543508D02*
X4972563Y-514936D01*
X4972563Y-514936D02*
X4963039Y-505412D01*
D13*
X-2500Y-906500D02*
G75*
G02*
X-62500Y-906500I-30000J0D01*
G01*
X-62500Y-906500D02*
G75*
G02*
X-2500Y-906500I30000J0D01*
G01*
D12*
X296372Y-797984D02*
X315420Y-797984D01*
X315420Y-797984D02*
X334467Y-807508D01*
X334467Y-807508D02*
X343991Y-817031D01*
X343991Y-817031D02*
X353515Y-836079D01*
X353515Y-836079D02*
X363039Y-874174D01*
X363039Y-874174D02*
X363039Y-921793D01*
X363039Y-921793D02*
X353515Y-959888D01*
X353515Y-959888D02*
X343991Y-978936D01*
X343991Y-978936D02*
X334467Y-988460D01*
X334467Y-988460D02*
X315420Y-997984D01*
X315420Y-997984D02*
X296372Y-997984D01*
X296372Y-997984D02*
X277324Y-988460D01*
X277324Y-988460D02*
X267801Y-978936D01*
X267801Y-978936D02*
X258277Y-959888D01*
X258277Y-959888D02*
X248753Y-921793D01*
X248753Y-921793D02*
X248753Y-874174D01*
X248753Y-874174D02*
X258277Y-836079D01*
X258277Y-836079D02*
X267801Y-817031D01*
X267801Y-817031D02*
X277324Y-807508D01*
X277324Y-807508D02*
X296372Y-797984D01*
X448753Y-978936D02*
X458277Y-988460D01*
X458277Y-988460D02*
X448753Y-997984D01*
X448753Y-997984D02*
X439229Y-988460D01*
X439229Y-988460D02*
X448753Y-978936D01*
X448753Y-978936D02*
X448753Y-997984D01*
X629705Y-797984D02*
X591610Y-797984D01*
X591610Y-797984D02*
X572563Y-807508D01*
X572563Y-807508D02*
X563039Y-817031D01*
X563039Y-817031D02*
X543991Y-845603D01*
X543991Y-845603D02*
X534467Y-883698D01*
X534467Y-883698D02*
X534467Y-959888D01*
X534467Y-959888D02*
X543991Y-978936D01*
X543991Y-978936D02*
X553515Y-988460D01*
X553515Y-988460D02*
X572563Y-997984D01*
X572563Y-997984D02*
X610658Y-997984D01*
X610658Y-997984D02*
X629705Y-988460D01*
X629705Y-988460D02*
X639229Y-978936D01*
X639229Y-978936D02*
X648753Y-959888D01*
X648753Y-959888D02*
X648753Y-912269D01*
X648753Y-912269D02*
X639229Y-893222D01*
X639229Y-893222D02*
X629705Y-883698D01*
X629705Y-883698D02*
X610658Y-874174D01*
X610658Y-874174D02*
X572563Y-874174D01*
X572563Y-874174D02*
X553515Y-883698D01*
X553515Y-883698D02*
X543991Y-893222D01*
X543991Y-893222D02*
X534467Y-912269D01*
X772562Y-797984D02*
X791610Y-797984D01*
X791610Y-797984D02*
X810658Y-807508D01*
X810658Y-807508D02*
X820182Y-817031D01*
X820182Y-817031D02*
X829705Y-836079D01*
X829705Y-836079D02*
X839229Y-874174D01*
X839229Y-874174D02*
X839229Y-921793D01*
X839229Y-921793D02*
X829705Y-959888D01*
X829705Y-959888D02*
X820182Y-978936D01*
X820182Y-978936D02*
X810658Y-988460D01*
X810658Y-988460D02*
X791610Y-997984D01*
X791610Y-997984D02*
X772562Y-997984D01*
X772562Y-997984D02*
X753515Y-988460D01*
X753515Y-988460D02*
X743991Y-978936D01*
X743991Y-978936D02*
X734467Y-959888D01*
X734467Y-959888D02*
X724943Y-921793D01*
X724943Y-921793D02*
X724943Y-874174D01*
X724943Y-874174D02*
X734467Y-836079D01*
X734467Y-836079D02*
X743991Y-817031D01*
X743991Y-817031D02*
X753515Y-807508D01*
X753515Y-807508D02*
X772562Y-797984D01*
X963039Y-797984D02*
X982086Y-797984D01*
X982086Y-797984D02*
X1001134Y-807508D01*
X1001134Y-807508D02*
X1010658Y-817031D01*
X1010658Y-817031D02*
X1020182Y-836079D01*
X1020182Y-836079D02*
X1029705Y-874174D01*
X1029705Y-874174D02*
X1029705Y-921793D01*
X1029705Y-921793D02*
X1020182Y-959888D01*
X1020182Y-959888D02*
X1010658Y-978936D01*
X1010658Y-978936D02*
X1001134Y-988460D01*
X1001134Y-988460D02*
X982086Y-997984D01*
X982086Y-997984D02*
X963039Y-997984D01*
X963039Y-997984D02*
X943991Y-988460D01*
X943991Y-988460D02*
X934467Y-978936D01*
X934467Y-978936D02*
X924943Y-959888D01*
X924943Y-959888D02*
X915420Y-921793D01*
X915420Y-921793D02*
X915420Y-874174D01*
X915420Y-874174D02*
X924943Y-836079D01*
X924943Y-836079D02*
X934467Y-817031D01*
X934467Y-817031D02*
X943991Y-807508D01*
X943991Y-807508D02*
X963039Y-797984D01*
X1115420Y-997984D02*
X1115420Y-864650D01*
X1115420Y-883698D02*
X1124944Y-874174D01*
X1124944Y-874174D02*
X1143991Y-864650D01*
X1143991Y-864650D02*
X1172563Y-864650D01*
X1172563Y-864650D02*
X1191610Y-874174D01*
X1191610Y-874174D02*
X1201134Y-893222D01*
X1201134Y-893222D02*
X1201134Y-997984D01*
X1201134Y-893222D02*
X1210658Y-874174D01*
X1210658Y-874174D02*
X1229705Y-864650D01*
X1229705Y-864650D02*
X1258277Y-864650D01*
X1258277Y-864650D02*
X1277325Y-874174D01*
X1277325Y-874174D02*
X1286848Y-893222D01*
X1286848Y-893222D02*
X1286848Y-997984D01*
X1382086Y-997984D02*
X1382086Y-864650D01*
X1382086Y-883698D02*
X1391610Y-874174D01*
X1391610Y-874174D02*
X1410658Y-864650D01*
X1410658Y-864650D02*
X1439229Y-864650D01*
X1439229Y-864650D02*
X1458277Y-874174D01*
X1458277Y-874174D02*
X1467801Y-893222D01*
X1467801Y-893222D02*
X1467801Y-997984D01*
X1467801Y-893222D02*
X1477324Y-874174D01*
X1477324Y-874174D02*
X1496372Y-864650D01*
X1496372Y-864650D02*
X1524943Y-864650D01*
X1524943Y-864650D02*
X1543991Y-874174D01*
X1543991Y-874174D02*
X1553515Y-893222D01*
X1553515Y-893222D02*
X1553515Y-997984D01*
X1943991Y-788460D02*
X1772563Y-1045603D01*
X2201134Y-797984D02*
X2220182Y-797984D01*
X2220182Y-797984D02*
X2239229Y-807508D01*
X2239229Y-807508D02*
X2248753Y-817031D01*
X2248753Y-817031D02*
X2258277Y-836079D01*
X2258277Y-836079D02*
X2267801Y-874174D01*
X2267801Y-874174D02*
X2267801Y-921793D01*
X2267801Y-921793D02*
X2258277Y-959888D01*
X2258277Y-959888D02*
X2248753Y-978936D01*
X2248753Y-978936D02*
X2239229Y-988460D01*
X2239229Y-988460D02*
X2220182Y-997984D01*
X2220182Y-997984D02*
X2201134Y-997984D01*
X2201134Y-997984D02*
X2182087Y-988460D01*
X2182087Y-988460D02*
X2172563Y-978936D01*
X2172563Y-978936D02*
X2163039Y-959888D01*
X2163039Y-959888D02*
X2153515Y-921793D01*
X2153515Y-921793D02*
X2153515Y-874174D01*
X2153515Y-874174D02*
X2163039Y-836079D01*
X2163039Y-836079D02*
X2172563Y-817031D01*
X2172563Y-817031D02*
X2182087Y-807508D01*
X2182087Y-807508D02*
X2201134Y-797984D01*
X2353515Y-978936D02*
X2363039Y-988460D01*
X2363039Y-988460D02*
X2353515Y-997984D01*
X2353515Y-997984D02*
X2343991Y-988460D01*
X2343991Y-988460D02*
X2353515Y-978936D01*
X2353515Y-978936D02*
X2353515Y-997984D01*
X2486848Y-797984D02*
X2505896Y-797984D01*
X2505896Y-797984D02*
X2524944Y-807508D01*
X2524944Y-807508D02*
X2534468Y-817031D01*
X2534468Y-817031D02*
X2543991Y-836079D01*
X2543991Y-836079D02*
X2553515Y-874174D01*
X2553515Y-874174D02*
X2553515Y-921793D01*
X2553515Y-921793D02*
X2543991Y-959888D01*
X2543991Y-959888D02*
X2534468Y-978936D01*
X2534468Y-978936D02*
X2524944Y-988460D01*
X2524944Y-988460D02*
X2505896Y-997984D01*
X2505896Y-997984D02*
X2486848Y-997984D01*
X2486848Y-997984D02*
X2467801Y-988460D01*
X2467801Y-988460D02*
X2458277Y-978936D01*
X2458277Y-978936D02*
X2448753Y-959888D01*
X2448753Y-959888D02*
X2439229Y-921793D01*
X2439229Y-921793D02*
X2439229Y-874174D01*
X2439229Y-874174D02*
X2448753Y-836079D01*
X2448753Y-836079D02*
X2458277Y-817031D01*
X2458277Y-817031D02*
X2467801Y-807508D01*
X2467801Y-807508D02*
X2486848Y-797984D01*
X2629706Y-817031D02*
X2639229Y-807508D01*
X2639229Y-807508D02*
X2658277Y-797984D01*
X2658277Y-797984D02*
X2705896Y-797984D01*
X2705896Y-797984D02*
X2724944Y-807508D01*
X2724944Y-807508D02*
X2734468Y-817031D01*
X2734468Y-817031D02*
X2743991Y-836079D01*
X2743991Y-836079D02*
X2743991Y-855127D01*
X2743991Y-855127D02*
X2734468Y-883698D01*
X2734468Y-883698D02*
X2620182Y-997984D01*
X2620182Y-997984D02*
X2743991Y-997984D01*
X2810658Y-797984D02*
X2934467Y-797984D01*
X2934467Y-797984D02*
X2867801Y-874174D01*
X2867801Y-874174D02*
X2896372Y-874174D01*
X2896372Y-874174D02*
X2915420Y-883698D01*
X2915420Y-883698D02*
X2924944Y-893222D01*
X2924944Y-893222D02*
X2934467Y-912269D01*
X2934467Y-912269D02*
X2934467Y-959888D01*
X2934467Y-959888D02*
X2924944Y-978936D01*
X2924944Y-978936D02*
X2915420Y-988460D01*
X2915420Y-988460D02*
X2896372Y-997984D01*
X2896372Y-997984D02*
X2839229Y-997984D01*
X2839229Y-997984D02*
X2820182Y-988460D01*
X2820182Y-988460D02*
X2810658Y-978936D01*
X3105896Y-797984D02*
X3067801Y-797984D01*
X3067801Y-797984D02*
X3048753Y-807508D01*
X3048753Y-807508D02*
X3039229Y-817031D01*
X3039229Y-817031D02*
X3020182Y-845603D01*
X3020182Y-845603D02*
X3010658Y-883698D01*
X3010658Y-883698D02*
X3010658Y-959888D01*
X3010658Y-959888D02*
X3020182Y-978936D01*
X3020182Y-978936D02*
X3029706Y-988460D01*
X3029706Y-988460D02*
X3048753Y-997984D01*
X3048753Y-997984D02*
X3086848Y-997984D01*
X3086848Y-997984D02*
X3105896Y-988460D01*
X3105896Y-988460D02*
X3115420Y-978936D01*
X3115420Y-978936D02*
X3124944Y-959888D01*
X3124944Y-959888D02*
X3124944Y-912269D01*
X3124944Y-912269D02*
X3115420Y-893222D01*
X3115420Y-893222D02*
X3105896Y-883698D01*
X3105896Y-883698D02*
X3086848Y-874174D01*
X3086848Y-874174D02*
X3048753Y-874174D01*
X3048753Y-874174D02*
X3029706Y-883698D01*
X3029706Y-883698D02*
X3020182Y-893222D01*
X3020182Y-893222D02*
X3010658Y-912269D01*
X3201134Y-797984D02*
X3201134Y-836079D01*
X3277325Y-797984D02*
X3277325Y-836079D01*
X3572563Y-1074174D02*
X3563039Y-1064650D01*
X3563039Y-1064650D02*
X3543991Y-1036079D01*
X3543991Y-1036079D02*
X3534468Y-1017031D01*
X3534468Y-1017031D02*
X3524944Y-988460D01*
X3524944Y-988460D02*
X3515420Y-940841D01*
X3515420Y-940841D02*
X3515420Y-902746D01*
X3515420Y-902746D02*
X3524944Y-855127D01*
X3524944Y-855127D02*
X3534468Y-826555D01*
X3534468Y-826555D02*
X3543991Y-807508D01*
X3543991Y-807508D02*
X3563039Y-778936D01*
X3563039Y-778936D02*
X3572563Y-769412D01*
X3686848Y-797984D02*
X3705896Y-797984D01*
X3705896Y-797984D02*
X3724944Y-807508D01*
X3724944Y-807508D02*
X3734468Y-817031D01*
X3734468Y-817031D02*
X3743991Y-836079D01*
X3743991Y-836079D02*
X3753515Y-874174D01*
X3753515Y-874174D02*
X3753515Y-921793D01*
X3753515Y-921793D02*
X3743991Y-959888D01*
X3743991Y-959888D02*
X3734468Y-978936D01*
X3734468Y-978936D02*
X3724944Y-988460D01*
X3724944Y-988460D02*
X3705896Y-997984D01*
X3705896Y-997984D02*
X3686848Y-997984D01*
X3686848Y-997984D02*
X3667801Y-988460D01*
X3667801Y-988460D02*
X3658277Y-978936D01*
X3658277Y-978936D02*
X3648753Y-959888D01*
X3648753Y-959888D02*
X3639229Y-921793D01*
X3639229Y-921793D02*
X3639229Y-874174D01*
X3639229Y-874174D02*
X3648753Y-836079D01*
X3648753Y-836079D02*
X3658277Y-817031D01*
X3658277Y-817031D02*
X3667801Y-807508D01*
X3667801Y-807508D02*
X3686848Y-797984D01*
X3991610Y-997984D02*
X3991610Y-797984D01*
X4077325Y-997984D02*
X4077325Y-893222D01*
X4077325Y-893222D02*
X4067801Y-874174D01*
X4067801Y-874174D02*
X4048753Y-864650D01*
X4048753Y-864650D02*
X4020182Y-864650D01*
X4020182Y-864650D02*
X4001134Y-874174D01*
X4001134Y-874174D02*
X3991610Y-883698D01*
X4201134Y-997984D02*
X4182087Y-988460D01*
X4182087Y-988460D02*
X4172563Y-978936D01*
X4172563Y-978936D02*
X4163039Y-959888D01*
X4163039Y-959888D02*
X4163039Y-902746D01*
X4163039Y-902746D02*
X4172563Y-883698D01*
X4172563Y-883698D02*
X4182087Y-874174D01*
X4182087Y-874174D02*
X4201134Y-864650D01*
X4201134Y-864650D02*
X4229706Y-864650D01*
X4229706Y-864650D02*
X4248753Y-874174D01*
X4248753Y-874174D02*
X4258277Y-883698D01*
X4258277Y-883698D02*
X4267801Y-902746D01*
X4267801Y-902746D02*
X4267801Y-959888D01*
X4267801Y-959888D02*
X4258277Y-978936D01*
X4258277Y-978936D02*
X4248753Y-988460D01*
X4248753Y-988460D02*
X4229706Y-997984D01*
X4229706Y-997984D02*
X4201134Y-997984D01*
X4382087Y-997984D02*
X4363039Y-988460D01*
X4363039Y-988460D02*
X4353515Y-969412D01*
X4353515Y-969412D02*
X4353515Y-797984D01*
X4534468Y-988460D02*
X4515420Y-997984D01*
X4515420Y-997984D02*
X4477325Y-997984D01*
X4477325Y-997984D02*
X4458277Y-988460D01*
X4458277Y-988460D02*
X4448753Y-969412D01*
X4448753Y-969412D02*
X4448753Y-893222D01*
X4448753Y-893222D02*
X4458277Y-874174D01*
X4458277Y-874174D02*
X4477325Y-864650D01*
X4477325Y-864650D02*
X4515420Y-864650D01*
X4515420Y-864650D02*
X4534468Y-874174D01*
X4534468Y-874174D02*
X4543992Y-893222D01*
X4543992Y-893222D02*
X4543992Y-912269D01*
X4543992Y-912269D02*
X4448753Y-931317D01*
X4620182Y-988460D02*
X4639230Y-997984D01*
X4639230Y-997984D02*
X4677325Y-997984D01*
X4677325Y-997984D02*
X4696373Y-988460D01*
X4696373Y-988460D02*
X4705896Y-969412D01*
X4705896Y-969412D02*
X4705896Y-959888D01*
X4705896Y-959888D02*
X4696373Y-940841D01*
X4696373Y-940841D02*
X4677325Y-931317D01*
X4677325Y-931317D02*
X4648753Y-931317D01*
X4648753Y-931317D02*
X4629706Y-921793D01*
X4629706Y-921793D02*
X4620182Y-902746D01*
X4620182Y-902746D02*
X4620182Y-893222D01*
X4620182Y-893222D02*
X4629706Y-874174D01*
X4629706Y-874174D02*
X4648753Y-864650D01*
X4648753Y-864650D02*
X4677325Y-864650D01*
X4677325Y-864650D02*
X4696373Y-874174D01*
X4943992Y-921793D02*
X5096373Y-921793D01*
X5020182Y-997984D02*
X5020182Y-845603D01*
X5429706Y-864650D02*
X5429706Y-997984D01*
X5382087Y-788460D02*
X5334468Y-931317D01*
X5334468Y-931317D02*
X5458277Y-931317D01*
X5677325Y-988460D02*
X5696373Y-997984D01*
X5696373Y-997984D02*
X5734468Y-997984D01*
X5734468Y-997984D02*
X5753515Y-988460D01*
X5753515Y-988460D02*
X5763039Y-969412D01*
X5763039Y-969412D02*
X5763039Y-959888D01*
X5763039Y-959888D02*
X5753515Y-940841D01*
X5753515Y-940841D02*
X5734468Y-931317D01*
X5734468Y-931317D02*
X5705896Y-931317D01*
X5705896Y-931317D02*
X5686849Y-921793D01*
X5686849Y-921793D02*
X5677325Y-902746D01*
X5677325Y-902746D02*
X5677325Y-893222D01*
X5677325Y-893222D02*
X5686849Y-874174D01*
X5686849Y-874174D02*
X5705896Y-864650D01*
X5705896Y-864650D02*
X5734468Y-864650D01*
X5734468Y-864650D02*
X5753515Y-874174D01*
X5877325Y-997984D02*
X5858277Y-988460D01*
X5858277Y-988460D02*
X5848754Y-969412D01*
X5848754Y-969412D02*
X5848754Y-797984D01*
X5982087Y-997984D02*
X5963039Y-988460D01*
X5963039Y-988460D02*
X5953515Y-978936D01*
X5953515Y-978936D02*
X5943992Y-959888D01*
X5943992Y-959888D02*
X5943992Y-902746D01*
X5943992Y-902746D02*
X5953515Y-883698D01*
X5953515Y-883698D02*
X5963039Y-874174D01*
X5963039Y-874174D02*
X5982087Y-864650D01*
X5982087Y-864650D02*
X6010658Y-864650D01*
X6010658Y-864650D02*
X6029706Y-874174D01*
X6029706Y-874174D02*
X6039230Y-883698D01*
X6039230Y-883698D02*
X6048754Y-902746D01*
X6048754Y-902746D02*
X6048754Y-959888D01*
X6048754Y-959888D02*
X6039230Y-978936D01*
X6039230Y-978936D02*
X6029706Y-988460D01*
X6029706Y-988460D02*
X6010658Y-997984D01*
X6010658Y-997984D02*
X5982087Y-997984D01*
X6105896Y-864650D02*
X6182087Y-864650D01*
X6134468Y-797984D02*
X6134468Y-969412D01*
X6134468Y-969412D02*
X6143992Y-988460D01*
X6143992Y-988460D02*
X6163039Y-997984D01*
X6163039Y-997984D02*
X6182087Y-997984D01*
X6239230Y-988460D02*
X6258277Y-997984D01*
X6258277Y-997984D02*
X6296373Y-997984D01*
X6296373Y-997984D02*
X6315420Y-988460D01*
X6315420Y-988460D02*
X6324944Y-969412D01*
X6324944Y-969412D02*
X6324944Y-959888D01*
X6324944Y-959888D02*
X6315420Y-940841D01*
X6315420Y-940841D02*
X6296373Y-931317D01*
X6296373Y-931317D02*
X6267801Y-931317D01*
X6267801Y-931317D02*
X6248754Y-921793D01*
X6248754Y-921793D02*
X6239230Y-902746D01*
X6239230Y-902746D02*
X6239230Y-893222D01*
X6239230Y-893222D02*
X6248754Y-874174D01*
X6248754Y-874174D02*
X6267801Y-864650D01*
X6267801Y-864650D02*
X6296373Y-864650D01*
X6296373Y-864650D02*
X6315420Y-874174D01*
X6391611Y-1074174D02*
X6401135Y-1064650D01*
X6401135Y-1064650D02*
X6420182Y-1036079D01*
X6420182Y-1036079D02*
X6429706Y-1017031D01*
X6429706Y-1017031D02*
X6439230Y-988460D01*
X6439230Y-988460D02*
X6448754Y-940841D01*
X6448754Y-940841D02*
X6448754Y-902746D01*
X6448754Y-902746D02*
X6439230Y-855127D01*
X6439230Y-855127D02*
X6429706Y-826555D01*
X6429706Y-826555D02*
X6420182Y-807508D01*
X6420182Y-807508D02*
X6401135Y-778936D01*
X6401135Y-778936D02*
X6391611Y-769412D01*
X-102500Y-1070500D02*
X-102500Y-1270500D01*
X-202500Y-1170500D02*
X-2500Y-1170500D01*
X239229Y-1061984D02*
X363039Y-1061984D01*
X363039Y-1061984D02*
X296372Y-1138174D01*
X296372Y-1138174D02*
X324944Y-1138174D01*
X324944Y-1138174D02*
X343991Y-1147698D01*
X343991Y-1147698D02*
X353515Y-1157222D01*
X353515Y-1157222D02*
X363039Y-1176270D01*
X363039Y-1176270D02*
X363039Y-1223889D01*
X363039Y-1223889D02*
X353515Y-1242936D01*
X353515Y-1242936D02*
X343991Y-1252460D01*
X343991Y-1252460D02*
X324944Y-1261984D01*
X324944Y-1261984D02*
X267801Y-1261984D01*
X267801Y-1261984D02*
X248753Y-1252460D01*
X248753Y-1252460D02*
X239229Y-1242936D01*
X448753Y-1242936D02*
X458277Y-1252460D01*
X458277Y-1252460D02*
X448753Y-1261984D01*
X448753Y-1261984D02*
X439229Y-1252460D01*
X439229Y-1252460D02*
X448753Y-1242936D01*
X448753Y-1242936D02*
X448753Y-1261984D01*
X534467Y-1081031D02*
X543991Y-1071508D01*
X543991Y-1071508D02*
X563039Y-1061984D01*
X563039Y-1061984D02*
X610658Y-1061984D01*
X610658Y-1061984D02*
X629705Y-1071508D01*
X629705Y-1071508D02*
X639229Y-1081031D01*
X639229Y-1081031D02*
X648753Y-1100079D01*
X648753Y-1100079D02*
X648753Y-1119127D01*
X648753Y-1119127D02*
X639229Y-1147698D01*
X639229Y-1147698D02*
X524944Y-1261984D01*
X524944Y-1261984D02*
X648753Y-1261984D01*
X772562Y-1061984D02*
X791610Y-1061984D01*
X791610Y-1061984D02*
X810658Y-1071508D01*
X810658Y-1071508D02*
X820182Y-1081031D01*
X820182Y-1081031D02*
X829705Y-1100079D01*
X829705Y-1100079D02*
X839229Y-1138174D01*
X839229Y-1138174D02*
X839229Y-1185793D01*
X839229Y-1185793D02*
X829705Y-1223889D01*
X829705Y-1223889D02*
X820182Y-1242936D01*
X820182Y-1242936D02*
X810658Y-1252460D01*
X810658Y-1252460D02*
X791610Y-1261984D01*
X791610Y-1261984D02*
X772562Y-1261984D01*
X772562Y-1261984D02*
X753515Y-1252460D01*
X753515Y-1252460D02*
X743991Y-1242936D01*
X743991Y-1242936D02*
X734467Y-1223889D01*
X734467Y-1223889D02*
X724943Y-1185793D01*
X724943Y-1185793D02*
X724943Y-1138174D01*
X724943Y-1138174D02*
X734467Y-1100079D01*
X734467Y-1100079D02*
X743991Y-1081031D01*
X743991Y-1081031D02*
X753515Y-1071508D01*
X753515Y-1071508D02*
X772562Y-1061984D01*
X963039Y-1061984D02*
X982086Y-1061984D01*
X982086Y-1061984D02*
X1001134Y-1071508D01*
X1001134Y-1071508D02*
X1010658Y-1081031D01*
X1010658Y-1081031D02*
X1020182Y-1100079D01*
X1020182Y-1100079D02*
X1029705Y-1138174D01*
X1029705Y-1138174D02*
X1029705Y-1185793D01*
X1029705Y-1185793D02*
X1020182Y-1223889D01*
X1020182Y-1223889D02*
X1010658Y-1242936D01*
X1010658Y-1242936D02*
X1001134Y-1252460D01*
X1001134Y-1252460D02*
X982086Y-1261984D01*
X982086Y-1261984D02*
X963039Y-1261984D01*
X963039Y-1261984D02*
X943991Y-1252460D01*
X943991Y-1252460D02*
X934467Y-1242936D01*
X934467Y-1242936D02*
X924943Y-1223889D01*
X924943Y-1223889D02*
X915420Y-1185793D01*
X915420Y-1185793D02*
X915420Y-1138174D01*
X915420Y-1138174D02*
X924943Y-1100079D01*
X924943Y-1100079D02*
X934467Y-1081031D01*
X934467Y-1081031D02*
X943991Y-1071508D01*
X943991Y-1071508D02*
X963039Y-1061984D01*
X1115420Y-1261984D02*
X1115420Y-1128650D01*
X1115420Y-1147698D02*
X1124944Y-1138174D01*
X1124944Y-1138174D02*
X1143991Y-1128650D01*
X1143991Y-1128650D02*
X1172563Y-1128650D01*
X1172563Y-1128650D02*
X1191610Y-1138174D01*
X1191610Y-1138174D02*
X1201134Y-1157222D01*
X1201134Y-1157222D02*
X1201134Y-1261984D01*
X1201134Y-1157222D02*
X1210658Y-1138174D01*
X1210658Y-1138174D02*
X1229705Y-1128650D01*
X1229705Y-1128650D02*
X1258277Y-1128650D01*
X1258277Y-1128650D02*
X1277325Y-1138174D01*
X1277325Y-1138174D02*
X1286848Y-1157222D01*
X1286848Y-1157222D02*
X1286848Y-1261984D01*
X1382086Y-1261984D02*
X1382086Y-1128650D01*
X1382086Y-1147698D02*
X1391610Y-1138174D01*
X1391610Y-1138174D02*
X1410658Y-1128650D01*
X1410658Y-1128650D02*
X1439229Y-1128650D01*
X1439229Y-1128650D02*
X1458277Y-1138174D01*
X1458277Y-1138174D02*
X1467801Y-1157222D01*
X1467801Y-1157222D02*
X1467801Y-1261984D01*
X1467801Y-1157222D02*
X1477324Y-1138174D01*
X1477324Y-1138174D02*
X1496372Y-1128650D01*
X1496372Y-1128650D02*
X1524943Y-1128650D01*
X1524943Y-1128650D02*
X1543991Y-1138174D01*
X1543991Y-1138174D02*
X1553515Y-1157222D01*
X1553515Y-1157222D02*
X1553515Y-1261984D01*
X1943991Y-1052460D02*
X1772563Y-1309603D01*
X2201134Y-1061984D02*
X2220182Y-1061984D01*
X2220182Y-1061984D02*
X2239229Y-1071508D01*
X2239229Y-1071508D02*
X2248753Y-1081031D01*
X2248753Y-1081031D02*
X2258277Y-1100079D01*
X2258277Y-1100079D02*
X2267801Y-1138174D01*
X2267801Y-1138174D02*
X2267801Y-1185793D01*
X2267801Y-1185793D02*
X2258277Y-1223889D01*
X2258277Y-1223889D02*
X2248753Y-1242936D01*
X2248753Y-1242936D02*
X2239229Y-1252460D01*
X2239229Y-1252460D02*
X2220182Y-1261984D01*
X2220182Y-1261984D02*
X2201134Y-1261984D01*
X2201134Y-1261984D02*
X2182087Y-1252460D01*
X2182087Y-1252460D02*
X2172563Y-1242936D01*
X2172563Y-1242936D02*
X2163039Y-1223889D01*
X2163039Y-1223889D02*
X2153515Y-1185793D01*
X2153515Y-1185793D02*
X2153515Y-1138174D01*
X2153515Y-1138174D02*
X2163039Y-1100079D01*
X2163039Y-1100079D02*
X2172563Y-1081031D01*
X2172563Y-1081031D02*
X2182087Y-1071508D01*
X2182087Y-1071508D02*
X2201134Y-1061984D01*
X2353515Y-1242936D02*
X2363039Y-1252460D01*
X2363039Y-1252460D02*
X2353515Y-1261984D01*
X2353515Y-1261984D02*
X2343991Y-1252460D01*
X2343991Y-1252460D02*
X2353515Y-1242936D01*
X2353515Y-1242936D02*
X2353515Y-1261984D01*
X2553515Y-1261984D02*
X2439229Y-1261984D01*
X2496372Y-1261984D02*
X2496372Y-1061984D01*
X2496372Y-1061984D02*
X2477325Y-1090555D01*
X2477325Y-1090555D02*
X2458277Y-1109603D01*
X2458277Y-1109603D02*
X2439229Y-1119127D01*
X2629706Y-1081031D02*
X2639229Y-1071508D01*
X2639229Y-1071508D02*
X2658277Y-1061984D01*
X2658277Y-1061984D02*
X2705896Y-1061984D01*
X2705896Y-1061984D02*
X2724944Y-1071508D01*
X2724944Y-1071508D02*
X2734468Y-1081031D01*
X2734468Y-1081031D02*
X2743991Y-1100079D01*
X2743991Y-1100079D02*
X2743991Y-1119127D01*
X2743991Y-1119127D02*
X2734468Y-1147698D01*
X2734468Y-1147698D02*
X2620182Y-1261984D01*
X2620182Y-1261984D02*
X2743991Y-1261984D01*
X2915420Y-1061984D02*
X2877325Y-1061984D01*
X2877325Y-1061984D02*
X2858277Y-1071508D01*
X2858277Y-1071508D02*
X2848753Y-1081031D01*
X2848753Y-1081031D02*
X2829706Y-1109603D01*
X2829706Y-1109603D02*
X2820182Y-1147698D01*
X2820182Y-1147698D02*
X2820182Y-1223889D01*
X2820182Y-1223889D02*
X2829706Y-1242936D01*
X2829706Y-1242936D02*
X2839229Y-1252460D01*
X2839229Y-1252460D02*
X2858277Y-1261984D01*
X2858277Y-1261984D02*
X2896372Y-1261984D01*
X2896372Y-1261984D02*
X2915420Y-1252460D01*
X2915420Y-1252460D02*
X2924944Y-1242936D01*
X2924944Y-1242936D02*
X2934467Y-1223889D01*
X2934467Y-1223889D02*
X2934467Y-1176270D01*
X2934467Y-1176270D02*
X2924944Y-1157222D01*
X2924944Y-1157222D02*
X2915420Y-1147698D01*
X2915420Y-1147698D02*
X2896372Y-1138174D01*
X2896372Y-1138174D02*
X2858277Y-1138174D01*
X2858277Y-1138174D02*
X2839229Y-1147698D01*
X2839229Y-1147698D02*
X2829706Y-1157222D01*
X2829706Y-1157222D02*
X2820182Y-1176270D01*
X3058277Y-1061984D02*
X3077325Y-1061984D01*
X3077325Y-1061984D02*
X3096372Y-1071508D01*
X3096372Y-1071508D02*
X3105896Y-1081031D01*
X3105896Y-1081031D02*
X3115420Y-1100079D01*
X3115420Y-1100079D02*
X3124944Y-1138174D01*
X3124944Y-1138174D02*
X3124944Y-1185793D01*
X3124944Y-1185793D02*
X3115420Y-1223889D01*
X3115420Y-1223889D02*
X3105896Y-1242936D01*
X3105896Y-1242936D02*
X3096372Y-1252460D01*
X3096372Y-1252460D02*
X3077325Y-1261984D01*
X3077325Y-1261984D02*
X3058277Y-1261984D01*
X3058277Y-1261984D02*
X3039229Y-1252460D01*
X3039229Y-1252460D02*
X3029706Y-1242936D01*
X3029706Y-1242936D02*
X3020182Y-1223889D01*
X3020182Y-1223889D02*
X3010658Y-1185793D01*
X3010658Y-1185793D02*
X3010658Y-1138174D01*
X3010658Y-1138174D02*
X3020182Y-1100079D01*
X3020182Y-1100079D02*
X3029706Y-1081031D01*
X3029706Y-1081031D02*
X3039229Y-1071508D01*
X3039229Y-1071508D02*
X3058277Y-1061984D01*
X3201134Y-1061984D02*
X3201134Y-1100079D01*
X3277325Y-1061984D02*
X3277325Y-1100079D01*
X3572563Y-1338174D02*
X3563039Y-1328650D01*
X3563039Y-1328650D02*
X3543991Y-1300079D01*
X3543991Y-1300079D02*
X3534468Y-1281031D01*
X3534468Y-1281031D02*
X3524944Y-1252460D01*
X3524944Y-1252460D02*
X3515420Y-1204841D01*
X3515420Y-1204841D02*
X3515420Y-1166746D01*
X3515420Y-1166746D02*
X3524944Y-1119127D01*
X3524944Y-1119127D02*
X3534468Y-1090555D01*
X3534468Y-1090555D02*
X3543991Y-1071508D01*
X3543991Y-1071508D02*
X3563039Y-1042936D01*
X3563039Y-1042936D02*
X3572563Y-1033412D01*
X3629706Y-1061984D02*
X3753515Y-1061984D01*
X3753515Y-1061984D02*
X3686848Y-1138174D01*
X3686848Y-1138174D02*
X3715420Y-1138174D01*
X3715420Y-1138174D02*
X3734468Y-1147698D01*
X3734468Y-1147698D02*
X3743991Y-1157222D01*
X3743991Y-1157222D02*
X3753515Y-1176270D01*
X3753515Y-1176270D02*
X3753515Y-1223889D01*
X3753515Y-1223889D02*
X3743991Y-1242936D01*
X3743991Y-1242936D02*
X3734468Y-1252460D01*
X3734468Y-1252460D02*
X3715420Y-1261984D01*
X3715420Y-1261984D02*
X3658277Y-1261984D01*
X3658277Y-1261984D02*
X3639229Y-1252460D01*
X3639229Y-1252460D02*
X3629706Y-1242936D01*
X3991610Y-1261984D02*
X3991610Y-1061984D01*
X4077325Y-1261984D02*
X4077325Y-1157222D01*
X4077325Y-1157222D02*
X4067801Y-1138174D01*
X4067801Y-1138174D02*
X4048753Y-1128650D01*
X4048753Y-1128650D02*
X4020182Y-1128650D01*
X4020182Y-1128650D02*
X4001134Y-1138174D01*
X4001134Y-1138174D02*
X3991610Y-1147698D01*
X4201134Y-1261984D02*
X4182087Y-1252460D01*
X4182087Y-1252460D02*
X4172563Y-1242936D01*
X4172563Y-1242936D02*
X4163039Y-1223889D01*
X4163039Y-1223889D02*
X4163039Y-1166746D01*
X4163039Y-1166746D02*
X4172563Y-1147698D01*
X4172563Y-1147698D02*
X4182087Y-1138174D01*
X4182087Y-1138174D02*
X4201134Y-1128650D01*
X4201134Y-1128650D02*
X4229706Y-1128650D01*
X4229706Y-1128650D02*
X4248753Y-1138174D01*
X4248753Y-1138174D02*
X4258277Y-1147698D01*
X4258277Y-1147698D02*
X4267801Y-1166746D01*
X4267801Y-1166746D02*
X4267801Y-1223889D01*
X4267801Y-1223889D02*
X4258277Y-1242936D01*
X4258277Y-1242936D02*
X4248753Y-1252460D01*
X4248753Y-1252460D02*
X4229706Y-1261984D01*
X4229706Y-1261984D02*
X4201134Y-1261984D01*
X4382087Y-1261984D02*
X4363039Y-1252460D01*
X4363039Y-1252460D02*
X4353515Y-1233412D01*
X4353515Y-1233412D02*
X4353515Y-1061984D01*
X4534468Y-1252460D02*
X4515420Y-1261984D01*
X4515420Y-1261984D02*
X4477325Y-1261984D01*
X4477325Y-1261984D02*
X4458277Y-1252460D01*
X4458277Y-1252460D02*
X4448753Y-1233412D01*
X4448753Y-1233412D02*
X4448753Y-1157222D01*
X4448753Y-1157222D02*
X4458277Y-1138174D01*
X4458277Y-1138174D02*
X4477325Y-1128650D01*
X4477325Y-1128650D02*
X4515420Y-1128650D01*
X4515420Y-1128650D02*
X4534468Y-1138174D01*
X4534468Y-1138174D02*
X4543992Y-1157222D01*
X4543992Y-1157222D02*
X4543992Y-1176270D01*
X4543992Y-1176270D02*
X4448753Y-1195317D01*
X4620182Y-1252460D02*
X4639230Y-1261984D01*
X4639230Y-1261984D02*
X4677325Y-1261984D01*
X4677325Y-1261984D02*
X4696373Y-1252460D01*
X4696373Y-1252460D02*
X4705896Y-1233412D01*
X4705896Y-1233412D02*
X4705896Y-1223889D01*
X4705896Y-1223889D02*
X4696373Y-1204841D01*
X4696373Y-1204841D02*
X4677325Y-1195317D01*
X4677325Y-1195317D02*
X4648753Y-1195317D01*
X4648753Y-1195317D02*
X4629706Y-1185793D01*
X4629706Y-1185793D02*
X4620182Y-1166746D01*
X4620182Y-1166746D02*
X4620182Y-1157222D01*
X4620182Y-1157222D02*
X4629706Y-1138174D01*
X4629706Y-1138174D02*
X4648753Y-1128650D01*
X4648753Y-1128650D02*
X4677325Y-1128650D01*
X4677325Y-1128650D02*
X4696373Y-1138174D01*
X4772563Y-1338174D02*
X4782087Y-1328650D01*
X4782087Y-1328650D02*
X4801134Y-1300079D01*
X4801134Y-1300079D02*
X4810658Y-1281031D01*
X4810658Y-1281031D02*
X4820182Y-1252460D01*
X4820182Y-1252460D02*
X4829706Y-1204841D01*
X4829706Y-1204841D02*
X4829706Y-1166746D01*
X4829706Y-1166746D02*
X4820182Y-1119127D01*
X4820182Y-1119127D02*
X4810658Y-1090555D01*
X4810658Y-1090555D02*
X4801134Y-1071508D01*
X4801134Y-1071508D02*
X4782087Y-1042936D01*
X4782087Y-1042936D02*
X4772563Y-1033412D01*
M02*
