M48
; DRILL file {KiCad 9.0.6} date 2025-12-10T11:17:10+0100
; FORMAT={-:-/ absolute / metric / decimal}
; #@! TF.CreationDate,2025-12-10T11:17:10+01:00
; #@! TF.GenerationSoftware,Kicad,Pcbnew,9.0.6
; #@! TF.FileFunction,Plated,1,2,PTH
FMAT,2
METRIC
; #@! TA.AperFunction,Plated,PTH,ViaDrill
T1C0.300
; #@! TA.AperFunction,Plated,PTH,ComponentDrill
T2C0.600
; #@! TA.AperFunction,Plated,PTH,ComponentDrill
T3C3.200
%
G90
G05
T1
X0.8Y50.36
X0.8Y0.8
X0.801Y40.44
X0.801Y10.704
X8.109Y18.636
X10.718Y16.448
X12.073Y24.898
X12.077Y22.968
X12.083Y28.882
X12.083Y26.879
X12.313Y0.802
X12.316Y50.36
X13.698Y38.798
X14.039Y28.859
X14.041Y22.968
X14.049Y26.885
X14.056Y24.902
X14.148Y18.578
X14.891Y33.84
X15.39Y29.898
X16.472Y23.638
X17.05Y24.277
X17.598Y10.448
X17.848Y42.473
X18.183Y17.883
X18.598Y46.708
X19.318Y19.948
X19.326Y42.499
X19.538Y39.288
X20.428Y12.854
X20.488Y17.788
X21.438Y14.628
X22.278Y28.608
X22.548Y32.848
X22.598Y15.378
X22.718Y2.348
X22.918Y20.218
X23.788Y9.818
X23.829Y0.8
X23.831Y50.36
X25.843Y15.933
X28.478Y8.968
X29.048Y34.818
X29.472Y32.877
X30.191Y29.483
X30.599Y30.428
X30.783Y23.198
X31.139Y33.955
X32.268Y5.728
X32.271Y23.819
X32.321Y31.124
X33.938Y18.498
X34.092Y33.964
X35.347Y50.36
X35.351Y0.8
X35.448Y11.388
X35.6Y33.935
X35.798Y5.738
X36.122Y38.178
X36.699Y37.603
X37.19Y37.028
X37.695Y36.453
X38.198Y35.878
X38.331Y5.779
X38.558Y7.968
X38.766Y32.778
X39.451Y8.069
X39.483Y26.463
X39.628Y33.108
X40.01Y5.775
X40.408Y8.839
X40.646Y29.905
X40.678Y35.358
X41.058Y8.078
X41.088Y3.528
X41.613Y32.881
X42.808Y15.878
X43.869Y31.508
X44.108Y11.728
X44.988Y31.618
X46.846Y0.808
X46.861Y40.442
X46.861Y30.53
X46.861Y20.618
X46.861Y10.706
X46.863Y50.36
T3
X4.975Y46.185
X4.975Y4.975
X42.688Y46.185
T2
G00X36.058Y9.805
M15
G01X35.558Y9.805
M16
G05
G00X36.058Y6.945
M15
G01X35.558Y6.945
M16
G05
G00X44.058Y9.805
M15
G01X43.558Y9.805
M16
G05
G00X44.058Y6.945
M15
G01X43.558Y6.945
M16
G05
M30
